<svg xmlns="http://www.w3.org/2000/svg" viewBox="0 0 1920 1200" width="640" height="400"><title>Three invitations: verified Medium route</title><rect width="100%" height="100%" fill="#edf1e7"/><rect x="0" y="1140" width="30" height="30" fill="#47544c"/><rect x="30" y="1140" width="30" height="30" fill="#47544c"/><rect x="60" y="1140" width="30" height="30" fill="#47544c"/><rect x="90" y="1140" width="30" height="30" fill="#47544c"/><rect x="120" y="1140" width="30" height="30" fill="#47544c"/><rect x="150" y="1140" width="30" height="30" fill="#47544c"/><rect x="180" y="1140" width="30" height="30" fill="#47544c"/><rect x="210" y="1140" width="30" height="30" fill="#47544c"/><rect x="240" y="1140" width="30" height="30" fill="#47544c"/><rect x="270" y="1140" width="30" height="30" fill="#47544c"/><rect x="300" y="1140" width="30" height="30" fill="#47544c"/><rect x="330" y="1140" width="30" height="30" fill="#47544c"/><rect x="360" y="1140" width="30" height="30" fill="#47544c"/><rect x="390" y="1140" width="30" height="30" fill="#47544c"/><rect x="420" y="1140" width="30" height="30" fill="#47544c"/><rect x="450" y="1140" width="30" height="30" fill="#47544c"/><rect x="480" y="1140" width="30" height="30" fill="#47544c"/><rect x="510" y="1140" width="30" height="30" fill="#47544c"/><rect x="540" y="1140" width="30" height="30" fill="#47544c"/><rect x="570" y="1140" width="30" height="30" fill="#47544c"/><rect x="600" y="1140" width="30" height="30" fill="#47544c"/><rect x="630" y="1140" width="30" height="30" fill="#47544c"/><rect x="660" y="1140" width="30" height="30" fill="#47544c"/><rect x="690" y="1140" width="30" height="30" fill="#47544c"/><rect x="720" y="1140" width="30" height="30" fill="#47544c"/><rect x="750" y="1140" width="30" height="30" fill="#47544c"/><rect x="780" y="1140" width="30" height="30" fill="#47544c"/><rect x="810" y="1140" width="30" height="30" fill="#47544c"/><rect x="840" y="1140" width="30" height="30" fill="#47544c"/><rect x="870" y="1140" width="30" height="30" fill="#47544c"/><rect x="900" y="1140" width="30" height="30" fill="#47544c"/><rect x="930" y="1140" width="30" height="30" fill="#47544c"/><rect x="960" y="1140" width="30" height="30" fill="#47544c"/><rect x="990" y="1140" width="30" height="30" fill="#47544c"/><rect x="1020" y="1140" width="30" height="30" fill="#47544c"/><rect x="1050" y="1140" width="30" height="30" fill="#47544c"/><rect x="1080" y="1140" width="30" height="30" fill="#47544c"/><rect x="1110" y="1140" width="30" height="30" fill="#47544c"/><rect x="1140" y="1140" width="30" height="30" fill="#47544c"/><rect x="1170" y="1140" width="30" height="30" fill="#47544c"/><rect x="1200" y="1140" width="30" height="30" fill="#47544c"/><rect x="1230" y="1140" width="30" height="30" fill="#47544c"/><rect x="1260" y="1140" width="30" height="30" fill="#47544c"/><rect x="1290" y="1140" width="30" height="30" fill="#47544c"/><rect x="1320" y="1140" width="30" height="30" fill="#47544c"/><rect x="1350" y="1140" width="30" height="30" fill="#47544c"/><rect x="1380" y="1140" width="30" height="30" fill="#47544c"/><rect x="1410" y="1140" width="30" height="30" fill="#47544c"/><rect x="1440" y="1140" width="30" height="30" fill="#47544c"/><rect x="1470" y="1140" width="30" height="30" fill="#47544c"/><rect x="1500" y="1140" width="30" height="30" fill="#47544c"/><rect x="1530" y="1140" width="30" height="30" fill="#47544c"/><rect x="1560" y="1140" width="30" height="30" fill="#47544c"/><rect x="1590" y="1140" width="30" height="30" fill="#47544c"/><rect x="1620" y="1140" width="30" height="30" fill="#47544c"/><rect x="1650" y="1140" width="30" height="30" fill="#47544c"/><rect x="1680" y="1140" width="30" height="30" fill="#47544c"/><rect x="1710" y="1140" width="30" height="30" fill="#47544c"/><rect x="1740" y="1140" width="30" height="30" fill="#47544c"/><rect x="1770" y="1140" width="30" height="30" fill="#47544c"/><rect x="1800" y="1140" width="30" height="30" fill="#47544c"/><rect x="1830" y="1140" width="30" height="30" fill="#47544c"/><rect x="1860" y="1140" width="30" height="30" fill="#47544c"/><rect x="1890" y="1140" width="30" height="30" fill="#47544c"/><rect x="0" y="1170" width="30" height="30" fill="#47544c"/><rect x="30" y="1170" width="30" height="30" fill="#47544c"/><rect x="60" y="1170" width="30" height="30" fill="#47544c"/><rect x="90" y="1170" width="30" height="30" fill="#47544c"/><rect x="120" y="1170" width="30" height="30" fill="#47544c"/><rect x="150" y="1170" width="30" height="30" fill="#47544c"/><rect x="180" y="1170" width="30" height="30" fill="#47544c"/><rect x="210" y="1170" width="30" height="30" fill="#47544c"/><rect x="240" y="1170" width="30" height="30" fill="#47544c"/><rect x="270" y="1170" width="30" height="30" fill="#47544c"/><rect x="300" y="1170" width="30" height="30" fill="#47544c"/><rect x="330" y="1170" width="30" height="30" fill="#47544c"/><rect x="360" y="1170" width="30" height="30" fill="#47544c"/><rect x="390" y="1170" width="30" height="30" fill="#47544c"/><rect x="420" y="1170" width="30" height="30" fill="#47544c"/><rect x="450" y="1170" width="30" height="30" fill="#47544c"/><rect x="480" y="1170" width="30" height="30" fill="#47544c"/><rect x="510" y="1170" width="30" height="30" fill="#47544c"/><rect x="540" y="1170" width="30" height="30" fill="#47544c"/><rect x="570" y="1170" width="30" height="30" fill="#47544c"/><rect x="600" y="1170" width="30" height="30" fill="#47544c"/><rect x="630" y="1170" width="30" height="30" fill="#47544c"/><rect x="660" y="1170" width="30" height="30" fill="#47544c"/><rect x="690" y="1170" width="30" height="30" fill="#47544c"/><rect x="720" y="1170" width="30" height="30" fill="#47544c"/><rect x="750" y="1170" width="30" height="30" fill="#47544c"/><rect x="780" y="1170" width="30" height="30" fill="#47544c"/><rect x="810" y="1170" width="30" height="30" fill="#47544c"/><rect x="840" y="1170" width="30" height="30" fill="#47544c"/><rect x="870" y="1170" width="30" height="30" fill="#47544c"/><rect x="900" y="1170" width="30" height="30" fill="#47544c"/><rect x="930" y="1170" width="30" height="30" fill="#47544c"/><rect x="960" y="1170" width="30" height="30" fill="#47544c"/><rect x="990" y="1170" width="30" height="30" fill="#47544c"/><rect x="1020" y="1170" width="30" height="30" fill="#47544c"/><rect x="1050" y="1170" width="30" height="30" fill="#47544c"/><rect x="1080" y="1170" width="30" height="30" fill="#47544c"/><rect x="1110" y="1170" width="30" height="30" fill="#47544c"/><rect x="1140" y="1170" width="30" height="30" fill="#47544c"/><rect x="1170" y="1170" width="30" height="30" fill="#47544c"/><rect x="1200" y="1170" width="30" height="30" fill="#47544c"/><rect x="1230" y="1170" width="30" height="30" fill="#47544c"/><rect x="1260" y="1170" width="30" height="30" fill="#47544c"/><rect x="1290" y="1170" width="30" height="30" fill="#47544c"/><rect x="1320" y="1170" width="30" height="30" fill="#47544c"/><rect x="1350" y="1170" width="30" height="30" fill="#47544c"/><rect x="1380" y="1170" width="30" height="30" fill="#47544c"/><rect x="1410" y="1170" width="30" height="30" fill="#47544c"/><rect x="1440" y="1170" width="30" height="30" fill="#47544c"/><rect x="1470" y="1170" width="30" height="30" fill="#47544c"/><rect x="1500" y="1170" width="30" height="30" fill="#47544c"/><rect x="1530" y="1170" width="30" height="30" fill="#47544c"/><rect x="1560" y="1170" width="30" height="30" fill="#47544c"/><rect x="1590" y="1170" width="30" height="30" fill="#47544c"/><rect x="1620" y="1170" width="30" height="30" fill="#47544c"/><rect x="1650" y="1170" width="30" height="30" fill="#47544c"/><rect x="1680" y="1170" width="30" height="30" fill="#47544c"/><rect x="1710" y="1170" width="30" height="30" fill="#47544c"/><rect x="1740" y="1170" width="30" height="30" fill="#47544c"/><rect x="1770" y="1170" width="30" height="30" fill="#47544c"/><rect x="1800" y="1170" width="30" height="30" fill="#47544c"/><rect x="1830" y="1170" width="30" height="30" fill="#47544c"/><rect x="1860" y="1170" width="30" height="30" fill="#47544c"/><rect x="1890" y="1170" width="30" height="30" fill="#47544c"/><rect x="0" y="0" width="30" height="30" fill="#47544c"/><rect x="30" y="0" width="30" height="30" fill="#47544c"/><rect x="60" y="0" width="30" height="30" fill="#47544c"/><rect x="90" y="0" width="30" height="30" fill="#47544c"/><rect x="120" y="0" width="30" height="30" fill="#47544c"/><rect x="150" y="0" width="30" height="30" fill="#47544c"/><rect x="180" y="0" width="30" height="30" fill="#47544c"/><rect x="210" y="0" width="30" height="30" fill="#47544c"/><rect x="240" y="0" width="30" height="30" fill="#47544c"/><rect x="270" y="0" width="30" height="30" fill="#47544c"/><rect x="300" y="0" width="30" height="30" fill="#47544c"/><rect x="330" y="0" width="30" height="30" fill="#47544c"/><rect x="360" y="0" width="30" height="30" fill="#47544c"/><rect x="390" y="0" width="30" height="30" fill="#47544c"/><rect x="420" y="0" width="30" height="30" fill="#47544c"/><rect x="450" y="0" width="30" height="30" fill="#47544c"/><rect x="480" y="0" width="30" height="30" fill="#47544c"/><rect x="510" y="0" width="30" height="30" fill="#47544c"/><rect x="540" y="0" width="30" height="30" fill="#47544c"/><rect x="570" y="0" width="30" height="30" fill="#47544c"/><rect x="600" y="0" width="30" height="30" fill="#47544c"/><rect x="630" y="0" width="30" height="30" fill="#47544c"/><rect x="660" y="0" width="30" height="30" fill="#47544c"/><rect x="690" y="0" width="30" height="30" fill="#47544c"/><rect x="720" y="0" width="30" height="30" fill="#47544c"/><rect x="750" y="0" width="30" height="30" fill="#47544c"/><rect x="780" y="0" width="30" height="30" fill="#47544c"/><rect x="810" y="0" width="30" height="30" fill="#47544c"/><rect x="840" y="0" width="30" height="30" fill="#47544c"/><rect x="870" y="0" width="30" height="30" fill="#47544c"/><rect x="900" y="0" width="30" height="30" fill="#47544c"/><rect x="930" y="0" width="30" height="30" fill="#47544c"/><rect x="960" y="0" width="30" height="30" fill="#47544c"/><rect x="990" y="0" width="30" height="30" fill="#47544c"/><rect x="1020" y="0" width="30" height="30" fill="#47544c"/><rect x="1050" y="0" width="30" height="30" fill="#47544c"/><rect x="1080" y="0" width="30" height="30" fill="#47544c"/><rect x="1110" y="0" width="30" height="30" fill="#47544c"/><rect x="1140" y="0" width="30" height="30" fill="#47544c"/><rect x="1170" y="0" width="30" height="30" fill="#47544c"/><rect x="1200" y="0" width="30" height="30" fill="#47544c"/><rect x="1230" y="0" width="30" height="30" fill="#47544c"/><rect x="1260" y="0" width="30" height="30" fill="#47544c"/><rect x="1290" y="0" width="30" height="30" fill="#47544c"/><rect x="1320" y="0" width="30" height="30" fill="#47544c"/><rect x="1350" y="0" width="30" height="30" fill="#47544c"/><rect x="1380" y="0" width="30" height="30" fill="#47544c"/><rect x="1410" y="0" width="30" height="30" fill="#47544c"/><rect x="1440" y="0" width="30" height="30" fill="#47544c"/><rect x="1470" y="0" width="30" height="30" fill="#47544c"/><rect x="1500" y="0" width="30" height="30" fill="#47544c"/><rect x="1530" y="0" width="30" height="30" fill="#47544c"/><rect x="1560" y="0" width="30" height="30" fill="#47544c"/><rect x="1590" y="0" width="30" height="30" fill="#47544c"/><rect x="1620" y="0" width="30" height="30" fill="#47544c"/><rect x="1650" y="0" width="30" height="30" fill="#47544c"/><rect x="1680" y="0" width="30" height="30" fill="#47544c"/><rect x="1710" y="0" width="30" height="30" fill="#47544c"/><rect x="1740" y="0" width="30" height="30" fill="#47544c"/><rect x="1770" y="0" width="30" height="30" fill="#47544c"/><rect x="1800" y="0" width="30" height="30" fill="#47544c"/><rect x="1830" y="0" width="30" height="30" fill="#47544c"/><rect x="1860" y="0" width="30" height="30" fill="#47544c"/><rect x="1890" y="0" width="30" height="30" fill="#47544c"/><rect x="0" y="30" width="30" height="30" fill="#47544c"/><rect x="0" y="60" width="30" height="30" fill="#47544c"/><rect x="0" y="90" width="30" height="30" fill="#47544c"/><rect x="0" y="120" width="30" height="30" fill="#47544c"/><rect x="0" y="150" width="30" height="30" fill="#47544c"/><rect x="0" y="180" width="30" height="30" fill="#47544c"/><rect x="0" y="210" width="30" height="30" fill="#47544c"/><rect x="0" y="240" width="30" height="30" fill="#47544c"/><rect x="0" y="270" width="30" height="30" fill="#47544c"/><rect x="0" y="300" width="30" height="30" fill="#47544c"/><rect x="0" y="330" width="30" height="30" fill="#47544c"/><rect x="0" y="360" width="30" height="30" fill="#47544c"/><rect x="0" y="390" width="30" height="30" fill="#47544c"/><rect x="0" y="420" width="30" height="30" fill="#47544c"/><rect x="0" y="450" width="30" height="30" fill="#47544c"/><rect x="0" y="480" width="30" height="30" fill="#47544c"/><rect x="0" y="510" width="30" height="30" fill="#47544c"/><rect x="0" y="540" width="30" height="30" fill="#47544c"/><rect x="0" y="570" width="30" height="30" fill="#47544c"/><rect x="0" y="600" width="30" height="30" fill="#47544c"/><rect x="0" y="630" width="30" height="30" fill="#47544c"/><rect x="0" y="660" width="30" height="30" fill="#47544c"/><rect x="0" y="690" width="30" height="30" fill="#47544c"/><rect x="0" y="720" width="30" height="30" fill="#47544c"/><rect x="0" y="750" width="30" height="30" fill="#47544c"/><rect x="0" y="780" width="30" height="30" fill="#47544c"/><rect x="0" y="810" width="30" height="30" fill="#47544c"/><rect x="0" y="840" width="30" height="30" fill="#47544c"/><rect x="0" y="870" width="30" height="30" fill="#47544c"/><rect x="0" y="900" width="30" height="30" fill="#47544c"/><rect x="0" y="930" width="30" height="30" fill="#47544c"/><rect x="0" y="960" width="30" height="30" fill="#47544c"/><rect x="0" y="990" width="30" height="30" fill="#47544c"/><rect x="0" y="1020" width="30" height="30" fill="#47544c"/><rect x="0" y="1050" width="30" height="30" fill="#47544c"/><rect x="0" y="1080" width="30" height="30" fill="#47544c"/><rect x="0" y="1110" width="30" height="30" fill="#47544c"/><rect x="1890" y="30" width="30" height="30" fill="#47544c"/><rect x="1890" y="60" width="30" height="30" fill="#47544c"/><rect x="1890" y="90" width="30" height="30" fill="#47544c"/><rect x="1890" y="120" width="30" height="30" fill="#47544c"/><rect x="1890" y="150" width="30" height="30" fill="#47544c"/><rect x="1890" y="180" width="30" height="30" fill="#47544c"/><rect x="1890" y="210" width="30" height="30" fill="#47544c"/><rect x="1890" y="240" width="30" height="30" fill="#47544c"/><rect x="1890" y="270" width="30" height="30" fill="#47544c"/><rect x="1890" y="300" width="30" height="30" fill="#47544c"/><rect x="1890" y="330" width="30" height="30" fill="#47544c"/><rect x="1890" y="360" width="30" height="30" fill="#47544c"/><rect x="1890" y="390" width="30" height="30" fill="#47544c"/><rect x="1890" y="420" width="30" height="30" fill="#47544c"/><rect x="1890" y="450" width="30" height="30" fill="#47544c"/><rect x="1890" y="480" width="30" height="30" fill="#47544c"/><rect x="1890" y="510" width="30" height="30" fill="#47544c"/><rect x="1890" y="540" width="30" height="30" fill="#47544c"/><rect x="1890" y="570" width="30" height="30" fill="#47544c"/><rect x="1890" y="600" width="30" height="30" fill="#47544c"/><rect x="1890" y="630" width="30" height="30" fill="#47544c"/><rect x="1890" y="660" width="30" height="30" fill="#47544c"/><rect x="1890" y="690" width="30" height="30" fill="#47544c"/><rect x="1890" y="720" width="30" height="30" fill="#47544c"/><rect x="1890" y="750" width="30" height="30" fill="#47544c"/><rect x="1890" y="780" width="30" height="30" fill="#47544c"/><rect x="1890" y="810" width="30" height="30" fill="#47544c"/><rect x="1890" y="840" width="30" height="30" fill="#47544c"/><rect x="1890" y="870" width="30" height="30" fill="#47544c"/><rect x="1890" y="900" width="30" height="30" fill="#47544c"/><rect x="1890" y="930" width="30" height="30" fill="#47544c"/><rect x="1890" y="960" width="30" height="30" fill="#47544c"/><rect x="1890" y="990" width="30" height="30" fill="#47544c"/><rect x="1890" y="1020" width="30" height="30" fill="#47544c"/><rect x="1890" y="1050" width="30" height="30" fill="#47544c"/><rect x="1890" y="1080" width="30" height="30" fill="#47544c"/><rect x="1890" y="1110" width="30" height="30" fill="#47544c"/><rect x="750" y="1050" width="30" height="30" fill="#47544c"/><rect x="780" y="1050" width="30" height="30" fill="#47544c"/><rect x="810" y="1050" width="30" height="30" fill="#47544c"/><rect x="840" y="1050" width="30" height="30" fill="#47544c"/><rect x="870" y="1050" width="30" height="30" fill="#47544c"/><rect x="900" y="1050" width="30" height="30" fill="#47544c"/><rect x="930" y="1050" width="30" height="30" fill="#47544c"/><rect x="960" y="1050" width="30" height="30" fill="#47544c"/><rect x="990" y="1050" width="30" height="30" fill="#47544c"/><rect x="1020" y="1050" width="30" height="30" fill="#47544c"/><rect x="1050" y="1050" width="30" height="30" fill="#47544c"/><rect x="1080" y="1050" width="30" height="30" fill="#47544c"/><rect x="1110" y="1050" width="30" height="30" fill="#47544c"/><rect x="480" y="960" width="30" height="30" fill="#47544c"/><rect x="510" y="960" width="30" height="30" fill="#47544c"/><rect x="540" y="960" width="30" height="30" fill="#47544c"/><rect x="570" y="960" width="30" height="30" fill="#47544c"/><rect x="600" y="960" width="30" height="30" fill="#47544c"/><rect x="630" y="960" width="30" height="30" fill="#47544c"/><rect x="240" y="870" width="30" height="30" fill="#47544c"/><rect x="270" y="870" width="30" height="30" fill="#47544c"/><rect x="300" y="870" width="30" height="30" fill="#47544c"/><rect x="330" y="870" width="30" height="30" fill="#47544c"/><rect x="360" y="870" width="30" height="30" fill="#47544c"/><rect x="390" y="870" width="30" height="30" fill="#47544c"/><rect x="90" y="690" width="30" height="30" fill="#47544c"/><rect x="120" y="690" width="30" height="30" fill="#47544c"/><rect x="150" y="690" width="30" height="30" fill="#47544c"/><rect x="180" y="690" width="30" height="30" fill="#47544c"/><rect x="210" y="690" width="30" height="30" fill="#47544c"/><rect x="240" y="690" width="30" height="30" fill="#47544c"/><rect x="270" y="690" width="30" height="30" fill="#47544c"/><rect x="300" y="690" width="30" height="30" fill="#47544c"/><rect x="240" y="780" width="30" height="30" fill="#47544c"/><rect x="270" y="780" width="30" height="30" fill="#47544c"/><rect x="300" y="780" width="30" height="30" fill="#47544c"/><rect x="330" y="780" width="30" height="30" fill="#47544c"/><rect x="360" y="780" width="30" height="30" fill="#47544c"/><rect x="390" y="780" width="30" height="30" fill="#47544c"/><rect x="420" y="780" width="30" height="30" fill="#47544c"/><rect x="1260" y="960" width="30" height="30" fill="#47544c"/><rect x="1290" y="960" width="30" height="30" fill="#47544c"/><rect x="1320" y="960" width="30" height="30" fill="#47544c"/><rect x="1350" y="960" width="30" height="30" fill="#47544c"/><rect x="1380" y="960" width="30" height="30" fill="#47544c"/><rect x="1410" y="960" width="30" height="30" fill="#47544c"/><rect x="1500" y="870" width="30" height="30" fill="#47544c"/><rect x="1530" y="870" width="30" height="30" fill="#47544c"/><rect x="1560" y="870" width="30" height="30" fill="#47544c"/><rect x="1590" y="870" width="30" height="30" fill="#47544c"/><rect x="1620" y="870" width="30" height="30" fill="#47544c"/><rect x="1650" y="870" width="30" height="30" fill="#47544c"/><rect x="1590" y="690" width="30" height="30" fill="#47544c"/><rect x="1620" y="690" width="30" height="30" fill="#47544c"/><rect x="1650" y="690" width="30" height="30" fill="#47544c"/><rect x="1680" y="690" width="30" height="30" fill="#47544c"/><rect x="1710" y="690" width="30" height="30" fill="#47544c"/><rect x="1740" y="690" width="30" height="30" fill="#47544c"/><rect x="1770" y="690" width="30" height="30" fill="#47544c"/><rect x="1800" y="690" width="30" height="30" fill="#47544c"/><rect x="1830" y="690" width="30" height="30" fill="#47544c"/><rect x="1470" y="780" width="30" height="30" fill="#47544c"/><rect x="1500" y="780" width="30" height="30" fill="#47544c"/><rect x="1530" y="780" width="30" height="30" fill="#47544c"/><rect x="1560" y="780" width="30" height="30" fill="#47544c"/><rect x="1590" y="780" width="30" height="30" fill="#47544c"/><rect x="1620" y="780" width="30" height="30" fill="#47544c"/><rect x="1650" y="780" width="30" height="30" fill="#47544c"/><rect x="840" y="960" width="30" height="30" fill="#47544c"/><rect x="870" y="960" width="30" height="30" fill="#47544c"/><rect x="900" y="960" width="30" height="30" fill="#47544c"/><rect x="930" y="960" width="30" height="30" fill="#47544c"/><rect x="960" y="960" width="30" height="30" fill="#47544c"/><rect x="990" y="960" width="30" height="30" fill="#47544c"/><rect x="1020" y="870" width="30" height="30" fill="#47544c"/><rect x="1050" y="870" width="30" height="30" fill="#47544c"/><rect x="1080" y="870" width="30" height="30" fill="#47544c"/><rect x="1110" y="870" width="30" height="30" fill="#47544c"/><rect x="1140" y="870" width="30" height="30" fill="#47544c"/><rect x="1170" y="870" width="30" height="30" fill="#47544c"/><rect x="780" y="780" width="30" height="30" fill="#47544c"/><rect x="810" y="780" width="30" height="30" fill="#47544c"/><rect x="840" y="780" width="30" height="30" fill="#47544c"/><rect x="870" y="780" width="30" height="30" fill="#47544c"/><rect x="900" y="780" width="30" height="30" fill="#47544c"/><rect x="930" y="780" width="30" height="30" fill="#47544c"/><rect x="1020" y="690" width="30" height="30" fill="#47544c"/><rect x="1050" y="690" width="30" height="30" fill="#47544c"/><rect x="1080" y="690" width="30" height="30" fill="#47544c"/><rect x="1110" y="690" width="30" height="30" fill="#47544c"/><rect x="1140" y="690" width="30" height="30" fill="#47544c"/><rect x="1170" y="690" width="30" height="30" fill="#47544c"/><rect x="780" y="600" width="30" height="30" fill="#47544c"/><rect x="810" y="600" width="30" height="30" fill="#47544c"/><rect x="840" y="600" width="30" height="30" fill="#47544c"/><rect x="870" y="600" width="30" height="30" fill="#47544c"/><rect x="900" y="600" width="30" height="30" fill="#47544c"/><rect x="930" y="600" width="30" height="30" fill="#47544c"/><rect x="1020" y="510" width="30" height="30" fill="#47544c"/><rect x="1050" y="510" width="30" height="30" fill="#47544c"/><rect x="1080" y="510" width="30" height="30" fill="#47544c"/><rect x="1110" y="510" width="30" height="30" fill="#47544c"/><rect x="1140" y="510" width="30" height="30" fill="#47544c"/><rect x="1170" y="510" width="30" height="30" fill="#47544c"/><rect x="780" y="420" width="30" height="30" fill="#47544c"/><rect x="810" y="420" width="30" height="30" fill="#47544c"/><rect x="840" y="420" width="30" height="30" fill="#47544c"/><rect x="870" y="420" width="30" height="30" fill="#47544c"/><rect x="900" y="420" width="30" height="30" fill="#47544c"/><rect x="930" y="420" width="30" height="30" fill="#47544c"/><rect x="840" y="300" width="30" height="30" fill="#47544c"/><rect x="870" y="300" width="30" height="30" fill="#47544c"/><rect x="900" y="300" width="30" height="30" fill="#47544c"/><rect x="930" y="300" width="30" height="30" fill="#47544c"/><rect x="960" y="300" width="30" height="30" fill="#47544c"/><rect x="990" y="300" width="30" height="30" fill="#47544c"/><rect x="1020" y="300" width="30" height="30" fill="#47544c"/><rect x="1050" y="300" width="30" height="30" fill="#47544c"/><rect x="840" y="210" width="30" height="30" fill="#47544c"/><rect x="870" y="210" width="30" height="30" fill="#47544c"/><rect x="900" y="210" width="30" height="30" fill="#47544c"/><rect x="930" y="210" width="30" height="30" fill="#47544c"/><rect x="960" y="210" width="30" height="30" fill="#47544c"/><rect x="990" y="210" width="30" height="30" fill="#47544c"/><rect x="1020" y="210" width="30" height="30" fill="#47544c"/><rect x="1050" y="210" width="30" height="30" fill="#47544c"/><path d="M945.0,1126.0 L944.9,1126.1 L902.5,1097.2 L836.2,1122.4 L770.0,1118.5 L716.6,1043.1 L745.8,1025.4 L811.6,1037.0 L810.2,967.5 L774.3,931.7 L755.5,986.5 L717.6,985.6 L651.3,931.7 L585.1,947.0 L518.8,877.5 L452.6,841.7 L386.3,857.0 L320.1,852.4 L253.8,848.5 L229.2,773.1 L263.6,755.4 L329.6,762.4 L337.7,672.3 L293.3,672.7 L227.0,677.0 L202.4,677.0 L255.6,677.0 L321.8,677.0 L388.1,704.8 L454.3,767.0 L520.6,810.8 L586.8,945.2 L653.1,947.0 L672.7,977.2 L665.7,1096.5 L670.7,1127.0 L729.8,1127.0 L796.0,1127.0 L862.3,1127.0 L928.5,1127.0 L994.8,1127.0 L1061.0,1127.0 L1127.3,1127.0 L1154.6,1075.5 L1199.2,975.7 L1265.5,939.9 L1327.0,947.0 L1365.8,863.1 L1405.6,845.4 L1437.6,918.4 L1477.3,878.1 L1512.0,842.3 L1571.9,857.0 L1617.8,824.0 L1684.1,827.2 L1703.5,755.1 L1646.7,767.0 L1580.7,762.4 L1575.5,672.3 L1635.6,672.7 L1701.8,677.0 L1721.2,677.0 L1664.5,677.0 L1598.2,677.0 L1532.0,704.8 L1465.7,767.0 L1399.5,810.8 L1356.3,945.2 L1291.9,947.0 L1225.6,954.9 L1164.2,1037.9 L1172.0,1122.4 L1147.7,1032.3 L1103.3,1032.7 L1037.0,1037.0 L970.8,1037.0 L904.5,1037.0 L879.9,1037.0 L901.5,1037.0 L901.3,1037.0 L901.3,1037.0 L901.3,1037.0 L901.3,1037.0 L901.3,1037.0 L901.3,1037.0 L901.3,1037.0 L901.3,1037.0 L901.3,1037.0 L901.3,1037.0 L901.3,1037.0 L901.3,1037.0 L901.3,1037.0 L901.3,1037.0 L901.3,1037.0 L901.3,1037.0 L901.3,1037.0 L883.1,1037.0 L819.2,985.5 L814.0,931.6 L874.1,947.0 L917.4,917.2 L974.4,845.1 L1040.6,857.0 L1092.2,852.4 L1056.3,762.3 L990.0,762.7 L1011.3,714.4 L965.0,678.6 L898.8,733.5 L845.4,715.5 L874.6,661.6 L917.5,698.3 L982.0,737.2 L1019.8,665.1 L1077.5,677.0 L1057.2,625.5 L991.9,571.6 L925.6,587.0 L864.2,557.2 L884.2,485.1 L911.6,503.7 L976.0,583.0 L1012.3,492.9 L1060.8,493.4 L1098.1,427.5 L1064.2,391.7 L1034.1,446.5 L975.5,446.5 L957.4,392.6 L896.8,407.0 L835.1,377.2 L796.9,273.7 L781.1,219.8 L832.0,250.1 L863.6,287.0 L929.6,282.4 L928.2,278.5 L865.9,266.7 L824.9,217.5 L868.0,181.7" fill="none" stroke="#227dd1" stroke-width="4" opacity=".7"/><circle cx="195" cy="675" r="20" fill="#fbd479"/><text x="195" y="681" text-anchor="middle" font-size="22">A</text><circle cx="1725" cy="675" r="20" fill="#fbd479"/><text x="1725" y="681" text-anchor="middle" font-size="22">B</text><circle cx="945" cy="285" r="20" fill="#fbd479"/><text x="945" y="291" text-anchor="middle" font-size="22">C</text><rect x="930" y="180" width="30" height="30" fill="#52a571"/></svg>