<svg xmlns="http://www.w3.org/2000/svg" viewBox="0 0 1440 1080" width="480" height="360"><title>The express lift: verified Medium route</title><rect width="100%" height="100%" fill="#edf1e7"/><rect x="0" y="1020" width="30" height="30" fill="#47544c"/><rect x="30" y="1020" width="30" height="30" fill="#47544c"/><rect x="60" y="1020" width="30" height="30" fill="#47544c"/><rect x="90" y="1020" width="30" height="30" fill="#47544c"/><rect x="120" y="1020" width="30" height="30" fill="#47544c"/><rect x="150" y="1020" width="30" height="30" fill="#47544c"/><rect x="180" y="1020" width="30" height="30" fill="#47544c"/><rect x="210" y="1020" width="30" height="30" fill="#47544c"/><rect x="240" y="1020" width="30" height="30" fill="#47544c"/><rect x="270" y="1020" width="30" height="30" fill="#47544c"/><rect x="300" y="1020" width="30" height="30" fill="#47544c"/><rect x="330" y="1020" width="30" height="30" fill="#47544c"/><rect x="360" y="1020" width="30" height="30" fill="#47544c"/><rect x="390" y="1020" width="30" height="30" fill="#47544c"/><rect x="420" y="1020" width="30" height="30" fill="#47544c"/><rect x="450" y="1020" width="30" height="30" fill="#47544c"/><rect x="480" y="1020" width="30" height="30" fill="#47544c"/><rect x="510" y="1020" width="30" height="30" fill="#47544c"/><rect x="540" y="1020" width="30" height="30" fill="#47544c"/><rect x="570" y="1020" width="30" height="30" fill="#47544c"/><rect x="600" y="1020" width="30" height="30" fill="#47544c"/><rect x="630" y="1020" width="30" height="30" fill="#47544c"/><rect x="660" y="1020" width="30" height="30" fill="#47544c"/><rect x="690" y="1020" width="30" height="30" fill="#47544c"/><rect x="720" y="1020" width="30" height="30" fill="#47544c"/><rect x="750" y="1020" width="30" height="30" fill="#47544c"/><rect x="780" y="1020" width="30" height="30" fill="#47544c"/><rect x="810" y="1020" width="30" height="30" fill="#47544c"/><rect x="840" y="1020" width="30" height="30" fill="#47544c"/><rect x="870" y="1020" width="30" height="30" fill="#47544c"/><rect x="900" y="1020" width="30" height="30" fill="#47544c"/><rect x="930" y="1020" width="30" height="30" fill="#47544c"/><rect x="960" y="1020" width="30" height="30" fill="#47544c"/><rect x="990" y="1020" width="30" height="30" fill="#47544c"/><rect x="1020" y="1020" width="30" height="30" fill="#47544c"/><rect x="1050" y="1020" width="30" height="30" fill="#47544c"/><rect x="1080" y="1020" width="30" height="30" fill="#47544c"/><rect x="1110" y="1020" width="30" height="30" fill="#47544c"/><rect x="1140" y="1020" width="30" height="30" fill="#47544c"/><rect x="1170" y="1020" width="30" height="30" fill="#47544c"/><rect x="1200" y="1020" width="30" height="30" fill="#47544c"/><rect x="1230" y="1020" width="30" height="30" fill="#47544c"/><rect x="1260" y="1020" width="30" height="30" fill="#47544c"/><rect x="1290" y="1020" width="30" height="30" fill="#47544c"/><rect x="1320" y="1020" width="30" height="30" fill="#47544c"/><rect x="1350" y="1020" width="30" height="30" fill="#47544c"/><rect x="1380" y="1020" width="30" height="30" fill="#47544c"/><rect x="1410" y="1020" width="30" height="30" fill="#47544c"/><rect x="0" y="1050" width="30" height="30" fill="#47544c"/><rect x="30" y="1050" width="30" height="30" fill="#47544c"/><rect x="60" y="1050" width="30" height="30" fill="#47544c"/><rect x="90" y="1050" width="30" height="30" fill="#47544c"/><rect x="120" y="1050" width="30" height="30" fill="#47544c"/><rect x="150" y="1050" width="30" height="30" fill="#47544c"/><rect x="180" y="1050" width="30" height="30" fill="#47544c"/><rect x="210" y="1050" width="30" height="30" fill="#47544c"/><rect x="240" y="1050" width="30" height="30" fill="#47544c"/><rect x="270" y="1050" width="30" height="30" fill="#47544c"/><rect x="300" y="1050" width="30" height="30" fill="#47544c"/><rect x="330" y="1050" width="30" height="30" fill="#47544c"/><rect x="360" y="1050" width="30" height="30" fill="#47544c"/><rect x="390" y="1050" width="30" height="30" fill="#47544c"/><rect x="420" y="1050" width="30" height="30" fill="#47544c"/><rect x="450" y="1050" width="30" height="30" fill="#47544c"/><rect x="480" y="1050" width="30" height="30" fill="#47544c"/><rect x="510" y="1050" width="30" height="30" fill="#47544c"/><rect x="540" y="1050" width="30" height="30" fill="#47544c"/><rect x="570" y="1050" width="30" height="30" fill="#47544c"/><rect x="600" y="1050" width="30" height="30" fill="#47544c"/><rect x="630" y="1050" width="30" height="30" fill="#47544c"/><rect x="660" y="1050" width="30" height="30" fill="#47544c"/><rect x="690" y="1050" width="30" height="30" fill="#47544c"/><rect x="720" y="1050" width="30" height="30" fill="#47544c"/><rect x="750" y="1050" width="30" height="30" fill="#47544c"/><rect x="780" y="1050" width="30" height="30" fill="#47544c"/><rect x="810" y="1050" width="30" height="30" fill="#47544c"/><rect x="840" y="1050" width="30" height="30" fill="#47544c"/><rect x="870" y="1050" width="30" height="30" fill="#47544c"/><rect x="900" y="1050" width="30" height="30" fill="#47544c"/><rect x="930" y="1050" width="30" height="30" fill="#47544c"/><rect x="960" y="1050" width="30" height="30" fill="#47544c"/><rect x="990" y="1050" width="30" height="30" fill="#47544c"/><rect x="1020" y="1050" width="30" height="30" fill="#47544c"/><rect x="1050" y="1050" width="30" height="30" fill="#47544c"/><rect x="1080" y="1050" width="30" height="30" fill="#47544c"/><rect x="1110" y="1050" width="30" height="30" fill="#47544c"/><rect x="1140" y="1050" width="30" height="30" fill="#47544c"/><rect x="1170" y="1050" width="30" height="30" fill="#47544c"/><rect x="1200" y="1050" width="30" height="30" fill="#47544c"/><rect x="1230" y="1050" width="30" height="30" fill="#47544c"/><rect x="1260" y="1050" width="30" height="30" fill="#47544c"/><rect x="1290" y="1050" width="30" height="30" fill="#47544c"/><rect x="1320" y="1050" width="30" height="30" fill="#47544c"/><rect x="1350" y="1050" width="30" height="30" fill="#47544c"/><rect x="1380" y="1050" width="30" height="30" fill="#47544c"/><rect x="1410" y="1050" width="30" height="30" fill="#47544c"/><rect x="0" y="0" width="30" height="30" fill="#47544c"/><rect x="30" y="0" width="30" height="30" fill="#47544c"/><rect x="60" y="0" width="30" height="30" fill="#47544c"/><rect x="90" y="0" width="30" height="30" fill="#47544c"/><rect x="120" y="0" width="30" height="30" fill="#47544c"/><rect x="150" y="0" width="30" height="30" fill="#47544c"/><rect x="180" y="0" width="30" height="30" fill="#47544c"/><rect x="210" y="0" width="30" height="30" fill="#47544c"/><rect x="240" y="0" width="30" height="30" fill="#47544c"/><rect x="270" y="0" width="30" height="30" fill="#47544c"/><rect x="300" y="0" width="30" height="30" fill="#47544c"/><rect x="330" y="0" width="30" height="30" fill="#47544c"/><rect x="360" y="0" width="30" height="30" fill="#47544c"/><rect x="390" y="0" width="30" height="30" fill="#47544c"/><rect x="420" y="0" width="30" height="30" fill="#47544c"/><rect x="450" y="0" width="30" height="30" fill="#47544c"/><rect x="480" y="0" width="30" height="30" fill="#47544c"/><rect x="510" y="0" width="30" height="30" fill="#47544c"/><rect x="540" y="0" width="30" height="30" fill="#47544c"/><rect x="570" y="0" width="30" height="30" fill="#47544c"/><rect x="600" y="0" width="30" height="30" fill="#47544c"/><rect x="630" y="0" width="30" height="30" fill="#47544c"/><rect x="660" y="0" width="30" height="30" fill="#47544c"/><rect x="690" y="0" width="30" height="30" fill="#47544c"/><rect x="720" y="0" width="30" height="30" fill="#47544c"/><rect x="750" y="0" width="30" height="30" fill="#47544c"/><rect x="780" y="0" width="30" height="30" fill="#47544c"/><rect x="810" y="0" width="30" height="30" fill="#47544c"/><rect x="840" y="0" width="30" height="30" fill="#47544c"/><rect x="870" y="0" width="30" height="30" fill="#47544c"/><rect x="900" y="0" width="30" height="30" fill="#47544c"/><rect x="930" y="0" width="30" height="30" fill="#47544c"/><rect x="960" y="0" width="30" height="30" fill="#47544c"/><rect x="990" y="0" width="30" height="30" fill="#47544c"/><rect x="1020" y="0" width="30" height="30" fill="#47544c"/><rect x="1050" y="0" width="30" height="30" fill="#47544c"/><rect x="1080" y="0" width="30" height="30" fill="#47544c"/><rect x="1110" y="0" width="30" height="30" fill="#47544c"/><rect x="1140" y="0" width="30" height="30" fill="#47544c"/><rect x="1170" y="0" width="30" height="30" fill="#47544c"/><rect x="1200" y="0" width="30" height="30" fill="#47544c"/><rect x="1230" y="0" width="30" height="30" fill="#47544c"/><rect x="1260" y="0" width="30" height="30" fill="#47544c"/><rect x="1290" y="0" width="30" height="30" fill="#47544c"/><rect x="1320" y="0" width="30" height="30" fill="#47544c"/><rect x="1350" y="0" width="30" height="30" fill="#47544c"/><rect x="1380" y="0" width="30" height="30" fill="#47544c"/><rect x="1410" y="0" width="30" height="30" fill="#47544c"/><rect x="0" y="30" width="30" height="30" fill="#47544c"/><rect x="0" y="60" width="30" height="30" fill="#47544c"/><rect x="0" y="90" width="30" height="30" fill="#47544c"/><rect x="0" y="120" width="30" height="30" fill="#47544c"/><rect x="0" y="150" width="30" height="30" fill="#47544c"/><rect x="0" y="180" width="30" height="30" fill="#47544c"/><rect x="0" y="210" width="30" height="30" fill="#47544c"/><rect x="0" y="240" width="30" height="30" fill="#47544c"/><rect x="0" y="270" width="30" height="30" fill="#47544c"/><rect x="0" y="300" width="30" height="30" fill="#47544c"/><rect x="0" y="330" width="30" height="30" fill="#47544c"/><rect x="0" y="360" width="30" height="30" fill="#47544c"/><rect x="0" y="390" width="30" height="30" fill="#47544c"/><rect x="0" y="420" width="30" height="30" fill="#47544c"/><rect x="0" y="450" width="30" height="30" fill="#47544c"/><rect x="0" y="480" width="30" height="30" fill="#47544c"/><rect x="0" y="510" width="30" height="30" fill="#47544c"/><rect x="0" y="540" width="30" height="30" fill="#47544c"/><rect x="0" y="570" width="30" height="30" fill="#47544c"/><rect x="0" y="600" width="30" height="30" fill="#47544c"/><rect x="0" y="630" width="30" height="30" fill="#47544c"/><rect x="0" y="660" width="30" height="30" fill="#47544c"/><rect x="0" y="690" width="30" height="30" fill="#47544c"/><rect x="0" y="720" width="30" height="30" fill="#47544c"/><rect x="0" y="750" width="30" height="30" fill="#47544c"/><rect x="0" y="780" width="30" height="30" fill="#47544c"/><rect x="0" y="810" width="30" height="30" fill="#47544c"/><rect x="0" y="840" width="30" height="30" fill="#47544c"/><rect x="0" y="870" width="30" height="30" fill="#47544c"/><rect x="0" y="900" width="30" height="30" fill="#47544c"/><rect x="0" y="930" width="30" height="30" fill="#47544c"/><rect x="0" y="960" width="30" height="30" fill="#47544c"/><rect x="0" y="990" width="30" height="30" fill="#47544c"/><rect x="1410" y="30" width="30" height="30" fill="#47544c"/><rect x="1410" y="60" width="30" height="30" fill="#47544c"/><rect x="1410" y="90" width="30" height="30" fill="#47544c"/><rect x="1410" y="120" width="30" height="30" fill="#47544c"/><rect x="1410" y="150" width="30" height="30" fill="#47544c"/><rect x="1410" y="180" width="30" height="30" fill="#47544c"/><rect x="1410" y="210" width="30" height="30" fill="#47544c"/><rect x="1410" y="240" width="30" height="30" fill="#47544c"/><rect x="1410" y="270" width="30" height="30" fill="#47544c"/><rect x="1410" y="300" width="30" height="30" fill="#47544c"/><rect x="1410" y="330" width="30" height="30" fill="#47544c"/><rect x="1410" y="360" width="30" height="30" fill="#47544c"/><rect x="1410" y="390" width="30" height="30" fill="#47544c"/><rect x="1410" y="420" width="30" height="30" fill="#47544c"/><rect x="1410" y="450" width="30" height="30" fill="#47544c"/><rect x="1410" y="480" width="30" height="30" fill="#47544c"/><rect x="1410" y="510" width="30" height="30" fill="#47544c"/><rect x="1410" y="540" width="30" height="30" fill="#47544c"/><rect x="1410" y="570" width="30" height="30" fill="#47544c"/><rect x="1410" y="600" width="30" height="30" fill="#47544c"/><rect x="1410" y="630" width="30" height="30" fill="#47544c"/><rect x="1410" y="660" width="30" height="30" fill="#47544c"/><rect x="1410" y="690" width="30" height="30" fill="#47544c"/><rect x="1410" y="720" width="30" height="30" fill="#47544c"/><rect x="1410" y="750" width="30" height="30" fill="#47544c"/><rect x="1410" y="780" width="30" height="30" fill="#47544c"/><rect x="1410" y="810" width="30" height="30" fill="#47544c"/><rect x="1410" y="840" width="30" height="30" fill="#47544c"/><rect x="1410" y="870" width="30" height="30" fill="#47544c"/><rect x="1410" y="900" width="30" height="30" fill="#47544c"/><rect x="1410" y="930" width="30" height="30" fill="#47544c"/><rect x="1410" y="960" width="30" height="30" fill="#47544c"/><rect x="1410" y="990" width="30" height="30" fill="#47544c"/><rect x="210" y="960" width="30" height="30" fill="#47544c"/><rect x="240" y="960" width="30" height="30" fill="#47544c"/><rect x="270" y="960" width="30" height="30" fill="#47544c"/><rect x="300" y="960" width="30" height="30" fill="#47544c"/><rect x="330" y="960" width="30" height="30" fill="#47544c"/><rect x="360" y="960" width="30" height="30" fill="#47544c"/><rect x="390" y="930" width="30" height="30" fill="#47544c"/><rect x="420" y="930" width="30" height="30" fill="#47544c"/><rect x="450" y="930" width="30" height="30" fill="#47544c"/><rect x="480" y="930" width="30" height="30" fill="#47544c"/><rect x="510" y="930" width="30" height="30" fill="#47544c"/><rect x="540" y="930" width="30" height="30" fill="#47544c"/><rect x="780" y="30" width="30" height="30" fill="#47544c"/><rect x="780" y="60" width="30" height="30" fill="#47544c"/><rect x="780" y="90" width="30" height="30" fill="#47544c"/><rect x="780" y="120" width="30" height="30" fill="#47544c"/><rect x="780" y="150" width="30" height="30" fill="#47544c"/><rect x="780" y="180" width="30" height="30" fill="#47544c"/><rect x="780" y="210" width="30" height="30" fill="#47544c"/><rect x="780" y="360" width="30" height="30" fill="#47544c"/><rect x="780" y="390" width="30" height="30" fill="#47544c"/><rect x="780" y="420" width="30" height="30" fill="#47544c"/><rect x="780" y="450" width="30" height="30" fill="#47544c"/><rect x="780" y="480" width="30" height="30" fill="#47544c"/><rect x="780" y="510" width="30" height="30" fill="#47544c"/><rect x="780" y="540" width="30" height="30" fill="#47544c"/><rect x="780" y="570" width="30" height="30" fill="#47544c"/><rect x="780" y="600" width="30" height="30" fill="#47544c"/><rect x="780" y="630" width="30" height="30" fill="#47544c"/><rect x="780" y="660" width="30" height="30" fill="#47544c"/><rect x="780" y="690" width="30" height="30" fill="#47544c"/><rect x="780" y="720" width="30" height="30" fill="#47544c"/><rect x="780" y="750" width="30" height="30" fill="#47544c"/><rect x="780" y="780" width="30" height="30" fill="#47544c"/><rect x="780" y="810" width="30" height="30" fill="#47544c"/><rect x="780" y="840" width="30" height="30" fill="#47544c"/><rect x="780" y="870" width="30" height="30" fill="#47544c"/><rect x="870" y="300" width="30" height="30" fill="#47544c"/><rect x="900" y="300" width="30" height="30" fill="#47544c"/><rect x="930" y="300" width="30" height="30" fill="#47544c"/><rect x="960" y="300" width="30" height="30" fill="#47544c"/><rect x="990" y="300" width="30" height="30" fill="#47544c"/><rect x="1020" y="300" width="30" height="30" fill="#47544c"/><rect x="1050" y="300" width="30" height="30" fill="#47544c"/><rect x="1080" y="300" width="30" height="30" fill="#47544c"/><rect x="1110" y="300" width="30" height="30" fill="#47544c"/><rect x="1140" y="300" width="30" height="30" fill="#47544c"/><rect x="1170" y="300" width="30" height="30" fill="#47544c"/><rect x="1200" y="300" width="30" height="30" fill="#47544c"/><rect x="1230" y="300" width="30" height="30" fill="#47544c"/><rect x="1260" y="300" width="30" height="30" fill="#47544c"/><rect x="840" y="930" width="30" height="30" fill="#47544c"/><rect x="870" y="930" width="30" height="30" fill="#47544c"/><rect x="900" y="930" width="30" height="30" fill="#47544c"/><rect x="930" y="930" width="30" height="30" fill="#47544c"/><rect x="960" y="930" width="30" height="30" fill="#47544c"/><rect x="990" y="930" width="30" height="30" fill="#47544c"/><rect x="1050" y="840" width="30" height="30" fill="#47544c"/><rect x="1080" y="840" width="30" height="30" fill="#47544c"/><rect x="1110" y="840" width="30" height="30" fill="#47544c"/><rect x="1140" y="840" width="30" height="30" fill="#47544c"/><rect x="1170" y="840" width="30" height="30" fill="#47544c"/><rect x="1200" y="840" width="30" height="30" fill="#47544c"/><rect x="840" y="750" width="30" height="30" fill="#47544c"/><rect x="870" y="750" width="30" height="30" fill="#47544c"/><rect x="900" y="750" width="30" height="30" fill="#47544c"/><rect x="930" y="750" width="30" height="30" fill="#47544c"/><rect x="960" y="750" width="30" height="30" fill="#47544c"/><rect x="990" y="750" width="30" height="30" fill="#47544c"/><rect x="1050" y="660" width="30" height="30" fill="#47544c"/><rect x="1080" y="660" width="30" height="30" fill="#47544c"/><rect x="1110" y="660" width="30" height="30" fill="#47544c"/><rect x="1140" y="660" width="30" height="30" fill="#47544c"/><rect x="1170" y="660" width="30" height="30" fill="#47544c"/><rect x="1200" y="660" width="30" height="30" fill="#47544c"/><rect x="840" y="570" width="30" height="30" fill="#47544c"/><rect x="870" y="570" width="30" height="30" fill="#47544c"/><rect x="900" y="570" width="30" height="30" fill="#47544c"/><rect x="930" y="570" width="30" height="30" fill="#47544c"/><rect x="960" y="570" width="30" height="30" fill="#47544c"/><rect x="990" y="570" width="30" height="30" fill="#47544c"/><rect x="1050" y="480" width="30" height="30" fill="#47544c"/><rect x="1080" y="480" width="30" height="30" fill="#47544c"/><rect x="1110" y="480" width="30" height="30" fill="#47544c"/><rect x="1140" y="480" width="30" height="30" fill="#47544c"/><rect x="1170" y="480" width="30" height="30" fill="#47544c"/><rect x="1200" y="480" width="30" height="30" fill="#47544c"/><rect x="840" y="390" width="30" height="30" fill="#47544c"/><rect x="870" y="390" width="30" height="30" fill="#47544c"/><rect x="900" y="390" width="30" height="30" fill="#47544c"/><rect x="930" y="390" width="30" height="30" fill="#47544c"/><rect x="960" y="390" width="30" height="30" fill="#47544c"/><rect x="990" y="390" width="30" height="30" fill="#47544c"/><rect x="1020" y="990" width="30" height="30" fill="#c95849"/><rect x="1050" y="990" width="30" height="30" fill="#c95849"/><rect x="1080" y="990" width="30" height="30" fill="#c95849"/><rect x="1110" y="990" width="30" height="30" fill="#c95849"/><rect x="1140" y="990" width="30" height="30" fill="#c95849"/><rect x="1170" y="990" width="30" height="30" fill="#c95849"/><rect x="1200" y="990" width="30" height="30" fill="#c95849"/><rect x="1230" y="990" width="30" height="30" fill="#c95849"/><rect x="1260" y="990" width="30" height="30" fill="#c95849"/><rect x="1290" y="990" width="30" height="30" fill="#c95849"/><rect x="780" y="240" width="30" height="120" fill="#c18b47"/><rect x="780" y="900" width="30" height="120" fill="#c18b47"/><path d="M165.0,1006.0 L165.1,1006.1 L207.5,937.5 L273.6,901.7 L276.4,947.0 L299.0,895.5 L364.4,841.6 L430.7,878.3 L470.5,917.0 L472.3,917.0 L472.4,917.0 L472.4,917.0 L472.4,917.0 L472.4,917.0 L472.4,917.0 L472.4,917.0 L472.4,917.0 L472.4,917.0 L472.4,917.0 L472.4,917.0 L472.4,917.0 L472.4,917.0 L472.4,917.0 L472.4,917.0 L472.4,917.0 L472.4,917.0 L472.4,917.0 L472.4,917.0 L472.4,917.0 L472.4,917.0 L472.4,917.0 L472.4,917.0 L472.4,917.0 L472.4,917.0 L472.4,917.0 L472.4,917.0 L472.4,917.0 L472.4,917.0 L472.4,917.0 L472.4,917.0 L472.4,917.0 L472.5,917.0 L514.9,917.0 L566.7,917.0 L579.6,936.1 L622.7,908.1 L667.0,854.2 L669.2,833.1 L669.2,791.9 L669.2,750.6 L669.2,709.4 L669.2,668.1 L669.2,626.9 L669.2,585.6 L669.2,544.4 L669.2,503.1 L669.2,461.9 L669.2,420.6 L669.2,379.4 L669.2,338.1 L669.2,296.9 L678.5,257.0 L738.3,258.5 L804.5,320.4 L847.8,347.2 L867.3,275.1 L925.5,287.0 L991.8,287.0 L1058.0,287.0 L1109.6,287.0 L1073.7,287.0 L1007.4,287.0 L941.2,287.0 L874.9,287.0 L813.3,319.7 L825.8,349.1 L819.6,414.1 L823.3,569.6 L823.6,796.6 L814.4,1007.0 L754.6,1007.0 L688.4,1007.0 L622.1,1007.0 L555.9,1007.0 L489.6,1007.0 L423.4,1007.0 L357.1,1007.0 L290.9,1007.0 L224.6,1007.0 L158.4,1007.0" fill="none" stroke="#227dd1" stroke-width="4" opacity=".7"/><circle cx="525" cy="915" r="20" fill="#fbd479"/><text x="525" y="921" text-anchor="middle" font-size="22">A</text><circle cx="1095" cy="285" r="20" fill="#fbd479"/><text x="1095" y="291" text-anchor="middle" font-size="22">B</text><rect x="90" y="990" width="30" height="30" fill="#52a571"/></svg>