<svg xmlns="http://www.w3.org/2000/svg" viewBox="0 0 1440 720" width="480" height="240"><title>Hairline fracture: verified Medium route</title><rect width="100%" height="100%" fill="#edf1e7"/><rect x="0" y="660" width="30" height="30" fill="#47544c"/><rect x="30" y="660" width="30" height="30" fill="#47544c"/><rect x="60" y="660" width="30" height="30" fill="#47544c"/><rect x="90" y="660" width="30" height="30" fill="#47544c"/><rect x="120" y="660" width="30" height="30" fill="#47544c"/><rect x="150" y="660" width="30" height="30" fill="#47544c"/><rect x="180" y="660" width="30" height="30" fill="#47544c"/><rect x="210" y="660" width="30" height="30" fill="#47544c"/><rect x="240" y="660" width="30" height="30" fill="#47544c"/><rect x="270" y="660" width="30" height="30" fill="#47544c"/><rect x="300" y="660" width="30" height="30" fill="#47544c"/><rect x="330" y="660" width="30" height="30" fill="#47544c"/><rect x="360" y="660" width="30" height="30" fill="#47544c"/><rect x="390" y="660" width="30" height="30" fill="#47544c"/><rect x="420" y="660" width="30" height="30" fill="#47544c"/><rect x="450" y="660" width="30" height="30" fill="#47544c"/><rect x="480" y="660" width="30" height="30" fill="#47544c"/><rect x="510" y="660" width="30" height="30" fill="#47544c"/><rect x="540" y="660" width="30" height="30" fill="#47544c"/><rect x="570" y="660" width="30" height="30" fill="#47544c"/><rect x="600" y="660" width="30" height="30" fill="#47544c"/><rect x="630" y="660" width="30" height="30" fill="#47544c"/><rect x="660" y="660" width="30" height="30" fill="#47544c"/><rect x="690" y="660" width="30" height="30" fill="#47544c"/><rect x="720" y="660" width="30" height="30" fill="#47544c"/><rect x="750" y="660" width="30" height="30" fill="#47544c"/><rect x="780" y="660" width="30" height="30" fill="#47544c"/><rect x="810" y="660" width="30" height="30" fill="#47544c"/><rect x="840" y="660" width="30" height="30" fill="#47544c"/><rect x="870" y="660" width="30" height="30" fill="#47544c"/><rect x="900" y="660" width="30" height="30" fill="#47544c"/><rect x="930" y="660" width="30" height="30" fill="#47544c"/><rect x="960" y="660" width="30" height="30" fill="#47544c"/><rect x="990" y="660" width="30" height="30" fill="#47544c"/><rect x="1020" y="660" width="30" height="30" fill="#47544c"/><rect x="1050" y="660" width="30" height="30" fill="#47544c"/><rect x="1080" y="660" width="30" height="30" fill="#47544c"/><rect x="1110" y="660" width="30" height="30" fill="#47544c"/><rect x="1140" y="660" width="30" height="30" fill="#47544c"/><rect x="1170" y="660" width="30" height="30" fill="#47544c"/><rect x="1200" y="660" width="30" height="30" fill="#47544c"/><rect x="1230" y="660" width="30" height="30" fill="#47544c"/><rect x="1260" y="660" width="30" height="30" fill="#47544c"/><rect x="1290" y="660" width="30" height="30" fill="#47544c"/><rect x="1320" y="660" width="30" height="30" fill="#47544c"/><rect x="1350" y="660" width="30" height="30" fill="#47544c"/><rect x="1380" y="660" width="30" height="30" fill="#47544c"/><rect x="1410" y="660" width="30" height="30" fill="#47544c"/><rect x="0" y="690" width="30" height="30" fill="#47544c"/><rect x="30" y="690" width="30" height="30" fill="#47544c"/><rect x="60" y="690" width="30" height="30" fill="#47544c"/><rect x="90" y="690" width="30" height="30" fill="#47544c"/><rect x="120" y="690" width="30" height="30" fill="#47544c"/><rect x="150" y="690" width="30" height="30" fill="#47544c"/><rect x="180" y="690" width="30" height="30" fill="#47544c"/><rect x="210" y="690" width="30" height="30" fill="#47544c"/><rect x="240" y="690" width="30" height="30" fill="#47544c"/><rect x="270" y="690" width="30" height="30" fill="#47544c"/><rect x="300" y="690" width="30" height="30" fill="#47544c"/><rect x="330" y="690" width="30" height="30" fill="#47544c"/><rect x="360" y="690" width="30" height="30" fill="#47544c"/><rect x="390" y="690" width="30" height="30" fill="#47544c"/><rect x="420" y="690" width="30" height="30" fill="#47544c"/><rect x="450" y="690" width="30" height="30" fill="#47544c"/><rect x="480" y="690" width="30" height="30" fill="#47544c"/><rect x="510" y="690" width="30" height="30" fill="#47544c"/><rect x="540" y="690" width="30" height="30" fill="#47544c"/><rect x="570" y="690" width="30" height="30" fill="#47544c"/><rect x="600" y="690" width="30" height="30" fill="#47544c"/><rect x="630" y="690" width="30" height="30" fill="#47544c"/><rect x="660" y="690" width="30" height="30" fill="#47544c"/><rect x="690" y="690" width="30" height="30" fill="#47544c"/><rect x="720" y="690" width="30" height="30" fill="#47544c"/><rect x="750" y="690" width="30" height="30" fill="#47544c"/><rect x="780" y="690" width="30" height="30" fill="#47544c"/><rect x="810" y="690" width="30" height="30" fill="#47544c"/><rect x="840" y="690" width="30" height="30" fill="#47544c"/><rect x="870" y="690" width="30" height="30" fill="#47544c"/><rect x="900" y="690" width="30" height="30" fill="#47544c"/><rect x="930" y="690" width="30" height="30" fill="#47544c"/><rect x="960" y="690" width="30" height="30" fill="#47544c"/><rect x="990" y="690" width="30" height="30" fill="#47544c"/><rect x="1020" y="690" width="30" height="30" fill="#47544c"/><rect x="1050" y="690" width="30" height="30" fill="#47544c"/><rect x="1080" y="690" width="30" height="30" fill="#47544c"/><rect x="1110" y="690" width="30" height="30" fill="#47544c"/><rect x="1140" y="690" width="30" height="30" fill="#47544c"/><rect x="1170" y="690" width="30" height="30" fill="#47544c"/><rect x="1200" y="690" width="30" height="30" fill="#47544c"/><rect x="1230" y="690" width="30" height="30" fill="#47544c"/><rect x="1260" y="690" width="30" height="30" fill="#47544c"/><rect x="1290" y="690" width="30" height="30" fill="#47544c"/><rect x="1320" y="690" width="30" height="30" fill="#47544c"/><rect x="1350" y="690" width="30" height="30" fill="#47544c"/><rect x="1380" y="690" width="30" height="30" fill="#47544c"/><rect x="1410" y="690" width="30" height="30" fill="#47544c"/><rect x="0" y="0" width="30" height="30" fill="#47544c"/><rect x="30" y="0" width="30" height="30" fill="#47544c"/><rect x="60" y="0" width="30" height="30" fill="#47544c"/><rect x="90" y="0" width="30" height="30" fill="#47544c"/><rect x="120" y="0" width="30" height="30" fill="#47544c"/><rect x="150" y="0" width="30" height="30" fill="#47544c"/><rect x="180" y="0" width="30" height="30" fill="#47544c"/><rect x="210" y="0" width="30" height="30" fill="#47544c"/><rect x="240" y="0" width="30" height="30" fill="#47544c"/><rect x="270" y="0" width="30" height="30" fill="#47544c"/><rect x="300" y="0" width="30" height="30" fill="#47544c"/><rect x="330" y="0" width="30" height="30" fill="#47544c"/><rect x="360" y="0" width="30" height="30" fill="#47544c"/><rect x="390" y="0" width="30" height="30" fill="#47544c"/><rect x="420" y="0" width="30" height="30" fill="#47544c"/><rect x="450" y="0" width="30" height="30" fill="#47544c"/><rect x="480" y="0" width="30" height="30" fill="#47544c"/><rect x="510" y="0" width="30" height="30" fill="#47544c"/><rect x="540" y="0" width="30" height="30" fill="#47544c"/><rect x="570" y="0" width="30" height="30" fill="#47544c"/><rect x="600" y="0" width="30" height="30" fill="#47544c"/><rect x="630" y="0" width="30" height="30" fill="#47544c"/><rect x="660" y="0" width="30" height="30" fill="#47544c"/><rect x="690" y="0" width="30" height="30" fill="#47544c"/><rect x="720" y="0" width="30" height="30" fill="#47544c"/><rect x="750" y="0" width="30" height="30" fill="#47544c"/><rect x="780" y="0" width="30" height="30" fill="#47544c"/><rect x="810" y="0" width="30" height="30" fill="#47544c"/><rect x="840" y="0" width="30" height="30" fill="#47544c"/><rect x="870" y="0" width="30" height="30" fill="#47544c"/><rect x="900" y="0" width="30" height="30" fill="#47544c"/><rect x="930" y="0" width="30" height="30" fill="#47544c"/><rect x="960" y="0" width="30" height="30" fill="#47544c"/><rect x="990" y="0" width="30" height="30" fill="#47544c"/><rect x="1020" y="0" width="30" height="30" fill="#47544c"/><rect x="1050" y="0" width="30" height="30" fill="#47544c"/><rect x="1080" y="0" width="30" height="30" fill="#47544c"/><rect x="1110" y="0" width="30" height="30" fill="#47544c"/><rect x="1140" y="0" width="30" height="30" fill="#47544c"/><rect x="1170" y="0" width="30" height="30" fill="#47544c"/><rect x="1200" y="0" width="30" height="30" fill="#47544c"/><rect x="1230" y="0" width="30" height="30" fill="#47544c"/><rect x="1260" y="0" width="30" height="30" fill="#47544c"/><rect x="1290" y="0" width="30" height="30" fill="#47544c"/><rect x="1320" y="0" width="30" height="30" fill="#47544c"/><rect x="1350" y="0" width="30" height="30" fill="#47544c"/><rect x="1380" y="0" width="30" height="30" fill="#47544c"/><rect x="1410" y="0" width="30" height="30" fill="#47544c"/><rect x="0" y="30" width="30" height="30" fill="#47544c"/><rect x="0" y="60" width="30" height="30" fill="#47544c"/><rect x="0" y="90" width="30" height="30" fill="#47544c"/><rect x="0" y="120" width="30" height="30" fill="#47544c"/><rect x="0" y="150" width="30" height="30" fill="#47544c"/><rect x="0" y="180" width="30" height="30" fill="#47544c"/><rect x="0" y="210" width="30" height="30" fill="#47544c"/><rect x="0" y="240" width="30" height="30" fill="#47544c"/><rect x="0" y="270" width="30" height="30" fill="#47544c"/><rect x="0" y="300" width="30" height="30" fill="#47544c"/><rect x="0" y="330" width="30" height="30" fill="#47544c"/><rect x="0" y="360" width="30" height="30" fill="#47544c"/><rect x="0" y="390" width="30" height="30" fill="#47544c"/><rect x="0" y="420" width="30" height="30" fill="#47544c"/><rect x="0" y="450" width="30" height="30" fill="#47544c"/><rect x="0" y="480" width="30" height="30" fill="#47544c"/><rect x="0" y="510" width="30" height="30" fill="#47544c"/><rect x="0" y="540" width="30" height="30" fill="#47544c"/><rect x="0" y="570" width="30" height="30" fill="#47544c"/><rect x="0" y="600" width="30" height="30" fill="#47544c"/><rect x="0" y="630" width="30" height="30" fill="#47544c"/><rect x="1410" y="30" width="30" height="30" fill="#47544c"/><rect x="1410" y="60" width="30" height="30" fill="#47544c"/><rect x="1410" y="90" width="30" height="30" fill="#47544c"/><rect x="1410" y="120" width="30" height="30" fill="#47544c"/><rect x="1410" y="150" width="30" height="30" fill="#47544c"/><rect x="1410" y="180" width="30" height="30" fill="#47544c"/><rect x="1410" y="210" width="30" height="30" fill="#47544c"/><rect x="1410" y="240" width="30" height="30" fill="#47544c"/><rect x="1410" y="270" width="30" height="30" fill="#47544c"/><rect x="1410" y="300" width="30" height="30" fill="#47544c"/><rect x="1410" y="330" width="30" height="30" fill="#47544c"/><rect x="1410" y="360" width="30" height="30" fill="#47544c"/><rect x="1410" y="390" width="30" height="30" fill="#47544c"/><rect x="1410" y="420" width="30" height="30" fill="#47544c"/><rect x="1410" y="450" width="30" height="30" fill="#47544c"/><rect x="1410" y="480" width="30" height="30" fill="#47544c"/><rect x="1410" y="510" width="30" height="30" fill="#47544c"/><rect x="1410" y="540" width="30" height="30" fill="#47544c"/><rect x="1410" y="570" width="30" height="30" fill="#47544c"/><rect x="1410" y="600" width="30" height="30" fill="#47544c"/><rect x="1410" y="630" width="30" height="30" fill="#47544c"/><rect x="270" y="570" width="30" height="30" fill="#47544c"/><rect x="300" y="570" width="30" height="30" fill="#47544c"/><rect x="330" y="570" width="30" height="30" fill="#47544c"/><rect x="360" y="570" width="30" height="30" fill="#47544c"/><rect x="390" y="570" width="30" height="30" fill="#47544c"/><rect x="750" y="480" width="30" height="30" fill="#47544c"/><rect x="780" y="480" width="30" height="30" fill="#47544c"/><rect x="810" y="480" width="30" height="30" fill="#47544c"/><rect x="840" y="480" width="30" height="30" fill="#47544c"/><rect x="870" y="480" width="30" height="30" fill="#47544c"/><rect x="900" y="480" width="30" height="30" fill="#47544c"/><rect x="1170" y="570" width="30" height="30" fill="#47544c"/><rect x="1200" y="570" width="30" height="30" fill="#47544c"/><rect x="1230" y="570" width="30" height="30" fill="#47544c"/><rect x="1260" y="570" width="30" height="30" fill="#47544c"/><rect x="1290" y="570" width="30" height="30" fill="#47544c"/><rect x="1320" y="570" width="30" height="30" fill="#47544c"/><rect x="660" y="570" width="30" height="30" fill="#47544c"/><rect x="690" y="570" width="30" height="30" fill="#47544c"/><rect x="720" y="570" width="30" height="30" fill="#47544c"/><rect x="1020" y="570" width="30" height="30" fill="#47544c"/><rect x="1050" y="570" width="30" height="30" fill="#47544c"/><rect x="1080" y="570" width="30" height="30" fill="#47544c"/><rect x="1110" y="570" width="30" height="30" fill="#47544c"/><rect x="660" y="630" width="30" height="30" fill="#c95849"/><rect x="690" y="630" width="30" height="30" fill="#c95849"/><rect x="720" y="630" width="30" height="30" fill="#c95849"/><path d="M165.0,646.0 L165.1,646.1 L207.5,577.5 L273.8,541.7 L335.2,557.0 L374.0,473.1 L440.3,455.4 L506.5,497.0 L549.9,467.2 L606.8,395.1 L673.0,413.7 L739.1,522.9 L741.9,527.2 L746.2,455.1 L805.2,467.0 L871.5,467.0 L937.7,467.0 L1004.0,497.0 L1070.2,497.0 L1136.5,522.5 L1202.7,557.0 L1268.8,557.0 L1267.4,557.0 L1205.1,557.0 L1148.0,563.4 L1159.0,623.6 L1110.5,647.0 L1044.3,647.0 L978.0,647.0 L911.8,647.0 L845.5,647.0 L779.3,563.1 L713.0,545.4 L646.8,557.6 L580.5,613.5 L514.3,647.0 L448.0,647.0 L381.8,647.0 L315.5,647.0 L249.3,647.0 L183.0,647.0" fill="none" stroke="#227dd1" stroke-width="4" opacity=".7"/><circle cx="1275" cy="555" r="20" fill="#fbd479"/><text x="1275" y="561" text-anchor="middle" font-size="22">A</text><circle cx="825" cy="465" r="20" fill="#fbd479"/><text x="825" y="471" text-anchor="middle" font-size="22">B</text><rect x="90" y="630" width="30" height="30" fill="#52a571"/></svg>