<svg xmlns="http://www.w3.org/2000/svg" viewBox="0 0 1920 840" width="640" height="280"><title>Borrowed shelter: verified Medium route</title><rect width="100%" height="100%" fill="#edf1e7"/><rect x="0" y="780" width="30" height="30" fill="#47544c"/><rect x="30" y="780" width="30" height="30" fill="#47544c"/><rect x="60" y="780" width="30" height="30" fill="#47544c"/><rect x="90" y="780" width="30" height="30" fill="#47544c"/><rect x="120" y="780" width="30" height="30" fill="#47544c"/><rect x="150" y="780" width="30" height="30" fill="#47544c"/><rect x="180" y="780" width="30" height="30" fill="#47544c"/><rect x="210" y="780" width="30" height="30" fill="#47544c"/><rect x="240" y="780" width="30" height="30" fill="#47544c"/><rect x="270" y="780" width="30" height="30" fill="#47544c"/><rect x="300" y="780" width="30" height="30" fill="#47544c"/><rect x="330" y="780" width="30" height="30" fill="#47544c"/><rect x="360" y="780" width="30" height="30" fill="#47544c"/><rect x="390" y="780" width="30" height="30" fill="#47544c"/><rect x="420" y="780" width="30" height="30" fill="#47544c"/><rect x="450" y="780" width="30" height="30" fill="#47544c"/><rect x="480" y="780" width="30" height="30" fill="#47544c"/><rect x="510" y="780" width="30" height="30" fill="#47544c"/><rect x="540" y="780" width="30" height="30" fill="#47544c"/><rect x="570" y="780" width="30" height="30" fill="#47544c"/><rect x="600" y="780" width="30" height="30" fill="#47544c"/><rect x="630" y="780" width="30" height="30" fill="#47544c"/><rect x="660" y="780" width="30" height="30" fill="#47544c"/><rect x="690" y="780" width="30" height="30" fill="#47544c"/><rect x="720" y="780" width="30" height="30" fill="#47544c"/><rect x="750" y="780" width="30" height="30" fill="#47544c"/><rect x="780" y="780" width="30" height="30" fill="#47544c"/><rect x="810" y="780" width="30" height="30" fill="#47544c"/><rect x="840" y="780" width="30" height="30" fill="#47544c"/><rect x="870" y="780" width="30" height="30" fill="#47544c"/><rect x="900" y="780" width="30" height="30" fill="#47544c"/><rect x="930" y="780" width="30" height="30" fill="#47544c"/><rect x="960" y="780" width="30" height="30" fill="#47544c"/><rect x="990" y="780" width="30" height="30" fill="#47544c"/><rect x="1020" y="780" width="30" height="30" fill="#47544c"/><rect x="1050" y="780" width="30" height="30" fill="#47544c"/><rect x="1080" y="780" width="30" height="30" fill="#47544c"/><rect x="1110" y="780" width="30" height="30" fill="#47544c"/><rect x="1140" y="780" width="30" height="30" fill="#47544c"/><rect x="1170" y="780" width="30" height="30" fill="#47544c"/><rect x="1200" y="780" width="30" height="30" fill="#47544c"/><rect x="1230" y="780" width="30" height="30" fill="#47544c"/><rect x="1260" y="780" width="30" height="30" fill="#47544c"/><rect x="1290" y="780" width="30" height="30" fill="#47544c"/><rect x="1320" y="780" width="30" height="30" fill="#47544c"/><rect x="1350" y="780" width="30" height="30" fill="#47544c"/><rect x="1380" y="780" width="30" height="30" fill="#47544c"/><rect x="1410" y="780" width="30" height="30" fill="#47544c"/><rect x="1440" y="780" width="30" height="30" fill="#47544c"/><rect x="1470" y="780" width="30" height="30" fill="#47544c"/><rect x="1500" y="780" width="30" height="30" fill="#47544c"/><rect x="1530" y="780" width="30" height="30" fill="#47544c"/><rect x="1560" y="780" width="30" height="30" fill="#47544c"/><rect x="1590" y="780" width="30" height="30" fill="#47544c"/><rect x="1620" y="780" width="30" height="30" fill="#47544c"/><rect x="1650" y="780" width="30" height="30" fill="#47544c"/><rect x="1680" y="780" width="30" height="30" fill="#47544c"/><rect x="1710" y="780" width="30" height="30" fill="#47544c"/><rect x="1740" y="780" width="30" height="30" fill="#47544c"/><rect x="1770" y="780" width="30" height="30" fill="#47544c"/><rect x="1800" y="780" width="30" height="30" fill="#47544c"/><rect x="1830" y="780" width="30" height="30" fill="#47544c"/><rect x="1860" y="780" width="30" height="30" fill="#47544c"/><rect x="1890" y="780" width="30" height="30" fill="#47544c"/><rect x="0" y="810" width="30" height="30" fill="#47544c"/><rect x="30" y="810" width="30" height="30" fill="#47544c"/><rect x="60" y="810" width="30" height="30" fill="#47544c"/><rect x="90" y="810" width="30" height="30" fill="#47544c"/><rect x="120" y="810" width="30" height="30" fill="#47544c"/><rect x="150" y="810" width="30" height="30" fill="#47544c"/><rect x="180" y="810" width="30" height="30" fill="#47544c"/><rect x="210" y="810" width="30" height="30" fill="#47544c"/><rect x="240" y="810" width="30" height="30" fill="#47544c"/><rect x="270" y="810" width="30" height="30" fill="#47544c"/><rect x="300" y="810" width="30" height="30" fill="#47544c"/><rect x="330" y="810" width="30" height="30" fill="#47544c"/><rect x="360" y="810" width="30" height="30" fill="#47544c"/><rect x="390" y="810" width="30" height="30" fill="#47544c"/><rect x="420" y="810" width="30" height="30" fill="#47544c"/><rect x="450" y="810" width="30" height="30" fill="#47544c"/><rect x="480" y="810" width="30" height="30" fill="#47544c"/><rect x="510" y="810" width="30" height="30" fill="#47544c"/><rect x="540" y="810" width="30" height="30" fill="#47544c"/><rect x="570" y="810" width="30" height="30" fill="#47544c"/><rect x="600" y="810" width="30" height="30" fill="#47544c"/><rect x="630" y="810" width="30" height="30" fill="#47544c"/><rect x="660" y="810" width="30" height="30" fill="#47544c"/><rect x="690" y="810" width="30" height="30" fill="#47544c"/><rect x="720" y="810" width="30" height="30" fill="#47544c"/><rect x="750" y="810" width="30" height="30" fill="#47544c"/><rect x="780" y="810" width="30" height="30" fill="#47544c"/><rect x="810" y="810" width="30" height="30" fill="#47544c"/><rect x="840" y="810" width="30" height="30" fill="#47544c"/><rect x="870" y="810" width="30" height="30" fill="#47544c"/><rect x="900" y="810" width="30" height="30" fill="#47544c"/><rect x="930" y="810" width="30" height="30" fill="#47544c"/><rect x="960" y="810" width="30" height="30" fill="#47544c"/><rect x="990" y="810" width="30" height="30" fill="#47544c"/><rect x="1020" y="810" width="30" height="30" fill="#47544c"/><rect x="1050" y="810" width="30" height="30" fill="#47544c"/><rect x="1080" y="810" width="30" height="30" fill="#47544c"/><rect x="1110" y="810" width="30" height="30" fill="#47544c"/><rect x="1140" y="810" width="30" height="30" fill="#47544c"/><rect x="1170" y="810" width="30" height="30" fill="#47544c"/><rect x="1200" y="810" width="30" height="30" fill="#47544c"/><rect x="1230" y="810" width="30" height="30" fill="#47544c"/><rect x="1260" y="810" width="30" height="30" fill="#47544c"/><rect x="1290" y="810" width="30" height="30" fill="#47544c"/><rect x="1320" y="810" width="30" height="30" fill="#47544c"/><rect x="1350" y="810" width="30" height="30" fill="#47544c"/><rect x="1380" y="810" width="30" height="30" fill="#47544c"/><rect x="1410" y="810" width="30" height="30" fill="#47544c"/><rect x="1440" y="810" width="30" height="30" fill="#47544c"/><rect x="1470" y="810" width="30" height="30" fill="#47544c"/><rect x="1500" y="810" width="30" height="30" fill="#47544c"/><rect x="1530" y="810" width="30" height="30" fill="#47544c"/><rect x="1560" y="810" width="30" height="30" fill="#47544c"/><rect x="1590" y="810" width="30" height="30" fill="#47544c"/><rect x="1620" y="810" width="30" height="30" fill="#47544c"/><rect x="1650" y="810" width="30" height="30" fill="#47544c"/><rect x="1680" y="810" width="30" height="30" fill="#47544c"/><rect x="1710" y="810" width="30" height="30" fill="#47544c"/><rect x="1740" y="810" width="30" height="30" fill="#47544c"/><rect x="1770" y="810" width="30" height="30" fill="#47544c"/><rect x="1800" y="810" width="30" height="30" fill="#47544c"/><rect x="1830" y="810" width="30" height="30" fill="#47544c"/><rect x="1860" y="810" width="30" height="30" fill="#47544c"/><rect x="1890" y="810" width="30" height="30" fill="#47544c"/><rect x="0" y="0" width="30" height="30" fill="#47544c"/><rect x="30" y="0" width="30" height="30" fill="#47544c"/><rect x="60" y="0" width="30" height="30" fill="#47544c"/><rect x="90" y="0" width="30" height="30" fill="#47544c"/><rect x="120" y="0" width="30" height="30" fill="#47544c"/><rect x="150" y="0" width="30" height="30" fill="#47544c"/><rect x="180" y="0" width="30" height="30" fill="#47544c"/><rect x="210" y="0" width="30" height="30" fill="#47544c"/><rect x="240" y="0" width="30" height="30" fill="#47544c"/><rect x="270" y="0" width="30" height="30" fill="#47544c"/><rect x="300" y="0" width="30" height="30" fill="#47544c"/><rect x="330" y="0" width="30" height="30" fill="#47544c"/><rect x="360" y="0" width="30" height="30" fill="#47544c"/><rect x="390" y="0" width="30" height="30" fill="#47544c"/><rect x="420" y="0" width="30" height="30" fill="#47544c"/><rect x="450" y="0" width="30" height="30" fill="#47544c"/><rect x="480" y="0" width="30" height="30" fill="#47544c"/><rect x="510" y="0" width="30" height="30" fill="#47544c"/><rect x="540" y="0" width="30" height="30" fill="#47544c"/><rect x="570" y="0" width="30" height="30" fill="#47544c"/><rect x="600" y="0" width="30" height="30" fill="#47544c"/><rect x="630" y="0" width="30" height="30" fill="#47544c"/><rect x="660" y="0" width="30" height="30" fill="#47544c"/><rect x="690" y="0" width="30" height="30" fill="#47544c"/><rect x="720" y="0" width="30" height="30" fill="#47544c"/><rect x="750" y="0" width="30" height="30" fill="#47544c"/><rect x="780" y="0" width="30" height="30" fill="#47544c"/><rect x="810" y="0" width="30" height="30" fill="#47544c"/><rect x="840" y="0" width="30" height="30" fill="#47544c"/><rect x="870" y="0" width="30" height="30" fill="#47544c"/><rect x="900" y="0" width="30" height="30" fill="#47544c"/><rect x="930" y="0" width="30" height="30" fill="#47544c"/><rect x="960" y="0" width="30" height="30" fill="#47544c"/><rect x="990" y="0" width="30" height="30" fill="#47544c"/><rect x="1020" y="0" width="30" height="30" fill="#47544c"/><rect x="1050" y="0" width="30" height="30" fill="#47544c"/><rect x="1080" y="0" width="30" height="30" fill="#47544c"/><rect x="1110" y="0" width="30" height="30" fill="#47544c"/><rect x="1140" y="0" width="30" height="30" fill="#47544c"/><rect x="1170" y="0" width="30" height="30" fill="#47544c"/><rect x="1200" y="0" width="30" height="30" fill="#47544c"/><rect x="1230" y="0" width="30" height="30" fill="#47544c"/><rect x="1260" y="0" width="30" height="30" fill="#47544c"/><rect x="1290" y="0" width="30" height="30" fill="#47544c"/><rect x="1320" y="0" width="30" height="30" fill="#47544c"/><rect x="1350" y="0" width="30" height="30" fill="#47544c"/><rect x="1380" y="0" width="30" height="30" fill="#47544c"/><rect x="1410" y="0" width="30" height="30" fill="#47544c"/><rect x="1440" y="0" width="30" height="30" fill="#47544c"/><rect x="1470" y="0" width="30" height="30" fill="#47544c"/><rect x="1500" y="0" width="30" height="30" fill="#47544c"/><rect x="1530" y="0" width="30" height="30" fill="#47544c"/><rect x="1560" y="0" width="30" height="30" fill="#47544c"/><rect x="1590" y="0" width="30" height="30" fill="#47544c"/><rect x="1620" y="0" width="30" height="30" fill="#47544c"/><rect x="1650" y="0" width="30" height="30" fill="#47544c"/><rect x="1680" y="0" width="30" height="30" fill="#47544c"/><rect x="1710" y="0" width="30" height="30" fill="#47544c"/><rect x="1740" y="0" width="30" height="30" fill="#47544c"/><rect x="1770" y="0" width="30" height="30" fill="#47544c"/><rect x="1800" y="0" width="30" height="30" fill="#47544c"/><rect x="1830" y="0" width="30" height="30" fill="#47544c"/><rect x="1860" y="0" width="30" height="30" fill="#47544c"/><rect x="1890" y="0" width="30" height="30" fill="#47544c"/><rect x="0" y="30" width="30" height="30" fill="#47544c"/><rect x="0" y="60" width="30" height="30" fill="#47544c"/><rect x="0" y="90" width="30" height="30" fill="#47544c"/><rect x="0" y="120" width="30" height="30" fill="#47544c"/><rect x="0" y="150" width="30" height="30" fill="#47544c"/><rect x="0" y="180" width="30" height="30" fill="#47544c"/><rect x="0" y="210" width="30" height="30" fill="#47544c"/><rect x="0" y="240" width="30" height="30" fill="#47544c"/><rect x="0" y="270" width="30" height="30" fill="#47544c"/><rect x="0" y="300" width="30" height="30" fill="#47544c"/><rect x="0" y="330" width="30" height="30" fill="#47544c"/><rect x="0" y="360" width="30" height="30" fill="#47544c"/><rect x="0" y="390" width="30" height="30" fill="#47544c"/><rect x="0" y="420" width="30" height="30" fill="#47544c"/><rect x="0" y="450" width="30" height="30" fill="#47544c"/><rect x="0" y="480" width="30" height="30" fill="#47544c"/><rect x="0" y="510" width="30" height="30" fill="#47544c"/><rect x="0" y="540" width="30" height="30" fill="#47544c"/><rect x="0" y="570" width="30" height="30" fill="#47544c"/><rect x="0" y="600" width="30" height="30" fill="#47544c"/><rect x="0" y="630" width="30" height="30" fill="#47544c"/><rect x="0" y="660" width="30" height="30" fill="#47544c"/><rect x="0" y="690" width="30" height="30" fill="#47544c"/><rect x="0" y="720" width="30" height="30" fill="#47544c"/><rect x="0" y="750" width="30" height="30" fill="#47544c"/><rect x="1890" y="30" width="30" height="30" fill="#47544c"/><rect x="1890" y="60" width="30" height="30" fill="#47544c"/><rect x="1890" y="90" width="30" height="30" fill="#47544c"/><rect x="1890" y="120" width="30" height="30" fill="#47544c"/><rect x="1890" y="150" width="30" height="30" fill="#47544c"/><rect x="1890" y="180" width="30" height="30" fill="#47544c"/><rect x="1890" y="210" width="30" height="30" fill="#47544c"/><rect x="1890" y="240" width="30" height="30" fill="#47544c"/><rect x="1890" y="270" width="30" height="30" fill="#47544c"/><rect x="1890" y="300" width="30" height="30" fill="#47544c"/><rect x="1890" y="330" width="30" height="30" fill="#47544c"/><rect x="1890" y="360" width="30" height="30" fill="#47544c"/><rect x="1890" y="390" width="30" height="30" fill="#47544c"/><rect x="1890" y="420" width="30" height="30" fill="#47544c"/><rect x="1890" y="450" width="30" height="30" fill="#47544c"/><rect x="1890" y="480" width="30" height="30" fill="#47544c"/><rect x="1890" y="510" width="30" height="30" fill="#47544c"/><rect x="1890" y="540" width="30" height="30" fill="#47544c"/><rect x="1890" y="570" width="30" height="30" fill="#47544c"/><rect x="1890" y="600" width="30" height="30" fill="#47544c"/><rect x="1890" y="630" width="30" height="30" fill="#47544c"/><rect x="1890" y="660" width="30" height="30" fill="#47544c"/><rect x="1890" y="690" width="30" height="30" fill="#47544c"/><rect x="1890" y="720" width="30" height="30" fill="#47544c"/><rect x="1890" y="750" width="30" height="30" fill="#47544c"/><rect x="360" y="690" width="30" height="30" fill="#47544c"/><rect x="390" y="690" width="30" height="30" fill="#47544c"/><rect x="420" y="690" width="30" height="30" fill="#47544c"/><rect x="450" y="690" width="30" height="30" fill="#47544c"/><rect x="480" y="690" width="30" height="30" fill="#47544c"/><rect x="510" y="690" width="30" height="30" fill="#47544c"/><rect x="540" y="690" width="30" height="30" fill="#47544c"/><rect x="750" y="600" width="30" height="30" fill="#47544c"/><rect x="780" y="600" width="30" height="30" fill="#47544c"/><rect x="810" y="600" width="30" height="30" fill="#47544c"/><rect x="840" y="600" width="30" height="30" fill="#47544c"/><rect x="870" y="600" width="30" height="30" fill="#47544c"/><rect x="900" y="600" width="30" height="30" fill="#47544c"/><rect x="930" y="600" width="30" height="30" fill="#47544c"/><rect x="1170" y="690" width="30" height="30" fill="#47544c"/><rect x="1200" y="690" width="30" height="30" fill="#47544c"/><rect x="1230" y="690" width="30" height="30" fill="#47544c"/><rect x="1260" y="690" width="30" height="30" fill="#47544c"/><rect x="1290" y="690" width="30" height="30" fill="#47544c"/><rect x="1320" y="690" width="30" height="30" fill="#47544c"/><rect x="1350" y="690" width="30" height="30" fill="#47544c"/><rect x="1590" y="690" width="30" height="30" fill="#47544c"/><rect x="1620" y="690" width="30" height="30" fill="#47544c"/><rect x="1650" y="690" width="30" height="30" fill="#47544c"/><rect x="1680" y="690" width="30" height="30" fill="#47544c"/><rect x="1710" y="690" width="30" height="30" fill="#47544c"/><rect x="1740" y="690" width="30" height="30" fill="#47544c"/><rect x="1770" y="690" width="30" height="30" fill="#47544c"/><rect x="1800" y="690" width="30" height="30" fill="#47544c"/><rect x="1830" y="690" width="30" height="30" fill="#47544c"/><rect x="1650" y="600" width="30" height="30" fill="#47544c"/><rect x="1680" y="600" width="30" height="30" fill="#47544c"/><rect x="1710" y="600" width="30" height="30" fill="#47544c"/><rect x="1740" y="600" width="30" height="30" fill="#47544c"/><rect x="1770" y="600" width="30" height="30" fill="#47544c"/><rect x="1800" y="600" width="30" height="30" fill="#47544c"/><rect x="1830" y="600" width="30" height="30" fill="#47544c"/><rect x="1440" y="510" width="30" height="30" fill="#47544c"/><rect x="1470" y="510" width="30" height="30" fill="#47544c"/><rect x="1500" y="510" width="30" height="30" fill="#47544c"/><rect x="1530" y="510" width="30" height="30" fill="#47544c"/><rect x="1560" y="510" width="30" height="30" fill="#47544c"/><rect x="1590" y="510" width="30" height="30" fill="#47544c"/><rect x="1620" y="510" width="30" height="30" fill="#47544c"/><rect x="1110" y="420" width="30" height="30" fill="#47544c"/><rect x="1140" y="420" width="30" height="30" fill="#47544c"/><rect x="1170" y="420" width="30" height="30" fill="#47544c"/><rect x="1200" y="420" width="30" height="30" fill="#47544c"/><rect x="1230" y="420" width="30" height="30" fill="#47544c"/><rect x="1260" y="420" width="30" height="30" fill="#47544c"/><rect x="1290" y="420" width="30" height="30" fill="#47544c"/><rect x="1320" y="420" width="30" height="30" fill="#47544c"/><rect x="750" y="330" width="30" height="30" fill="#47544c"/><rect x="780" y="330" width="30" height="30" fill="#47544c"/><rect x="810" y="330" width="30" height="30" fill="#47544c"/><rect x="840" y="330" width="30" height="30" fill="#47544c"/><rect x="870" y="330" width="30" height="30" fill="#47544c"/><rect x="900" y="330" width="30" height="30" fill="#47544c"/><rect x="930" y="330" width="30" height="30" fill="#47544c"/><rect x="960" y="330" width="30" height="30" fill="#47544c"/><rect x="150" y="330" width="30" height="30" fill="#47544c"/><rect x="180" y="330" width="30" height="30" fill="#47544c"/><rect x="210" y="330" width="30" height="30" fill="#47544c"/><rect x="240" y="330" width="30" height="30" fill="#47544c"/><rect x="270" y="330" width="30" height="30" fill="#47544c"/><rect x="300" y="330" width="30" height="30" fill="#47544c"/><rect x="330" y="330" width="30" height="30" fill="#47544c"/><rect x="360" y="330" width="30" height="30" fill="#47544c"/><rect x="390" y="330" width="30" height="30" fill="#47544c"/><rect x="480" y="330" width="30" height="30" fill="#47544c"/><rect x="510" y="330" width="30" height="30" fill="#47544c"/><rect x="540" y="330" width="30" height="30" fill="#47544c"/><rect x="570" y="330" width="30" height="30" fill="#47544c"/><rect x="600" y="330" width="30" height="30" fill="#47544c"/><rect x="630" y="330" width="30" height="30" fill="#47544c"/><path d="M165.0,766.0 L165.1,766.1 L207.5,697.5 L273.8,661.7 L335.2,716.5 L355.5,762.4 L345.9,672.3 L401.8,672.7 L468.1,647.2 L521.5,575.1 L530.9,593.7 L584.6,673.0 L650.9,582.9 L717.1,583.4 L716.2,615.2 L679.4,543.2 L729.2,561.8 L795.5,587.0 L861.7,587.0 L927.8,587.0 L964.3,587.0 L972.5,619.7 L995.8,630.5 L1067.0,558.5 L1133.3,577.1 L1199.5,677.0 L1242.8,677.0 L1299.8,677.0 L1366.0,677.0 L1432.3,700.3 L1498.5,737.2 L1564.8,665.1 L1631.0,677.0 L1697.3,677.0 L1763.5,647.2 L1829.8,672.4 L1868.0,625.2 L1851.4,553.2 L1787.9,571.8 L1721.7,535.5 L1655.4,481.6 L1589.2,497.0 L1522.9,427.5 L1456.9,391.7 L1445.7,446.5 L1401.8,446.1 L1335.5,392.2 L1269.3,402.4 L1203.0,312.3 L1151.2,312.7 L1107.7,403.8 L1062.2,323.1 L996.0,305.4 L929.7,317.0 L863.5,317.0 L797.2,317.0 L750.2,317.0 L741.9,345.3 L682.7,293.6 L616.5,257.8 L554.9,312.7 L508.9,317.0 L442.7,290.0 L376.4,217.9 L310.2,236.5 L256.6,317.0 L202.6,317.0 L136.3,317.6 L95.3,373.5 L103.8,520.0 L104.5,743.4" fill="none" stroke="#227dd1" stroke-width="4" opacity=".7"/><circle cx="1725" cy="675" r="20" fill="#fbd479"/><text x="1725" y="681" text-anchor="middle" font-size="22">A</text><circle cx="255" cy="315" r="20" fill="#fbd479"/><text x="255" y="321" text-anchor="middle" font-size="22">B</text><rect x="90" y="750" width="30" height="30" fill="#52a571"/></svg>