<svg xmlns="http://www.w3.org/2000/svg" viewBox="0 0 1920 1080" width="640" height="360"><title>Ceasefire is a lie: verified Medium route</title><rect width="100%" height="100%" fill="#edf1e7"/><rect x="0" y="1020" width="30" height="30" fill="#47544c"/><rect x="30" y="1020" width="30" height="30" fill="#47544c"/><rect x="60" y="1020" width="30" height="30" fill="#47544c"/><rect x="90" y="1020" width="30" height="30" fill="#47544c"/><rect x="120" y="1020" width="30" height="30" fill="#47544c"/><rect x="150" y="1020" width="30" height="30" fill="#47544c"/><rect x="180" y="1020" width="30" height="30" fill="#47544c"/><rect x="210" y="1020" width="30" height="30" fill="#47544c"/><rect x="240" y="1020" width="30" height="30" fill="#47544c"/><rect x="270" y="1020" width="30" height="30" fill="#47544c"/><rect x="300" y="1020" width="30" height="30" fill="#47544c"/><rect x="330" y="1020" width="30" height="30" fill="#47544c"/><rect x="360" y="1020" width="30" height="30" fill="#47544c"/><rect x="390" y="1020" width="30" height="30" fill="#47544c"/><rect x="420" y="1020" width="30" height="30" fill="#47544c"/><rect x="450" y="1020" width="30" height="30" fill="#47544c"/><rect x="480" y="1020" width="30" height="30" fill="#47544c"/><rect x="510" y="1020" width="30" height="30" fill="#47544c"/><rect x="540" y="1020" width="30" height="30" fill="#47544c"/><rect x="570" y="1020" width="30" height="30" fill="#47544c"/><rect x="600" y="1020" width="30" height="30" fill="#47544c"/><rect x="630" y="1020" width="30" height="30" fill="#47544c"/><rect x="660" y="1020" width="30" height="30" fill="#47544c"/><rect x="690" y="1020" width="30" height="30" fill="#47544c"/><rect x="720" y="1020" width="30" height="30" fill="#47544c"/><rect x="750" y="1020" width="30" height="30" fill="#47544c"/><rect x="780" y="1020" width="30" height="30" fill="#47544c"/><rect x="810" y="1020" width="30" height="30" fill="#47544c"/><rect x="840" y="1020" width="30" height="30" fill="#47544c"/><rect x="870" y="1020" width="30" height="30" fill="#47544c"/><rect x="900" y="1020" width="30" height="30" fill="#47544c"/><rect x="930" y="1020" width="30" height="30" fill="#47544c"/><rect x="960" y="1020" width="30" height="30" fill="#47544c"/><rect x="990" y="1020" width="30" height="30" fill="#47544c"/><rect x="1020" y="1020" width="30" height="30" fill="#47544c"/><rect x="1050" y="1020" width="30" height="30" fill="#47544c"/><rect x="1080" y="1020" width="30" height="30" fill="#47544c"/><rect x="1110" y="1020" width="30" height="30" fill="#47544c"/><rect x="1140" y="1020" width="30" height="30" fill="#47544c"/><rect x="1170" y="1020" width="30" height="30" fill="#47544c"/><rect x="1200" y="1020" width="30" height="30" fill="#47544c"/><rect x="1230" y="1020" width="30" height="30" fill="#47544c"/><rect x="1260" y="1020" width="30" height="30" fill="#47544c"/><rect x="1290" y="1020" width="30" height="30" fill="#47544c"/><rect x="1320" y="1020" width="30" height="30" fill="#47544c"/><rect x="1350" y="1020" width="30" height="30" fill="#47544c"/><rect x="1380" y="1020" width="30" height="30" fill="#47544c"/><rect x="1410" y="1020" width="30" height="30" fill="#47544c"/><rect x="1440" y="1020" width="30" height="30" fill="#47544c"/><rect x="1470" y="1020" width="30" height="30" fill="#47544c"/><rect x="1500" y="1020" width="30" height="30" fill="#47544c"/><rect x="1530" y="1020" width="30" height="30" fill="#47544c"/><rect x="1560" y="1020" width="30" height="30" fill="#47544c"/><rect x="1590" y="1020" width="30" height="30" fill="#47544c"/><rect x="1620" y="1020" width="30" height="30" fill="#47544c"/><rect x="1650" y="1020" width="30" height="30" fill="#47544c"/><rect x="1680" y="1020" width="30" height="30" fill="#47544c"/><rect x="1710" y="1020" width="30" height="30" fill="#47544c"/><rect x="1740" y="1020" width="30" height="30" fill="#47544c"/><rect x="1770" y="1020" width="30" height="30" fill="#47544c"/><rect x="1800" y="1020" width="30" height="30" fill="#47544c"/><rect x="1830" y="1020" width="30" height="30" fill="#47544c"/><rect x="1860" y="1020" width="30" height="30" fill="#47544c"/><rect x="1890" y="1020" width="30" height="30" fill="#47544c"/><rect x="0" y="1050" width="30" height="30" fill="#47544c"/><rect x="30" y="1050" width="30" height="30" fill="#47544c"/><rect x="60" y="1050" width="30" height="30" fill="#47544c"/><rect x="90" y="1050" width="30" height="30" fill="#47544c"/><rect x="120" y="1050" width="30" height="30" fill="#47544c"/><rect x="150" y="1050" width="30" height="30" fill="#47544c"/><rect x="180" y="1050" width="30" height="30" fill="#47544c"/><rect x="210" y="1050" width="30" height="30" fill="#47544c"/><rect x="240" y="1050" width="30" height="30" fill="#47544c"/><rect x="270" y="1050" width="30" height="30" fill="#47544c"/><rect x="300" y="1050" width="30" height="30" fill="#47544c"/><rect x="330" y="1050" width="30" height="30" fill="#47544c"/><rect x="360" y="1050" width="30" height="30" fill="#47544c"/><rect x="390" y="1050" width="30" height="30" fill="#47544c"/><rect x="420" y="1050" width="30" height="30" fill="#47544c"/><rect x="450" y="1050" width="30" height="30" fill="#47544c"/><rect x="480" y="1050" width="30" height="30" fill="#47544c"/><rect x="510" y="1050" width="30" height="30" fill="#47544c"/><rect x="540" y="1050" width="30" height="30" fill="#47544c"/><rect x="570" y="1050" width="30" height="30" fill="#47544c"/><rect x="600" y="1050" width="30" height="30" fill="#47544c"/><rect x="630" y="1050" width="30" height="30" fill="#47544c"/><rect x="660" y="1050" width="30" height="30" fill="#47544c"/><rect x="690" y="1050" width="30" height="30" fill="#47544c"/><rect x="720" y="1050" width="30" height="30" fill="#47544c"/><rect x="750" y="1050" width="30" height="30" fill="#47544c"/><rect x="780" y="1050" width="30" height="30" fill="#47544c"/><rect x="810" y="1050" width="30" height="30" fill="#47544c"/><rect x="840" y="1050" width="30" height="30" fill="#47544c"/><rect x="870" y="1050" width="30" height="30" fill="#47544c"/><rect x="900" y="1050" width="30" height="30" fill="#47544c"/><rect x="930" y="1050" width="30" height="30" fill="#47544c"/><rect x="960" y="1050" width="30" height="30" fill="#47544c"/><rect x="990" y="1050" width="30" height="30" fill="#47544c"/><rect x="1020" y="1050" width="30" height="30" fill="#47544c"/><rect x="1050" y="1050" width="30" height="30" fill="#47544c"/><rect x="1080" y="1050" width="30" height="30" fill="#47544c"/><rect x="1110" y="1050" width="30" height="30" fill="#47544c"/><rect x="1140" y="1050" width="30" height="30" fill="#47544c"/><rect x="1170" y="1050" width="30" height="30" fill="#47544c"/><rect x="1200" y="1050" width="30" height="30" fill="#47544c"/><rect x="1230" y="1050" width="30" height="30" fill="#47544c"/><rect x="1260" y="1050" width="30" height="30" fill="#47544c"/><rect x="1290" y="1050" width="30" height="30" fill="#47544c"/><rect x="1320" y="1050" width="30" height="30" fill="#47544c"/><rect x="1350" y="1050" width="30" height="30" fill="#47544c"/><rect x="1380" y="1050" width="30" height="30" fill="#47544c"/><rect x="1410" y="1050" width="30" height="30" fill="#47544c"/><rect x="1440" y="1050" width="30" height="30" fill="#47544c"/><rect x="1470" y="1050" width="30" height="30" fill="#47544c"/><rect x="1500" y="1050" width="30" height="30" fill="#47544c"/><rect x="1530" y="1050" width="30" height="30" fill="#47544c"/><rect x="1560" y="1050" width="30" height="30" fill="#47544c"/><rect x="1590" y="1050" width="30" height="30" fill="#47544c"/><rect x="1620" y="1050" width="30" height="30" fill="#47544c"/><rect x="1650" y="1050" width="30" height="30" fill="#47544c"/><rect x="1680" y="1050" width="30" height="30" fill="#47544c"/><rect x="1710" y="1050" width="30" height="30" fill="#47544c"/><rect x="1740" y="1050" width="30" height="30" fill="#47544c"/><rect x="1770" y="1050" width="30" height="30" fill="#47544c"/><rect x="1800" y="1050" width="30" height="30" fill="#47544c"/><rect x="1830" y="1050" width="30" height="30" fill="#47544c"/><rect x="1860" y="1050" width="30" height="30" fill="#47544c"/><rect x="1890" y="1050" width="30" height="30" fill="#47544c"/><rect x="0" y="0" width="30" height="30" fill="#47544c"/><rect x="30" y="0" width="30" height="30" fill="#47544c"/><rect x="60" y="0" width="30" height="30" fill="#47544c"/><rect x="90" y="0" width="30" height="30" fill="#47544c"/><rect x="120" y="0" width="30" height="30" fill="#47544c"/><rect x="150" y="0" width="30" height="30" fill="#47544c"/><rect x="180" y="0" width="30" height="30" fill="#47544c"/><rect x="210" y="0" width="30" height="30" fill="#47544c"/><rect x="240" y="0" width="30" height="30" fill="#47544c"/><rect x="270" y="0" width="30" height="30" fill="#47544c"/><rect x="300" y="0" width="30" height="30" fill="#47544c"/><rect x="330" y="0" width="30" height="30" fill="#47544c"/><rect x="360" y="0" width="30" height="30" fill="#47544c"/><rect x="390" y="0" width="30" height="30" fill="#47544c"/><rect x="420" y="0" width="30" height="30" fill="#47544c"/><rect x="450" y="0" width="30" height="30" fill="#47544c"/><rect x="480" y="0" width="30" height="30" fill="#47544c"/><rect x="510" y="0" width="30" height="30" fill="#47544c"/><rect x="540" y="0" width="30" height="30" fill="#47544c"/><rect x="570" y="0" width="30" height="30" fill="#47544c"/><rect x="600" y="0" width="30" height="30" fill="#47544c"/><rect x="630" y="0" width="30" height="30" fill="#47544c"/><rect x="660" y="0" width="30" height="30" fill="#47544c"/><rect x="690" y="0" width="30" height="30" fill="#47544c"/><rect x="720" y="0" width="30" height="30" fill="#47544c"/><rect x="750" y="0" width="30" height="30" fill="#47544c"/><rect x="780" y="0" width="30" height="30" fill="#47544c"/><rect x="810" y="0" width="30" height="30" fill="#47544c"/><rect x="840" y="0" width="30" height="30" fill="#47544c"/><rect x="870" y="0" width="30" height="30" fill="#47544c"/><rect x="900" y="0" width="30" height="30" fill="#47544c"/><rect x="930" y="0" width="30" height="30" fill="#47544c"/><rect x="960" y="0" width="30" height="30" fill="#47544c"/><rect x="990" y="0" width="30" height="30" fill="#47544c"/><rect x="1020" y="0" width="30" height="30" fill="#47544c"/><rect x="1050" y="0" width="30" height="30" fill="#47544c"/><rect x="1080" y="0" width="30" height="30" fill="#47544c"/><rect x="1110" y="0" width="30" height="30" fill="#47544c"/><rect x="1140" y="0" width="30" height="30" fill="#47544c"/><rect x="1170" y="0" width="30" height="30" fill="#47544c"/><rect x="1200" y="0" width="30" height="30" fill="#47544c"/><rect x="1230" y="0" width="30" height="30" fill="#47544c"/><rect x="1260" y="0" width="30" height="30" fill="#47544c"/><rect x="1290" y="0" width="30" height="30" fill="#47544c"/><rect x="1320" y="0" width="30" height="30" fill="#47544c"/><rect x="1350" y="0" width="30" height="30" fill="#47544c"/><rect x="1380" y="0" width="30" height="30" fill="#47544c"/><rect x="1410" y="0" width="30" height="30" fill="#47544c"/><rect x="1440" y="0" width="30" height="30" fill="#47544c"/><rect x="1470" y="0" width="30" height="30" fill="#47544c"/><rect x="1500" y="0" width="30" height="30" fill="#47544c"/><rect x="1530" y="0" width="30" height="30" fill="#47544c"/><rect x="1560" y="0" width="30" height="30" fill="#47544c"/><rect x="1590" y="0" width="30" height="30" fill="#47544c"/><rect x="1620" y="0" width="30" height="30" fill="#47544c"/><rect x="1650" y="0" width="30" height="30" fill="#47544c"/><rect x="1680" y="0" width="30" height="30" fill="#47544c"/><rect x="1710" y="0" width="30" height="30" fill="#47544c"/><rect x="1740" y="0" width="30" height="30" fill="#47544c"/><rect x="1770" y="0" width="30" height="30" fill="#47544c"/><rect x="1800" y="0" width="30" height="30" fill="#47544c"/><rect x="1830" y="0" width="30" height="30" fill="#47544c"/><rect x="1860" y="0" width="30" height="30" fill="#47544c"/><rect x="1890" y="0" width="30" height="30" fill="#47544c"/><rect x="0" y="30" width="30" height="30" fill="#47544c"/><rect x="0" y="60" width="30" height="30" fill="#47544c"/><rect x="0" y="90" width="30" height="30" fill="#47544c"/><rect x="0" y="120" width="30" height="30" fill="#47544c"/><rect x="0" y="150" width="30" height="30" fill="#47544c"/><rect x="0" y="180" width="30" height="30" fill="#47544c"/><rect x="0" y="210" width="30" height="30" fill="#47544c"/><rect x="0" y="240" width="30" height="30" fill="#47544c"/><rect x="0" y="270" width="30" height="30" fill="#47544c"/><rect x="0" y="300" width="30" height="30" fill="#47544c"/><rect x="0" y="330" width="30" height="30" fill="#47544c"/><rect x="0" y="360" width="30" height="30" fill="#47544c"/><rect x="0" y="390" width="30" height="30" fill="#47544c"/><rect x="0" y="420" width="30" height="30" fill="#47544c"/><rect x="0" y="450" width="30" height="30" fill="#47544c"/><rect x="0" y="480" width="30" height="30" fill="#47544c"/><rect x="0" y="510" width="30" height="30" fill="#47544c"/><rect x="0" y="540" width="30" height="30" fill="#47544c"/><rect x="0" y="570" width="30" height="30" fill="#47544c"/><rect x="0" y="600" width="30" height="30" fill="#47544c"/><rect x="0" y="630" width="30" height="30" fill="#47544c"/><rect x="0" y="660" width="30" height="30" fill="#47544c"/><rect x="0" y="690" width="30" height="30" fill="#47544c"/><rect x="0" y="720" width="30" height="30" fill="#47544c"/><rect x="0" y="750" width="30" height="30" fill="#47544c"/><rect x="0" y="780" width="30" height="30" fill="#47544c"/><rect x="0" y="810" width="30" height="30" fill="#47544c"/><rect x="0" y="840" width="30" height="30" fill="#47544c"/><rect x="0" y="870" width="30" height="30" fill="#47544c"/><rect x="0" y="900" width="30" height="30" fill="#47544c"/><rect x="0" y="930" width="30" height="30" fill="#47544c"/><rect x="0" y="960" width="30" height="30" fill="#47544c"/><rect x="0" y="990" width="30" height="30" fill="#47544c"/><rect x="1890" y="30" width="30" height="30" fill="#47544c"/><rect x="1890" y="60" width="30" height="30" fill="#47544c"/><rect x="1890" y="90" width="30" height="30" fill="#47544c"/><rect x="1890" y="120" width="30" height="30" fill="#47544c"/><rect x="1890" y="150" width="30" height="30" fill="#47544c"/><rect x="1890" y="180" width="30" height="30" fill="#47544c"/><rect x="1890" y="210" width="30" height="30" fill="#47544c"/><rect x="1890" y="240" width="30" height="30" fill="#47544c"/><rect x="1890" y="270" width="30" height="30" fill="#47544c"/><rect x="1890" y="300" width="30" height="30" fill="#47544c"/><rect x="1890" y="330" width="30" height="30" fill="#47544c"/><rect x="1890" y="360" width="30" height="30" fill="#47544c"/><rect x="1890" y="390" width="30" height="30" fill="#47544c"/><rect x="1890" y="420" width="30" height="30" fill="#47544c"/><rect x="1890" y="450" width="30" height="30" fill="#47544c"/><rect x="1890" y="480" width="30" height="30" fill="#47544c"/><rect x="1890" y="510" width="30" height="30" fill="#47544c"/><rect x="1890" y="540" width="30" height="30" fill="#47544c"/><rect x="1890" y="570" width="30" height="30" fill="#47544c"/><rect x="1890" y="600" width="30" height="30" fill="#47544c"/><rect x="1890" y="630" width="30" height="30" fill="#47544c"/><rect x="1890" y="660" width="30" height="30" fill="#47544c"/><rect x="1890" y="690" width="30" height="30" fill="#47544c"/><rect x="1890" y="720" width="30" height="30" fill="#47544c"/><rect x="1890" y="750" width="30" height="30" fill="#47544c"/><rect x="1890" y="780" width="30" height="30" fill="#47544c"/><rect x="1890" y="810" width="30" height="30" fill="#47544c"/><rect x="1890" y="840" width="30" height="30" fill="#47544c"/><rect x="1890" y="870" width="30" height="30" fill="#47544c"/><rect x="1890" y="900" width="30" height="30" fill="#47544c"/><rect x="1890" y="930" width="30" height="30" fill="#47544c"/><rect x="1890" y="960" width="30" height="30" fill="#47544c"/><rect x="1890" y="990" width="30" height="30" fill="#47544c"/><rect x="750" y="660" width="30" height="30" fill="#47544c"/><rect x="750" y="690" width="30" height="30" fill="#47544c"/><rect x="750" y="720" width="30" height="30" fill="#47544c"/><rect x="750" y="750" width="30" height="30" fill="#47544c"/><rect x="750" y="780" width="30" height="30" fill="#47544c"/><rect x="750" y="810" width="30" height="30" fill="#47544c"/><rect x="750" y="840" width="30" height="30" fill="#47544c"/><rect x="750" y="870" width="30" height="30" fill="#47544c"/><rect x="750" y="900" width="30" height="30" fill="#47544c"/><rect x="1140" y="660" width="30" height="30" fill="#47544c"/><rect x="1140" y="690" width="30" height="30" fill="#47544c"/><rect x="1140" y="720" width="30" height="30" fill="#47544c"/><rect x="1140" y="750" width="30" height="30" fill="#47544c"/><rect x="1140" y="780" width="30" height="30" fill="#47544c"/><rect x="1140" y="810" width="30" height="30" fill="#47544c"/><rect x="1140" y="840" width="30" height="30" fill="#47544c"/><rect x="1140" y="870" width="30" height="30" fill="#47544c"/><rect x="1140" y="900" width="30" height="30" fill="#47544c"/><rect x="780" y="660" width="30" height="30" fill="#47544c"/><rect x="810" y="660" width="30" height="30" fill="#47544c"/><rect x="840" y="660" width="30" height="30" fill="#47544c"/><rect x="990" y="660" width="30" height="30" fill="#47544c"/><rect x="1020" y="660" width="30" height="30" fill="#47544c"/><rect x="1050" y="660" width="30" height="30" fill="#47544c"/><rect x="1080" y="660" width="30" height="30" fill="#47544c"/><rect x="1110" y="660" width="30" height="30" fill="#47544c"/><rect x="780" y="900" width="30" height="30" fill="#47544c"/><rect x="810" y="900" width="30" height="30" fill="#47544c"/><rect x="840" y="900" width="30" height="30" fill="#47544c"/><rect x="870" y="900" width="30" height="30" fill="#47544c"/><rect x="900" y="900" width="30" height="30" fill="#47544c"/><rect x="930" y="900" width="30" height="30" fill="#47544c"/><rect x="960" y="900" width="30" height="30" fill="#47544c"/><rect x="990" y="900" width="30" height="30" fill="#47544c"/><rect x="1020" y="900" width="30" height="30" fill="#47544c"/><rect x="1050" y="900" width="30" height="30" fill="#47544c"/><rect x="1080" y="900" width="30" height="30" fill="#47544c"/><rect x="1110" y="900" width="30" height="30" fill="#47544c"/><rect x="810" y="810" width="30" height="30" fill="#47544c"/><rect x="840" y="810" width="30" height="30" fill="#47544c"/><rect x="870" y="810" width="30" height="30" fill="#47544c"/><rect x="900" y="810" width="30" height="30" fill="#47544c"/><rect x="930" y="810" width="30" height="30" fill="#47544c"/><rect x="960" y="810" width="30" height="30" fill="#47544c"/><rect x="990" y="810" width="30" height="30" fill="#47544c"/><rect x="1020" y="810" width="30" height="30" fill="#47544c"/><rect x="1050" y="810" width="30" height="30" fill="#47544c"/><rect x="600" y="930" width="30" height="30" fill="#47544c"/><rect x="630" y="930" width="30" height="30" fill="#47544c"/><rect x="660" y="930" width="30" height="30" fill="#47544c"/><rect x="690" y="930" width="30" height="30" fill="#47544c"/><rect x="720" y="930" width="30" height="30" fill="#47544c"/><rect x="390" y="840" width="30" height="30" fill="#47544c"/><rect x="420" y="840" width="30" height="30" fill="#47544c"/><rect x="450" y="840" width="30" height="30" fill="#47544c"/><rect x="480" y="840" width="30" height="30" fill="#47544c"/><rect x="510" y="840" width="30" height="30" fill="#47544c"/><rect x="540" y="840" width="30" height="30" fill="#47544c"/><rect x="180" y="750" width="30" height="30" fill="#47544c"/><rect x="210" y="750" width="30" height="30" fill="#47544c"/><rect x="240" y="750" width="30" height="30" fill="#47544c"/><rect x="270" y="750" width="30" height="30" fill="#47544c"/><rect x="300" y="750" width="30" height="30" fill="#47544c"/><rect x="330" y="750" width="30" height="30" fill="#47544c"/><rect x="360" y="660" width="30" height="30" fill="#47544c"/><rect x="390" y="660" width="30" height="30" fill="#47544c"/><rect x="420" y="660" width="30" height="30" fill="#47544c"/><rect x="450" y="660" width="30" height="30" fill="#47544c"/><rect x="480" y="660" width="30" height="30" fill="#47544c"/><rect x="510" y="660" width="30" height="30" fill="#47544c"/><rect x="180" y="570" width="30" height="30" fill="#47544c"/><rect x="210" y="570" width="30" height="30" fill="#47544c"/><rect x="240" y="570" width="30" height="30" fill="#47544c"/><rect x="270" y="570" width="30" height="30" fill="#47544c"/><rect x="300" y="570" width="30" height="30" fill="#47544c"/><rect x="330" y="570" width="30" height="30" fill="#47544c"/><rect x="90" y="450" width="30" height="30" fill="#47544c"/><rect x="120" y="450" width="30" height="30" fill="#47544c"/><rect x="150" y="450" width="30" height="30" fill="#47544c"/><rect x="180" y="450" width="30" height="30" fill="#47544c"/><rect x="210" y="450" width="30" height="30" fill="#47544c"/><rect x="240" y="450" width="30" height="30" fill="#47544c"/><rect x="270" y="450" width="30" height="30" fill="#47544c"/><rect x="300" y="450" width="30" height="30" fill="#47544c"/><rect x="1170" y="930" width="30" height="30" fill="#47544c"/><rect x="1200" y="930" width="30" height="30" fill="#47544c"/><rect x="1230" y="930" width="30" height="30" fill="#47544c"/><rect x="1260" y="930" width="30" height="30" fill="#47544c"/><rect x="1290" y="930" width="30" height="30" fill="#47544c"/><rect x="1380" y="840" width="30" height="30" fill="#47544c"/><rect x="1410" y="840" width="30" height="30" fill="#47544c"/><rect x="1440" y="840" width="30" height="30" fill="#47544c"/><rect x="1470" y="840" width="30" height="30" fill="#47544c"/><rect x="1500" y="840" width="30" height="30" fill="#47544c"/><rect x="1530" y="840" width="30" height="30" fill="#47544c"/><rect x="1590" y="750" width="30" height="30" fill="#47544c"/><rect x="1620" y="750" width="30" height="30" fill="#47544c"/><rect x="1650" y="750" width="30" height="30" fill="#47544c"/><rect x="1680" y="750" width="30" height="30" fill="#47544c"/><rect x="1710" y="750" width="30" height="30" fill="#47544c"/><rect x="1740" y="750" width="30" height="30" fill="#47544c"/><rect x="1380" y="660" width="30" height="30" fill="#47544c"/><rect x="1410" y="660" width="30" height="30" fill="#47544c"/><rect x="1440" y="660" width="30" height="30" fill="#47544c"/><rect x="1470" y="660" width="30" height="30" fill="#47544c"/><rect x="1500" y="660" width="30" height="30" fill="#47544c"/><rect x="1530" y="660" width="30" height="30" fill="#47544c"/><rect x="1590" y="570" width="30" height="30" fill="#47544c"/><rect x="1620" y="570" width="30" height="30" fill="#47544c"/><rect x="1650" y="570" width="30" height="30" fill="#47544c"/><rect x="1680" y="570" width="30" height="30" fill="#47544c"/><rect x="1710" y="570" width="30" height="30" fill="#47544c"/><rect x="1740" y="570" width="30" height="30" fill="#47544c"/><rect x="1590" y="450" width="30" height="30" fill="#47544c"/><rect x="1620" y="450" width="30" height="30" fill="#47544c"/><rect x="1650" y="450" width="30" height="30" fill="#47544c"/><rect x="1680" y="450" width="30" height="30" fill="#47544c"/><rect x="1710" y="450" width="30" height="30" fill="#47544c"/><rect x="1740" y="450" width="30" height="30" fill="#47544c"/><rect x="1770" y="450" width="30" height="30" fill="#47544c"/><rect x="1800" y="450" width="30" height="30" fill="#47544c"/><rect x="540" y="540" width="30" height="30" fill="#47544c"/><rect x="570" y="540" width="30" height="30" fill="#47544c"/><rect x="600" y="540" width="30" height="30" fill="#47544c"/><rect x="630" y="540" width="30" height="30" fill="#47544c"/><rect x="660" y="540" width="30" height="30" fill="#47544c"/><rect x="690" y="540" width="30" height="30" fill="#47544c"/><rect x="810" y="540" width="30" height="30" fill="#47544c"/><rect x="840" y="540" width="30" height="30" fill="#47544c"/><rect x="870" y="540" width="30" height="30" fill="#47544c"/><rect x="900" y="540" width="30" height="30" fill="#47544c"/><rect x="930" y="540" width="30" height="30" fill="#47544c"/><rect x="960" y="540" width="30" height="30" fill="#47544c"/><rect x="990" y="540" width="30" height="30" fill="#47544c"/><rect x="1020" y="540" width="30" height="30" fill="#47544c"/><rect x="1050" y="540" width="30" height="30" fill="#47544c"/><rect x="1080" y="540" width="30" height="30" fill="#47544c"/><rect x="1200" y="540" width="30" height="30" fill="#47544c"/><rect x="1230" y="540" width="30" height="30" fill="#47544c"/><rect x="1260" y="540" width="30" height="30" fill="#47544c"/><rect x="1290" y="540" width="30" height="30" fill="#47544c"/><rect x="1320" y="540" width="30" height="30" fill="#47544c"/><rect x="1350" y="540" width="30" height="30" fill="#47544c"/><rect x="870" y="660" width="60" height="30" fill="#c18b47"/><rect x="930" y="660" width="60" height="30" fill="#c18b47"/><path d="M945.0,1006.0 L944.9,1006.1 L902.5,943.1 L836.2,992.9 L770.0,1007.0 L703.7,986.7 L637.5,978.5 L585.9,955.5 L602.6,901.6 L648.6,912.4 L612.6,822.3 L546.4,822.7 L480.1,757.5 L413.9,721.7 L370.6,776.5 L361.5,813.1 L413.2,722.9 L372.5,723.4 L310.8,707.2 L323.6,635.1 L387.8,647.0 L439.4,595.5 L403.5,541.6 L337.2,557.0 L296.2,493.1 L321.3,542.9 L338.4,487.5 L391.9,391.3 L365.7,373.6 L299.9,437.0 L238.2,437.0 L251.0,437.0 L315.2,437.0 L381.5,458.1 L447.7,565.4 L514.0,595.5 L485.8,495.7 L491.1,459.9 L554.1,514.7 L605.9,527.0 L654.3,527.0 L720.4,527.0 L731.0,553.5 L800.5,479.2 L866.8,461.5 L886.3,527.0 L911.8,527.0 L977.6,527.0 L1043.9,527.0 L1110.0,527.0 L1121.9,559.7 L1182.5,485.8 L1244.0,468.1 L1236.1,527.0 L1273.1,527.0 L1339.4,527.0 L1405.6,530.6 L1471.9,601.6 L1538.1,577.5 L1604.4,541.7 L1665.8,527.2 L1645.6,512.1 L1584.9,527.2 L1546.7,423.7 L1530.9,369.8 L1588.7,406.5 L1655.0,437.0 L1706.5,437.0 L1670.6,437.0 L1604.3,437.0 L1538.1,458.1 L1472.0,565.4 L1430.4,647.0 L1391.9,560.6 L1443.5,470.5 L1402.8,471.0 L1336.6,527.0 L1270.3,527.0 L1204.1,527.0 L1137.8,483.4 L1071.6,429.4 L1005.3,466.2 L939.1,527.0 L872.8,527.0 L806.6,527.0 L787.2,567.9 L843.9,647.0 L910.0,659.1 L908.6,751.2 L846.3,797.0 L788.3,802.5 L807.8,879.6 L869.4,887.0 L935.7,882.4 L1001.9,878.5 L1068.2,866.7 L1105.5,817.5 L1057.3,781.7 L991.1,797.0" fill="none" stroke="#227dd1" stroke-width="4" opacity=".7"/><circle cx="225" cy="435" r="20" fill="#fbd479"/><text x="225" y="441" text-anchor="middle" font-size="22">A</text><circle cx="1695" cy="435" r="20" fill="#fbd479"/><text x="1695" y="441" text-anchor="middle" font-size="22">B</text><circle cx="945" cy="885" r="20" fill="#fbd479"/><text x="945" y="891" text-anchor="middle" font-size="22">C</text><rect x="930" y="780" width="30" height="30" fill="#52a571"/></svg>