<svg xmlns="http://www.w3.org/2000/svg" viewBox="0 0 1440 1080" width="480" height="360"><title>Trapdoor thesis: verified Medium route</title><rect width="100%" height="100%" fill="#edf1e7"/><rect x="0" y="1020" width="30" height="30" fill="#47544c"/><rect x="30" y="1020" width="30" height="30" fill="#47544c"/><rect x="60" y="1020" width="30" height="30" fill="#47544c"/><rect x="90" y="1020" width="30" height="30" fill="#47544c"/><rect x="120" y="1020" width="30" height="30" fill="#47544c"/><rect x="150" y="1020" width="30" height="30" fill="#47544c"/><rect x="180" y="1020" width="30" height="30" fill="#47544c"/><rect x="210" y="1020" width="30" height="30" fill="#47544c"/><rect x="240" y="1020" width="30" height="30" fill="#47544c"/><rect x="270" y="1020" width="30" height="30" fill="#47544c"/><rect x="300" y="1020" width="30" height="30" fill="#47544c"/><rect x="330" y="1020" width="30" height="30" fill="#47544c"/><rect x="360" y="1020" width="30" height="30" fill="#47544c"/><rect x="390" y="1020" width="30" height="30" fill="#47544c"/><rect x="420" y="1020" width="30" height="30" fill="#47544c"/><rect x="450" y="1020" width="30" height="30" fill="#47544c"/><rect x="480" y="1020" width="30" height="30" fill="#47544c"/><rect x="510" y="1020" width="30" height="30" fill="#47544c"/><rect x="540" y="1020" width="30" height="30" fill="#47544c"/><rect x="570" y="1020" width="30" height="30" fill="#47544c"/><rect x="600" y="1020" width="30" height="30" fill="#47544c"/><rect x="630" y="1020" width="30" height="30" fill="#47544c"/><rect x="660" y="1020" width="30" height="30" fill="#47544c"/><rect x="690" y="1020" width="30" height="30" fill="#47544c"/><rect x="720" y="1020" width="30" height="30" fill="#47544c"/><rect x="750" y="1020" width="30" height="30" fill="#47544c"/><rect x="780" y="1020" width="30" height="30" fill="#47544c"/><rect x="810" y="1020" width="30" height="30" fill="#47544c"/><rect x="840" y="1020" width="30" height="30" fill="#47544c"/><rect x="870" y="1020" width="30" height="30" fill="#47544c"/><rect x="900" y="1020" width="30" height="30" fill="#47544c"/><rect x="930" y="1020" width="30" height="30" fill="#47544c"/><rect x="960" y="1020" width="30" height="30" fill="#47544c"/><rect x="990" y="1020" width="30" height="30" fill="#47544c"/><rect x="1020" y="1020" width="30" height="30" fill="#47544c"/><rect x="1050" y="1020" width="30" height="30" fill="#47544c"/><rect x="1080" y="1020" width="30" height="30" fill="#47544c"/><rect x="1110" y="1020" width="30" height="30" fill="#47544c"/><rect x="1140" y="1020" width="30" height="30" fill="#47544c"/><rect x="1170" y="1020" width="30" height="30" fill="#47544c"/><rect x="1200" y="1020" width="30" height="30" fill="#47544c"/><rect x="1230" y="1020" width="30" height="30" fill="#47544c"/><rect x="1260" y="1020" width="30" height="30" fill="#47544c"/><rect x="1290" y="1020" width="30" height="30" fill="#47544c"/><rect x="1320" y="1020" width="30" height="30" fill="#47544c"/><rect x="1350" y="1020" width="30" height="30" fill="#47544c"/><rect x="1380" y="1020" width="30" height="30" fill="#47544c"/><rect x="1410" y="1020" width="30" height="30" fill="#47544c"/><rect x="0" y="1050" width="30" height="30" fill="#47544c"/><rect x="30" y="1050" width="30" height="30" fill="#47544c"/><rect x="60" y="1050" width="30" height="30" fill="#47544c"/><rect x="90" y="1050" width="30" height="30" fill="#47544c"/><rect x="120" y="1050" width="30" height="30" fill="#47544c"/><rect x="150" y="1050" width="30" height="30" fill="#47544c"/><rect x="180" y="1050" width="30" height="30" fill="#47544c"/><rect x="210" y="1050" width="30" height="30" fill="#47544c"/><rect x="240" y="1050" width="30" height="30" fill="#47544c"/><rect x="270" y="1050" width="30" height="30" fill="#47544c"/><rect x="300" y="1050" width="30" height="30" fill="#47544c"/><rect x="330" y="1050" width="30" height="30" fill="#47544c"/><rect x="360" y="1050" width="30" height="30" fill="#47544c"/><rect x="390" y="1050" width="30" height="30" fill="#47544c"/><rect x="420" y="1050" width="30" height="30" fill="#47544c"/><rect x="450" y="1050" width="30" height="30" fill="#47544c"/><rect x="480" y="1050" width="30" height="30" fill="#47544c"/><rect x="510" y="1050" width="30" height="30" fill="#47544c"/><rect x="540" y="1050" width="30" height="30" fill="#47544c"/><rect x="570" y="1050" width="30" height="30" fill="#47544c"/><rect x="600" y="1050" width="30" height="30" fill="#47544c"/><rect x="630" y="1050" width="30" height="30" fill="#47544c"/><rect x="660" y="1050" width="30" height="30" fill="#47544c"/><rect x="690" y="1050" width="30" height="30" fill="#47544c"/><rect x="720" y="1050" width="30" height="30" fill="#47544c"/><rect x="750" y="1050" width="30" height="30" fill="#47544c"/><rect x="780" y="1050" width="30" height="30" fill="#47544c"/><rect x="810" y="1050" width="30" height="30" fill="#47544c"/><rect x="840" y="1050" width="30" height="30" fill="#47544c"/><rect x="870" y="1050" width="30" height="30" fill="#47544c"/><rect x="900" y="1050" width="30" height="30" fill="#47544c"/><rect x="930" y="1050" width="30" height="30" fill="#47544c"/><rect x="960" y="1050" width="30" height="30" fill="#47544c"/><rect x="990" y="1050" width="30" height="30" fill="#47544c"/><rect x="1020" y="1050" width="30" height="30" fill="#47544c"/><rect x="1050" y="1050" width="30" height="30" fill="#47544c"/><rect x="1080" y="1050" width="30" height="30" fill="#47544c"/><rect x="1110" y="1050" width="30" height="30" fill="#47544c"/><rect x="1140" y="1050" width="30" height="30" fill="#47544c"/><rect x="1170" y="1050" width="30" height="30" fill="#47544c"/><rect x="1200" y="1050" width="30" height="30" fill="#47544c"/><rect x="1230" y="1050" width="30" height="30" fill="#47544c"/><rect x="1260" y="1050" width="30" height="30" fill="#47544c"/><rect x="1290" y="1050" width="30" height="30" fill="#47544c"/><rect x="1320" y="1050" width="30" height="30" fill="#47544c"/><rect x="1350" y="1050" width="30" height="30" fill="#47544c"/><rect x="1380" y="1050" width="30" height="30" fill="#47544c"/><rect x="1410" y="1050" width="30" height="30" fill="#47544c"/><rect x="0" y="0" width="30" height="30" fill="#47544c"/><rect x="30" y="0" width="30" height="30" fill="#47544c"/><rect x="60" y="0" width="30" height="30" fill="#47544c"/><rect x="90" y="0" width="30" height="30" fill="#47544c"/><rect x="120" y="0" width="30" height="30" fill="#47544c"/><rect x="150" y="0" width="30" height="30" fill="#47544c"/><rect x="180" y="0" width="30" height="30" fill="#47544c"/><rect x="210" y="0" width="30" height="30" fill="#47544c"/><rect x="240" y="0" width="30" height="30" fill="#47544c"/><rect x="270" y="0" width="30" height="30" fill="#47544c"/><rect x="300" y="0" width="30" height="30" fill="#47544c"/><rect x="330" y="0" width="30" height="30" fill="#47544c"/><rect x="360" y="0" width="30" height="30" fill="#47544c"/><rect x="390" y="0" width="30" height="30" fill="#47544c"/><rect x="420" y="0" width="30" height="30" fill="#47544c"/><rect x="450" y="0" width="30" height="30" fill="#47544c"/><rect x="480" y="0" width="30" height="30" fill="#47544c"/><rect x="510" y="0" width="30" height="30" fill="#47544c"/><rect x="540" y="0" width="30" height="30" fill="#47544c"/><rect x="570" y="0" width="30" height="30" fill="#47544c"/><rect x="600" y="0" width="30" height="30" fill="#47544c"/><rect x="630" y="0" width="30" height="30" fill="#47544c"/><rect x="660" y="0" width="30" height="30" fill="#47544c"/><rect x="690" y="0" width="30" height="30" fill="#47544c"/><rect x="720" y="0" width="30" height="30" fill="#47544c"/><rect x="750" y="0" width="30" height="30" fill="#47544c"/><rect x="780" y="0" width="30" height="30" fill="#47544c"/><rect x="810" y="0" width="30" height="30" fill="#47544c"/><rect x="840" y="0" width="30" height="30" fill="#47544c"/><rect x="870" y="0" width="30" height="30" fill="#47544c"/><rect x="900" y="0" width="30" height="30" fill="#47544c"/><rect x="930" y="0" width="30" height="30" fill="#47544c"/><rect x="960" y="0" width="30" height="30" fill="#47544c"/><rect x="990" y="0" width="30" height="30" fill="#47544c"/><rect x="1020" y="0" width="30" height="30" fill="#47544c"/><rect x="1050" y="0" width="30" height="30" fill="#47544c"/><rect x="1080" y="0" width="30" height="30" fill="#47544c"/><rect x="1110" y="0" width="30" height="30" fill="#47544c"/><rect x="1140" y="0" width="30" height="30" fill="#47544c"/><rect x="1170" y="0" width="30" height="30" fill="#47544c"/><rect x="1200" y="0" width="30" height="30" fill="#47544c"/><rect x="1230" y="0" width="30" height="30" fill="#47544c"/><rect x="1260" y="0" width="30" height="30" fill="#47544c"/><rect x="1290" y="0" width="30" height="30" fill="#47544c"/><rect x="1320" y="0" width="30" height="30" fill="#47544c"/><rect x="1350" y="0" width="30" height="30" fill="#47544c"/><rect x="1380" y="0" width="30" height="30" fill="#47544c"/><rect x="1410" y="0" width="30" height="30" fill="#47544c"/><rect x="0" y="30" width="30" height="30" fill="#47544c"/><rect x="0" y="60" width="30" height="30" fill="#47544c"/><rect x="0" y="90" width="30" height="30" fill="#47544c"/><rect x="0" y="120" width="30" height="30" fill="#47544c"/><rect x="0" y="150" width="30" height="30" fill="#47544c"/><rect x="0" y="180" width="30" height="30" fill="#47544c"/><rect x="0" y="210" width="30" height="30" fill="#47544c"/><rect x="0" y="240" width="30" height="30" fill="#47544c"/><rect x="0" y="270" width="30" height="30" fill="#47544c"/><rect x="0" y="300" width="30" height="30" fill="#47544c"/><rect x="0" y="330" width="30" height="30" fill="#47544c"/><rect x="0" y="360" width="30" height="30" fill="#47544c"/><rect x="0" y="390" width="30" height="30" fill="#47544c"/><rect x="0" y="420" width="30" height="30" fill="#47544c"/><rect x="0" y="450" width="30" height="30" fill="#47544c"/><rect x="0" y="480" width="30" height="30" fill="#47544c"/><rect x="0" y="510" width="30" height="30" fill="#47544c"/><rect x="0" y="540" width="30" height="30" fill="#47544c"/><rect x="0" y="570" width="30" height="30" fill="#47544c"/><rect x="0" y="600" width="30" height="30" fill="#47544c"/><rect x="0" y="630" width="30" height="30" fill="#47544c"/><rect x="0" y="660" width="30" height="30" fill="#47544c"/><rect x="0" y="690" width="30" height="30" fill="#47544c"/><rect x="0" y="720" width="30" height="30" fill="#47544c"/><rect x="0" y="750" width="30" height="30" fill="#47544c"/><rect x="0" y="780" width="30" height="30" fill="#47544c"/><rect x="0" y="810" width="30" height="30" fill="#47544c"/><rect x="0" y="840" width="30" height="30" fill="#47544c"/><rect x="0" y="870" width="30" height="30" fill="#47544c"/><rect x="0" y="900" width="30" height="30" fill="#47544c"/><rect x="0" y="930" width="30" height="30" fill="#47544c"/><rect x="0" y="960" width="30" height="30" fill="#47544c"/><rect x="0" y="990" width="30" height="30" fill="#47544c"/><rect x="1410" y="30" width="30" height="30" fill="#47544c"/><rect x="1410" y="60" width="30" height="30" fill="#47544c"/><rect x="1410" y="90" width="30" height="30" fill="#47544c"/><rect x="1410" y="120" width="30" height="30" fill="#47544c"/><rect x="1410" y="150" width="30" height="30" fill="#47544c"/><rect x="1410" y="180" width="30" height="30" fill="#47544c"/><rect x="1410" y="210" width="30" height="30" fill="#47544c"/><rect x="1410" y="240" width="30" height="30" fill="#47544c"/><rect x="1410" y="270" width="30" height="30" fill="#47544c"/><rect x="1410" y="300" width="30" height="30" fill="#47544c"/><rect x="1410" y="330" width="30" height="30" fill="#47544c"/><rect x="1410" y="360" width="30" height="30" fill="#47544c"/><rect x="1410" y="390" width="30" height="30" fill="#47544c"/><rect x="1410" y="420" width="30" height="30" fill="#47544c"/><rect x="1410" y="450" width="30" height="30" fill="#47544c"/><rect x="1410" y="480" width="30" height="30" fill="#47544c"/><rect x="1410" y="510" width="30" height="30" fill="#47544c"/><rect x="1410" y="540" width="30" height="30" fill="#47544c"/><rect x="1410" y="570" width="30" height="30" fill="#47544c"/><rect x="1410" y="600" width="30" height="30" fill="#47544c"/><rect x="1410" y="630" width="30" height="30" fill="#47544c"/><rect x="1410" y="660" width="30" height="30" fill="#47544c"/><rect x="1410" y="690" width="30" height="30" fill="#47544c"/><rect x="1410" y="720" width="30" height="30" fill="#47544c"/><rect x="1410" y="750" width="30" height="30" fill="#47544c"/><rect x="1410" y="780" width="30" height="30" fill="#47544c"/><rect x="1410" y="810" width="30" height="30" fill="#47544c"/><rect x="1410" y="840" width="30" height="30" fill="#47544c"/><rect x="1410" y="870" width="30" height="30" fill="#47544c"/><rect x="1410" y="900" width="30" height="30" fill="#47544c"/><rect x="1410" y="930" width="30" height="30" fill="#47544c"/><rect x="1410" y="960" width="30" height="30" fill="#47544c"/><rect x="1410" y="990" width="30" height="30" fill="#47544c"/><rect x="570" y="270" width="30" height="30" fill="#47544c"/><rect x="570" y="300" width="30" height="30" fill="#47544c"/><rect x="570" y="330" width="30" height="30" fill="#47544c"/><rect x="570" y="360" width="30" height="30" fill="#47544c"/><rect x="570" y="390" width="30" height="30" fill="#47544c"/><rect x="570" y="420" width="30" height="30" fill="#47544c"/><rect x="570" y="450" width="30" height="30" fill="#47544c"/><rect x="570" y="480" width="30" height="30" fill="#47544c"/><rect x="570" y="510" width="30" height="30" fill="#47544c"/><rect x="570" y="540" width="30" height="30" fill="#47544c"/><rect x="570" y="570" width="30" height="30" fill="#47544c"/><rect x="570" y="600" width="30" height="30" fill="#47544c"/><rect x="570" y="630" width="30" height="30" fill="#47544c"/><rect x="570" y="660" width="30" height="30" fill="#47544c"/><rect x="570" y="690" width="30" height="30" fill="#47544c"/><rect x="570" y="720" width="30" height="30" fill="#47544c"/><rect x="570" y="750" width="30" height="30" fill="#47544c"/><rect x="570" y="780" width="30" height="30" fill="#47544c"/><rect x="570" y="810" width="30" height="30" fill="#47544c"/><rect x="570" y="840" width="30" height="30" fill="#47544c"/><rect x="780" y="270" width="30" height="30" fill="#47544c"/><rect x="780" y="300" width="30" height="30" fill="#47544c"/><rect x="780" y="330" width="30" height="30" fill="#47544c"/><rect x="780" y="360" width="30" height="30" fill="#47544c"/><rect x="780" y="390" width="30" height="30" fill="#47544c"/><rect x="780" y="420" width="30" height="30" fill="#47544c"/><rect x="780" y="450" width="30" height="30" fill="#47544c"/><rect x="780" y="480" width="30" height="30" fill="#47544c"/><rect x="780" y="510" width="30" height="30" fill="#47544c"/><rect x="780" y="540" width="30" height="30" fill="#47544c"/><rect x="780" y="570" width="30" height="30" fill="#47544c"/><rect x="780" y="600" width="30" height="30" fill="#47544c"/><rect x="780" y="630" width="30" height="30" fill="#47544c"/><rect x="780" y="660" width="30" height="30" fill="#47544c"/><rect x="780" y="690" width="30" height="30" fill="#47544c"/><rect x="780" y="720" width="30" height="30" fill="#47544c"/><rect x="780" y="750" width="30" height="30" fill="#47544c"/><rect x="360" y="300" width="30" height="30" fill="#47544c"/><rect x="390" y="300" width="30" height="30" fill="#47544c"/><rect x="420" y="300" width="30" height="30" fill="#47544c"/><rect x="450" y="300" width="30" height="30" fill="#47544c"/><rect x="480" y="300" width="30" height="30" fill="#47544c"/><rect x="510" y="300" width="30" height="30" fill="#47544c"/><rect x="540" y="300" width="30" height="30" fill="#47544c"/><rect x="810" y="300" width="30" height="30" fill="#47544c"/><rect x="840" y="300" width="30" height="30" fill="#47544c"/><rect x="870" y="300" width="30" height="30" fill="#47544c"/><rect x="900" y="300" width="30" height="30" fill="#47544c"/><rect x="930" y="300" width="30" height="30" fill="#47544c"/><rect x="960" y="300" width="30" height="30" fill="#47544c"/><rect x="990" y="300" width="30" height="30" fill="#47544c"/><rect x="600" y="870" width="30" height="30" fill="#47544c"/><rect x="630" y="870" width="30" height="30" fill="#47544c"/><rect x="660" y="870" width="30" height="30" fill="#47544c"/><rect x="690" y="870" width="30" height="30" fill="#47544c"/><rect x="720" y="870" width="30" height="30" fill="#47544c"/><rect x="750" y="870" width="30" height="30" fill="#47544c"/><rect x="900" y="840" width="30" height="30" fill="#47544c"/><rect x="930" y="840" width="30" height="30" fill="#47544c"/><rect x="960" y="840" width="30" height="30" fill="#47544c"/><rect x="990" y="840" width="30" height="30" fill="#47544c"/><rect x="1020" y="840" width="30" height="30" fill="#47544c"/><rect x="1050" y="840" width="30" height="30" fill="#47544c"/><rect x="1110" y="750" width="30" height="30" fill="#47544c"/><rect x="1140" y="750" width="30" height="30" fill="#47544c"/><rect x="1170" y="750" width="30" height="30" fill="#47544c"/><rect x="1200" y="750" width="30" height="30" fill="#47544c"/><rect x="1230" y="750" width="30" height="30" fill="#47544c"/><rect x="1260" y="750" width="30" height="30" fill="#47544c"/><rect x="930" y="660" width="30" height="30" fill="#47544c"/><rect x="960" y="660" width="30" height="30" fill="#47544c"/><rect x="990" y="660" width="30" height="30" fill="#47544c"/><rect x="1020" y="660" width="30" height="30" fill="#47544c"/><rect x="1050" y="660" width="30" height="30" fill="#47544c"/><rect x="1080" y="660" width="30" height="30" fill="#47544c"/><rect x="1110" y="570" width="30" height="30" fill="#47544c"/><rect x="1140" y="570" width="30" height="30" fill="#47544c"/><rect x="1170" y="570" width="30" height="30" fill="#47544c"/><rect x="1200" y="570" width="30" height="30" fill="#47544c"/><rect x="1230" y="570" width="30" height="30" fill="#47544c"/><rect x="1260" y="570" width="30" height="30" fill="#47544c"/><rect x="1290" y="570" width="30" height="30" fill="#47544c"/><rect x="1320" y="570" width="30" height="30" fill="#47544c"/><rect x="930" y="930" width="30" height="30" fill="#47544c"/><rect x="960" y="930" width="30" height="30" fill="#47544c"/><rect x="990" y="930" width="30" height="30" fill="#47544c"/><rect x="1020" y="930" width="30" height="30" fill="#47544c"/><rect x="1050" y="930" width="30" height="30" fill="#47544c"/><rect x="1080" y="930" width="30" height="30" fill="#47544c"/><rect x="990" y="990" width="30" height="30" fill="#c95849"/><rect x="1020" y="990" width="30" height="30" fill="#c95849"/><rect x="1050" y="990" width="30" height="30" fill="#c95849"/><rect x="780" y="780" width="30" height="90" fill="#c18b47"/><path d="M675.0,256.0 L675.0,256.1 L675.0,287.0 L675.0,287.0 L675.0,287.0 L675.0,287.0 L675.0,287.0 L675.0,287.0 L675.0,333.8 L675.0,467.0 L675.0,467.0 L675.0,467.0 L675.0,467.0 L675.0,467.0 L675.0,513.8 L675.0,647.0 L675.0,647.0 L675.0,647.0 L675.0,647.0 L684.2,679.7 L712.1,802.1 L719.7,857.0 L782.7,857.0 L848.9,773.7 L915.2,756.0 L966.8,827.0 L967.3,757.5 L1025.9,721.7 L1061.0,776.5 L1102.0,775.5 L1112.6,721.6 L1173.1,732.4 L1171.7,642.3 L1109.4,642.7 L1047.8,617.2 L1060.5,545.1 L1124.7,557.0 L1191.0,557.0 L1257.2,557.0 L1323.5,557.0 L1363.3,566.2 L1356.0,652.3 L1296.5,829.0 L1230.3,1002.4 L1164.0,912.3 L1097.8,912.7 L1031.5,917.0 L965.3,917.0 L899.0,923.6 L832.8,1003.7 L766.5,1007.0 L700.3,1007.0 L634.0,1007.0 L567.8,1007.0 L501.5,1007.0 L435.3,1007.0 L369.0,1007.0 L302.8,1007.0 L236.5,1007.0" fill="none" stroke="#227dd1" stroke-width="4" opacity=".7"/><circle cx="705" cy="855" r="20" fill="#fbd479"/><text x="705" y="861" text-anchor="middle" font-size="22">A</text><circle cx="1215" cy="555" r="20" fill="#fbd479"/><text x="1215" y="561" text-anchor="middle" font-size="22">B</text><rect x="150" y="990" width="30" height="30" fill="#52a571"/></svg>