<svg xmlns="http://www.w3.org/2000/svg" viewBox="0 0 1440 1200" width="480" height="400"><title>Moving blind spot: verified Medium route</title><rect width="100%" height="100%" fill="#edf1e7"/><rect x="0" y="1140" width="30" height="30" fill="#47544c"/><rect x="30" y="1140" width="30" height="30" fill="#47544c"/><rect x="60" y="1140" width="30" height="30" fill="#47544c"/><rect x="90" y="1140" width="30" height="30" fill="#47544c"/><rect x="120" y="1140" width="30" height="30" fill="#47544c"/><rect x="150" y="1140" width="30" height="30" fill="#47544c"/><rect x="180" y="1140" width="30" height="30" fill="#47544c"/><rect x="210" y="1140" width="30" height="30" fill="#47544c"/><rect x="240" y="1140" width="30" height="30" fill="#47544c"/><rect x="270" y="1140" width="30" height="30" fill="#47544c"/><rect x="300" y="1140" width="30" height="30" fill="#47544c"/><rect x="330" y="1140" width="30" height="30" fill="#47544c"/><rect x="360" y="1140" width="30" height="30" fill="#47544c"/><rect x="390" y="1140" width="30" height="30" fill="#47544c"/><rect x="420" y="1140" width="30" height="30" fill="#47544c"/><rect x="450" y="1140" width="30" height="30" fill="#47544c"/><rect x="480" y="1140" width="30" height="30" fill="#47544c"/><rect x="510" y="1140" width="30" height="30" fill="#47544c"/><rect x="540" y="1140" width="30" height="30" fill="#47544c"/><rect x="570" y="1140" width="30" height="30" fill="#47544c"/><rect x="600" y="1140" width="30" height="30" fill="#47544c"/><rect x="630" y="1140" width="30" height="30" fill="#47544c"/><rect x="660" y="1140" width="30" height="30" fill="#47544c"/><rect x="690" y="1140" width="30" height="30" fill="#47544c"/><rect x="720" y="1140" width="30" height="30" fill="#47544c"/><rect x="750" y="1140" width="30" height="30" fill="#47544c"/><rect x="780" y="1140" width="30" height="30" fill="#47544c"/><rect x="810" y="1140" width="30" height="30" fill="#47544c"/><rect x="840" y="1140" width="30" height="30" fill="#47544c"/><rect x="870" y="1140" width="30" height="30" fill="#47544c"/><rect x="900" y="1140" width="30" height="30" fill="#47544c"/><rect x="930" y="1140" width="30" height="30" fill="#47544c"/><rect x="960" y="1140" width="30" height="30" fill="#47544c"/><rect x="990" y="1140" width="30" height="30" fill="#47544c"/><rect x="1020" y="1140" width="30" height="30" fill="#47544c"/><rect x="1050" y="1140" width="30" height="30" fill="#47544c"/><rect x="1080" y="1140" width="30" height="30" fill="#47544c"/><rect x="1110" y="1140" width="30" height="30" fill="#47544c"/><rect x="1140" y="1140" width="30" height="30" fill="#47544c"/><rect x="1170" y="1140" width="30" height="30" fill="#47544c"/><rect x="1200" y="1140" width="30" height="30" fill="#47544c"/><rect x="1230" y="1140" width="30" height="30" fill="#47544c"/><rect x="1260" y="1140" width="30" height="30" fill="#47544c"/><rect x="1290" y="1140" width="30" height="30" fill="#47544c"/><rect x="1320" y="1140" width="30" height="30" fill="#47544c"/><rect x="1350" y="1140" width="30" height="30" fill="#47544c"/><rect x="1380" y="1140" width="30" height="30" fill="#47544c"/><rect x="1410" y="1140" width="30" height="30" fill="#47544c"/><rect x="0" y="1170" width="30" height="30" fill="#47544c"/><rect x="30" y="1170" width="30" height="30" fill="#47544c"/><rect x="60" y="1170" width="30" height="30" fill="#47544c"/><rect x="90" y="1170" width="30" height="30" fill="#47544c"/><rect x="120" y="1170" width="30" height="30" fill="#47544c"/><rect x="150" y="1170" width="30" height="30" fill="#47544c"/><rect x="180" y="1170" width="30" height="30" fill="#47544c"/><rect x="210" y="1170" width="30" height="30" fill="#47544c"/><rect x="240" y="1170" width="30" height="30" fill="#47544c"/><rect x="270" y="1170" width="30" height="30" fill="#47544c"/><rect x="300" y="1170" width="30" height="30" fill="#47544c"/><rect x="330" y="1170" width="30" height="30" fill="#47544c"/><rect x="360" y="1170" width="30" height="30" fill="#47544c"/><rect x="390" y="1170" width="30" height="30" fill="#47544c"/><rect x="420" y="1170" width="30" height="30" fill="#47544c"/><rect x="450" y="1170" width="30" height="30" fill="#47544c"/><rect x="480" y="1170" width="30" height="30" fill="#47544c"/><rect x="510" y="1170" width="30" height="30" fill="#47544c"/><rect x="540" y="1170" width="30" height="30" fill="#47544c"/><rect x="570" y="1170" width="30" height="30" fill="#47544c"/><rect x="600" y="1170" width="30" height="30" fill="#47544c"/><rect x="630" y="1170" width="30" height="30" fill="#47544c"/><rect x="660" y="1170" width="30" height="30" fill="#47544c"/><rect x="690" y="1170" width="30" height="30" fill="#47544c"/><rect x="720" y="1170" width="30" height="30" fill="#47544c"/><rect x="750" y="1170" width="30" height="30" fill="#47544c"/><rect x="780" y="1170" width="30" height="30" fill="#47544c"/><rect x="810" y="1170" width="30" height="30" fill="#47544c"/><rect x="840" y="1170" width="30" height="30" fill="#47544c"/><rect x="870" y="1170" width="30" height="30" fill="#47544c"/><rect x="900" y="1170" width="30" height="30" fill="#47544c"/><rect x="930" y="1170" width="30" height="30" fill="#47544c"/><rect x="960" y="1170" width="30" height="30" fill="#47544c"/><rect x="990" y="1170" width="30" height="30" fill="#47544c"/><rect x="1020" y="1170" width="30" height="30" fill="#47544c"/><rect x="1050" y="1170" width="30" height="30" fill="#47544c"/><rect x="1080" y="1170" width="30" height="30" fill="#47544c"/><rect x="1110" y="1170" width="30" height="30" fill="#47544c"/><rect x="1140" y="1170" width="30" height="30" fill="#47544c"/><rect x="1170" y="1170" width="30" height="30" fill="#47544c"/><rect x="1200" y="1170" width="30" height="30" fill="#47544c"/><rect x="1230" y="1170" width="30" height="30" fill="#47544c"/><rect x="1260" y="1170" width="30" height="30" fill="#47544c"/><rect x="1290" y="1170" width="30" height="30" fill="#47544c"/><rect x="1320" y="1170" width="30" height="30" fill="#47544c"/><rect x="1350" y="1170" width="30" height="30" fill="#47544c"/><rect x="1380" y="1170" width="30" height="30" fill="#47544c"/><rect x="1410" y="1170" width="30" height="30" fill="#47544c"/><rect x="0" y="0" width="30" height="30" fill="#47544c"/><rect x="30" y="0" width="30" height="30" fill="#47544c"/><rect x="60" y="0" width="30" height="30" fill="#47544c"/><rect x="90" y="0" width="30" height="30" fill="#47544c"/><rect x="120" y="0" width="30" height="30" fill="#47544c"/><rect x="150" y="0" width="30" height="30" fill="#47544c"/><rect x="180" y="0" width="30" height="30" fill="#47544c"/><rect x="210" y="0" width="30" height="30" fill="#47544c"/><rect x="240" y="0" width="30" height="30" fill="#47544c"/><rect x="270" y="0" width="30" height="30" fill="#47544c"/><rect x="300" y="0" width="30" height="30" fill="#47544c"/><rect x="330" y="0" width="30" height="30" fill="#47544c"/><rect x="360" y="0" width="30" height="30" fill="#47544c"/><rect x="390" y="0" width="30" height="30" fill="#47544c"/><rect x="420" y="0" width="30" height="30" fill="#47544c"/><rect x="450" y="0" width="30" height="30" fill="#47544c"/><rect x="480" y="0" width="30" height="30" fill="#47544c"/><rect x="510" y="0" width="30" height="30" fill="#47544c"/><rect x="540" y="0" width="30" height="30" fill="#47544c"/><rect x="570" y="0" width="30" height="30" fill="#47544c"/><rect x="600" y="0" width="30" height="30" fill="#47544c"/><rect x="630" y="0" width="30" height="30" fill="#47544c"/><rect x="660" y="0" width="30" height="30" fill="#47544c"/><rect x="690" y="0" width="30" height="30" fill="#47544c"/><rect x="720" y="0" width="30" height="30" fill="#47544c"/><rect x="750" y="0" width="30" height="30" fill="#47544c"/><rect x="780" y="0" width="30" height="30" fill="#47544c"/><rect x="810" y="0" width="30" height="30" fill="#47544c"/><rect x="840" y="0" width="30" height="30" fill="#47544c"/><rect x="870" y="0" width="30" height="30" fill="#47544c"/><rect x="900" y="0" width="30" height="30" fill="#47544c"/><rect x="930" y="0" width="30" height="30" fill="#47544c"/><rect x="960" y="0" width="30" height="30" fill="#47544c"/><rect x="990" y="0" width="30" height="30" fill="#47544c"/><rect x="1020" y="0" width="30" height="30" fill="#47544c"/><rect x="1050" y="0" width="30" height="30" fill="#47544c"/><rect x="1080" y="0" width="30" height="30" fill="#47544c"/><rect x="1110" y="0" width="30" height="30" fill="#47544c"/><rect x="1140" y="0" width="30" height="30" fill="#47544c"/><rect x="1170" y="0" width="30" height="30" fill="#47544c"/><rect x="1200" y="0" width="30" height="30" fill="#47544c"/><rect x="1230" y="0" width="30" height="30" fill="#47544c"/><rect x="1260" y="0" width="30" height="30" fill="#47544c"/><rect x="1290" y="0" width="30" height="30" fill="#47544c"/><rect x="1320" y="0" width="30" height="30" fill="#47544c"/><rect x="1350" y="0" width="30" height="30" fill="#47544c"/><rect x="1380" y="0" width="30" height="30" fill="#47544c"/><rect x="1410" y="0" width="30" height="30" fill="#47544c"/><rect x="0" y="30" width="30" height="30" fill="#47544c"/><rect x="0" y="60" width="30" height="30" fill="#47544c"/><rect x="0" y="90" width="30" height="30" fill="#47544c"/><rect x="0" y="120" width="30" height="30" fill="#47544c"/><rect x="0" y="150" width="30" height="30" fill="#47544c"/><rect x="0" y="180" width="30" height="30" fill="#47544c"/><rect x="0" y="210" width="30" height="30" fill="#47544c"/><rect x="0" y="240" width="30" height="30" fill="#47544c"/><rect x="0" y="270" width="30" height="30" fill="#47544c"/><rect x="0" y="300" width="30" height="30" fill="#47544c"/><rect x="0" y="330" width="30" height="30" fill="#47544c"/><rect x="0" y="360" width="30" height="30" fill="#47544c"/><rect x="0" y="390" width="30" height="30" fill="#47544c"/><rect x="0" y="420" width="30" height="30" fill="#47544c"/><rect x="0" y="450" width="30" height="30" fill="#47544c"/><rect x="0" y="480" width="30" height="30" fill="#47544c"/><rect x="0" y="510" width="30" height="30" fill="#47544c"/><rect x="0" y="540" width="30" height="30" fill="#47544c"/><rect x="0" y="570" width="30" height="30" fill="#47544c"/><rect x="0" y="600" width="30" height="30" fill="#47544c"/><rect x="0" y="630" width="30" height="30" fill="#47544c"/><rect x="0" y="660" width="30" height="30" fill="#47544c"/><rect x="0" y="690" width="30" height="30" fill="#47544c"/><rect x="0" y="720" width="30" height="30" fill="#47544c"/><rect x="0" y="750" width="30" height="30" fill="#47544c"/><rect x="0" y="780" width="30" height="30" fill="#47544c"/><rect x="0" y="810" width="30" height="30" fill="#47544c"/><rect x="0" y="840" width="30" height="30" fill="#47544c"/><rect x="0" y="870" width="30" height="30" fill="#47544c"/><rect x="0" y="900" width="30" height="30" fill="#47544c"/><rect x="0" y="930" width="30" height="30" fill="#47544c"/><rect x="0" y="960" width="30" height="30" fill="#47544c"/><rect x="0" y="990" width="30" height="30" fill="#47544c"/><rect x="0" y="1020" width="30" height="30" fill="#47544c"/><rect x="0" y="1050" width="30" height="30" fill="#47544c"/><rect x="0" y="1080" width="30" height="30" fill="#47544c"/><rect x="0" y="1110" width="30" height="30" fill="#47544c"/><rect x="1410" y="30" width="30" height="30" fill="#47544c"/><rect x="1410" y="60" width="30" height="30" fill="#47544c"/><rect x="1410" y="90" width="30" height="30" fill="#47544c"/><rect x="1410" y="120" width="30" height="30" fill="#47544c"/><rect x="1410" y="150" width="30" height="30" fill="#47544c"/><rect x="1410" y="180" width="30" height="30" fill="#47544c"/><rect x="1410" y="210" width="30" height="30" fill="#47544c"/><rect x="1410" y="240" width="30" height="30" fill="#47544c"/><rect x="1410" y="270" width="30" height="30" fill="#47544c"/><rect x="1410" y="300" width="30" height="30" fill="#47544c"/><rect x="1410" y="330" width="30" height="30" fill="#47544c"/><rect x="1410" y="360" width="30" height="30" fill="#47544c"/><rect x="1410" y="390" width="30" height="30" fill="#47544c"/><rect x="1410" y="420" width="30" height="30" fill="#47544c"/><rect x="1410" y="450" width="30" height="30" fill="#47544c"/><rect x="1410" y="480" width="30" height="30" fill="#47544c"/><rect x="1410" y="510" width="30" height="30" fill="#47544c"/><rect x="1410" y="540" width="30" height="30" fill="#47544c"/><rect x="1410" y="570" width="30" height="30" fill="#47544c"/><rect x="1410" y="600" width="30" height="30" fill="#47544c"/><rect x="1410" y="630" width="30" height="30" fill="#47544c"/><rect x="1410" y="660" width="30" height="30" fill="#47544c"/><rect x="1410" y="690" width="30" height="30" fill="#47544c"/><rect x="1410" y="720" width="30" height="30" fill="#47544c"/><rect x="1410" y="750" width="30" height="30" fill="#47544c"/><rect x="1410" y="780" width="30" height="30" fill="#47544c"/><rect x="1410" y="810" width="30" height="30" fill="#47544c"/><rect x="1410" y="840" width="30" height="30" fill="#47544c"/><rect x="1410" y="870" width="30" height="30" fill="#47544c"/><rect x="1410" y="900" width="30" height="30" fill="#47544c"/><rect x="1410" y="930" width="30" height="30" fill="#47544c"/><rect x="1410" y="960" width="30" height="30" fill="#47544c"/><rect x="1410" y="990" width="30" height="30" fill="#47544c"/><rect x="1410" y="1020" width="30" height="30" fill="#47544c"/><rect x="1410" y="1050" width="30" height="30" fill="#47544c"/><rect x="1410" y="1080" width="30" height="30" fill="#47544c"/><rect x="1410" y="1110" width="30" height="30" fill="#47544c"/><rect x="180" y="1050" width="30" height="30" fill="#47544c"/><rect x="210" y="1050" width="30" height="30" fill="#47544c"/><rect x="240" y="1050" width="30" height="30" fill="#47544c"/><rect x="270" y="1050" width="30" height="30" fill="#47544c"/><rect x="300" y="1050" width="30" height="30" fill="#47544c"/><rect x="330" y="1050" width="30" height="30" fill="#47544c"/><rect x="360" y="1050" width="30" height="30" fill="#47544c"/><rect x="300" y="300" width="30" height="30" fill="#47544c"/><rect x="330" y="300" width="30" height="30" fill="#47544c"/><rect x="360" y="300" width="30" height="30" fill="#47544c"/><rect x="390" y="300" width="30" height="30" fill="#47544c"/><rect x="420" y="300" width="30" height="30" fill="#47544c"/><rect x="450" y="300" width="30" height="30" fill="#47544c"/><rect x="480" y="300" width="30" height="30" fill="#47544c"/><rect x="810" y="30" width="30" height="30" fill="#47544c"/><rect x="810" y="60" width="30" height="30" fill="#47544c"/><rect x="810" y="90" width="30" height="30" fill="#47544c"/><rect x="810" y="120" width="30" height="30" fill="#47544c"/><rect x="810" y="150" width="30" height="30" fill="#47544c"/><rect x="810" y="180" width="30" height="30" fill="#47544c"/><rect x="810" y="210" width="30" height="30" fill="#47544c"/><rect x="810" y="240" width="30" height="30" fill="#47544c"/><rect x="810" y="270" width="30" height="30" fill="#47544c"/><rect x="810" y="480" width="30" height="30" fill="#47544c"/><rect x="810" y="510" width="30" height="30" fill="#47544c"/><rect x="810" y="540" width="30" height="30" fill="#47544c"/><rect x="810" y="570" width="30" height="30" fill="#47544c"/><rect x="810" y="600" width="30" height="30" fill="#47544c"/><rect x="810" y="630" width="30" height="30" fill="#47544c"/><rect x="810" y="660" width="30" height="30" fill="#47544c"/><rect x="810" y="690" width="30" height="30" fill="#47544c"/><rect x="810" y="720" width="30" height="30" fill="#47544c"/><rect x="810" y="750" width="30" height="30" fill="#47544c"/><rect x="810" y="780" width="30" height="30" fill="#47544c"/><rect x="810" y="810" width="30" height="30" fill="#47544c"/><rect x="810" y="840" width="30" height="30" fill="#47544c"/><rect x="810" y="870" width="30" height="30" fill="#47544c"/><rect x="810" y="900" width="30" height="30" fill="#47544c"/><rect x="810" y="930" width="30" height="30" fill="#47544c"/><rect x="900" y="450" width="30" height="30" fill="#47544c"/><rect x="930" y="450" width="30" height="30" fill="#47544c"/><rect x="960" y="450" width="30" height="30" fill="#47544c"/><rect x="990" y="450" width="30" height="30" fill="#47544c"/><rect x="1020" y="450" width="30" height="30" fill="#47544c"/><rect x="1050" y="450" width="30" height="30" fill="#47544c"/><rect x="1110" y="600" width="30" height="30" fill="#47544c"/><rect x="1140" y="600" width="30" height="30" fill="#47544c"/><rect x="1170" y="600" width="30" height="30" fill="#47544c"/><rect x="1200" y="600" width="30" height="30" fill="#47544c"/><rect x="1230" y="600" width="30" height="30" fill="#47544c"/><rect x="1260" y="600" width="30" height="30" fill="#47544c"/><rect x="1290" y="600" width="30" height="30" fill="#47544c"/><rect x="1050" y="750" width="30" height="30" fill="#47544c"/><rect x="1080" y="750" width="30" height="30" fill="#47544c"/><rect x="1110" y="750" width="30" height="30" fill="#47544c"/><rect x="1140" y="750" width="30" height="30" fill="#47544c"/><rect x="1170" y="750" width="30" height="30" fill="#47544c"/><rect x="1200" y="750" width="30" height="30" fill="#47544c"/><rect x="1230" y="750" width="30" height="30" fill="#47544c"/><rect x="1260" y="750" width="30" height="30" fill="#47544c"/><rect x="1290" y="750" width="30" height="30" fill="#47544c"/><rect x="1320" y="750" width="30" height="30" fill="#47544c"/><rect x="840" y="990" width="30" height="30" fill="#47544c"/><rect x="870" y="990" width="30" height="30" fill="#47544c"/><rect x="900" y="990" width="30" height="30" fill="#47544c"/><rect x="930" y="990" width="30" height="30" fill="#47544c"/><rect x="960" y="990" width="30" height="30" fill="#47544c"/><rect x="990" y="990" width="30" height="30" fill="#47544c"/><rect x="1020" y="990" width="30" height="30" fill="#47544c"/><rect x="420" y="870" width="30" height="30" fill="#47544c"/><rect x="450" y="870" width="30" height="30" fill="#47544c"/><rect x="480" y="870" width="30" height="30" fill="#47544c"/><rect x="510" y="870" width="30" height="30" fill="#47544c"/><rect x="540" y="870" width="30" height="30" fill="#47544c"/><rect x="810" y="300" width="30" height="180" fill="#c18b47"/><rect x="810" y="960" width="30" height="180" fill="#c18b47"/><path d="M165.0,1126.0 L165.0,1126.1 L172.0,1057.5 L192.0,1021.7 L256.5,1037.0 L322.7,1037.0 L389.0,1037.0 L455.2,1072.3 L495.1,1127.0 L496.9,1127.0 L497.0,1127.0 L497.0,1127.0 L497.0,1127.0 L497.0,1127.0 L497.0,1127.0 L497.0,1127.0 L497.0,1127.0 L497.0,1127.0 L497.0,1127.0 L497.0,1127.0 L497.0,1127.0 L497.0,1127.0 L497.0,1127.0 L497.0,1127.0 L497.0,1127.0 L497.0,1127.0 L497.0,1127.0 L497.0,1127.0 L497.0,1127.0 L497.0,1127.0 L497.0,1127.0 L497.0,1127.0 L497.0,1127.0 L497.0,1127.0 L497.0,1127.0 L497.0,1127.0 L497.0,1127.0 L497.0,1127.0 L497.0,1127.0 L497.0,1127.0 L497.0,1127.0 L497.0,1127.0 L497.0,1127.0 L497.0,1127.0 L497.0,1127.0 L497.0,1127.0 L497.0,1127.0 L497.0,1127.0 L497.0,1127.0 L497.1,1122.4 L539.5,1032.3 L605.6,1032.7 L620.4,1037.0 L621.0,1037.0 L621.0,1027.9 L621.0,988.8 L621.0,949.8 L621.0,910.7 L621.0,871.6 L621.0,832.6 L621.0,793.5 L621.0,754.4 L621.0,715.4 L621.0,676.3 L621.0,637.3 L621.0,598.2 L621.0,559.1 L621.0,520.1 L621.0,481.0 L621.0,441.9 L621.0,402.9 L621.0,363.8 L621.0,324.8 L611.8,287.0 L552.0,265.0 L485.8,193.0 L419.5,211.6 L400.1,287.0 L456.9,287.0 L523.1,287.6 L589.4,343.5 L616.8,413.3 L617.8,452.4 L617.9,491.4 L617.9,530.5 L617.9,569.6 L617.9,608.6 L617.9,647.7 L617.9,686.7 L617.9,725.8 L617.9,764.9 L617.9,803.9 L617.9,843.0 L617.9,882.1 L617.9,921.1 L617.9,960.2 L617.9,999.2 L617.9,1037.0 L617.9,1037.0 L617.9,1037.0 L617.9,1037.0 L617.9,1037.0 L617.9,1027.9 L617.9,988.8 L617.9,949.8 L617.9,910.7 L617.9,871.6 L617.9,832.6 L617.9,793.5 L617.9,754.4 L617.9,715.4 L617.9,676.3 L617.9,637.3 L617.9,598.2 L617.9,559.1 L617.9,520.1 L617.9,481.0 L617.9,441.9 L617.9,402.9 L617.9,363.8 L617.9,324.8 L627.1,287.0 L686.9,287.0 L753.2,294.9 L819.4,377.9 L850.8,471.5 L899.3,413.5 L965.3,377.8 L963.9,432.6 L954.3,437.0 L1013.4,437.0 L1079.7,437.0 L1145.9,475.1 L1173.2,587.0 L1132.9,587.0 L1081.3,602.4 L1117.3,700.6 L1183.3,737.0 L1181.9,737.0 L1119.6,737.0 L1053.4,737.0 L987.1,769.7 L920.9,892.1 L901.3,977.0 L875.8,977.0 L810.0,982.5 L743.8,1059.6 L677.5,1127.0 L611.3,1127.0 L545.0,1127.0 L478.8,1127.0 L412.5,1127.0 L346.3,1127.0 L280.0,1127.0 L213.8,1127.0 L147.5,1127.0" fill="none" stroke="#227dd1" stroke-width="4" opacity=".7"/><circle cx="405" cy="285" r="20" fill="#fbd479"/><text x="405" y="291" text-anchor="middle" font-size="22">A</text><circle cx="1185" cy="735" r="20" fill="#fbd479"/><text x="1185" y="741" text-anchor="middle" font-size="22">B</text><rect x="90" y="1110" width="30" height="30" fill="#52a571"/></svg>