<svg xmlns="http://www.w3.org/2000/svg" viewBox="0 0 1920 1080" width="640" height="360"><title>Open circuit, loaded floor: verified Medium route</title><rect width="100%" height="100%" fill="#edf1e7"/><rect x="0" y="1020" width="30" height="30" fill="#47544c"/><rect x="30" y="1020" width="30" height="30" fill="#47544c"/><rect x="60" y="1020" width="30" height="30" fill="#47544c"/><rect x="90" y="1020" width="30" height="30" fill="#47544c"/><rect x="120" y="1020" width="30" height="30" fill="#47544c"/><rect x="150" y="1020" width="30" height="30" fill="#47544c"/><rect x="180" y="1020" width="30" height="30" fill="#47544c"/><rect x="210" y="1020" width="30" height="30" fill="#47544c"/><rect x="240" y="1020" width="30" height="30" fill="#47544c"/><rect x="270" y="1020" width="30" height="30" fill="#47544c"/><rect x="300" y="1020" width="30" height="30" fill="#47544c"/><rect x="330" y="1020" width="30" height="30" fill="#47544c"/><rect x="360" y="1020" width="30" height="30" fill="#47544c"/><rect x="390" y="1020" width="30" height="30" fill="#47544c"/><rect x="420" y="1020" width="30" height="30" fill="#47544c"/><rect x="450" y="1020" width="30" height="30" fill="#47544c"/><rect x="480" y="1020" width="30" height="30" fill="#47544c"/><rect x="510" y="1020" width="30" height="30" fill="#47544c"/><rect x="540" y="1020" width="30" height="30" fill="#47544c"/><rect x="570" y="1020" width="30" height="30" fill="#47544c"/><rect x="600" y="1020" width="30" height="30" fill="#47544c"/><rect x="630" y="1020" width="30" height="30" fill="#47544c"/><rect x="660" y="1020" width="30" height="30" fill="#47544c"/><rect x="690" y="1020" width="30" height="30" fill="#47544c"/><rect x="720" y="1020" width="30" height="30" fill="#47544c"/><rect x="750" y="1020" width="30" height="30" fill="#47544c"/><rect x="780" y="1020" width="30" height="30" fill="#47544c"/><rect x="810" y="1020" width="30" height="30" fill="#47544c"/><rect x="840" y="1020" width="30" height="30" fill="#47544c"/><rect x="870" y="1020" width="30" height="30" fill="#47544c"/><rect x="900" y="1020" width="30" height="30" fill="#47544c"/><rect x="930" y="1020" width="30" height="30" fill="#47544c"/><rect x="960" y="1020" width="30" height="30" fill="#47544c"/><rect x="990" y="1020" width="30" height="30" fill="#47544c"/><rect x="1020" y="1020" width="30" height="30" fill="#47544c"/><rect x="1050" y="1020" width="30" height="30" fill="#47544c"/><rect x="1080" y="1020" width="30" height="30" fill="#47544c"/><rect x="1110" y="1020" width="30" height="30" fill="#47544c"/><rect x="1140" y="1020" width="30" height="30" fill="#47544c"/><rect x="1170" y="1020" width="30" height="30" fill="#47544c"/><rect x="1200" y="1020" width="30" height="30" fill="#47544c"/><rect x="1230" y="1020" width="30" height="30" fill="#47544c"/><rect x="1260" y="1020" width="30" height="30" fill="#47544c"/><rect x="1290" y="1020" width="30" height="30" fill="#47544c"/><rect x="1320" y="1020" width="30" height="30" fill="#47544c"/><rect x="1350" y="1020" width="30" height="30" fill="#47544c"/><rect x="1380" y="1020" width="30" height="30" fill="#47544c"/><rect x="1410" y="1020" width="30" height="30" fill="#47544c"/><rect x="1440" y="1020" width="30" height="30" fill="#47544c"/><rect x="1470" y="1020" width="30" height="30" fill="#47544c"/><rect x="1500" y="1020" width="30" height="30" fill="#47544c"/><rect x="1530" y="1020" width="30" height="30" fill="#47544c"/><rect x="1560" y="1020" width="30" height="30" fill="#47544c"/><rect x="1590" y="1020" width="30" height="30" fill="#47544c"/><rect x="1620" y="1020" width="30" height="30" fill="#47544c"/><rect x="1650" y="1020" width="30" height="30" fill="#47544c"/><rect x="1680" y="1020" width="30" height="30" fill="#47544c"/><rect x="1710" y="1020" width="30" height="30" fill="#47544c"/><rect x="1740" y="1020" width="30" height="30" fill="#47544c"/><rect x="1770" y="1020" width="30" height="30" fill="#47544c"/><rect x="1800" y="1020" width="30" height="30" fill="#47544c"/><rect x="1830" y="1020" width="30" height="30" fill="#47544c"/><rect x="1860" y="1020" width="30" height="30" fill="#47544c"/><rect x="1890" y="1020" width="30" height="30" fill="#47544c"/><rect x="0" y="1050" width="30" height="30" fill="#47544c"/><rect x="30" y="1050" width="30" height="30" fill="#47544c"/><rect x="60" y="1050" width="30" height="30" fill="#47544c"/><rect x="90" y="1050" width="30" height="30" fill="#47544c"/><rect x="120" y="1050" width="30" height="30" fill="#47544c"/><rect x="150" y="1050" width="30" height="30" fill="#47544c"/><rect x="180" y="1050" width="30" height="30" fill="#47544c"/><rect x="210" y="1050" width="30" height="30" fill="#47544c"/><rect x="240" y="1050" width="30" height="30" fill="#47544c"/><rect x="270" y="1050" width="30" height="30" fill="#47544c"/><rect x="300" y="1050" width="30" height="30" fill="#47544c"/><rect x="330" y="1050" width="30" height="30" fill="#47544c"/><rect x="360" y="1050" width="30" height="30" fill="#47544c"/><rect x="390" y="1050" width="30" height="30" fill="#47544c"/><rect x="420" y="1050" width="30" height="30" fill="#47544c"/><rect x="450" y="1050" width="30" height="30" fill="#47544c"/><rect x="480" y="1050" width="30" height="30" fill="#47544c"/><rect x="510" y="1050" width="30" height="30" fill="#47544c"/><rect x="540" y="1050" width="30" height="30" fill="#47544c"/><rect x="570" y="1050" width="30" height="30" fill="#47544c"/><rect x="600" y="1050" width="30" height="30" fill="#47544c"/><rect x="630" y="1050" width="30" height="30" fill="#47544c"/><rect x="660" y="1050" width="30" height="30" fill="#47544c"/><rect x="690" y="1050" width="30" height="30" fill="#47544c"/><rect x="720" y="1050" width="30" height="30" fill="#47544c"/><rect x="750" y="1050" width="30" height="30" fill="#47544c"/><rect x="780" y="1050" width="30" height="30" fill="#47544c"/><rect x="810" y="1050" width="30" height="30" fill="#47544c"/><rect x="840" y="1050" width="30" height="30" fill="#47544c"/><rect x="870" y="1050" width="30" height="30" fill="#47544c"/><rect x="900" y="1050" width="30" height="30" fill="#47544c"/><rect x="930" y="1050" width="30" height="30" fill="#47544c"/><rect x="960" y="1050" width="30" height="30" fill="#47544c"/><rect x="990" y="1050" width="30" height="30" fill="#47544c"/><rect x="1020" y="1050" width="30" height="30" fill="#47544c"/><rect x="1050" y="1050" width="30" height="30" fill="#47544c"/><rect x="1080" y="1050" width="30" height="30" fill="#47544c"/><rect x="1110" y="1050" width="30" height="30" fill="#47544c"/><rect x="1140" y="1050" width="30" height="30" fill="#47544c"/><rect x="1170" y="1050" width="30" height="30" fill="#47544c"/><rect x="1200" y="1050" width="30" height="30" fill="#47544c"/><rect x="1230" y="1050" width="30" height="30" fill="#47544c"/><rect x="1260" y="1050" width="30" height="30" fill="#47544c"/><rect x="1290" y="1050" width="30" height="30" fill="#47544c"/><rect x="1320" y="1050" width="30" height="30" fill="#47544c"/><rect x="1350" y="1050" width="30" height="30" fill="#47544c"/><rect x="1380" y="1050" width="30" height="30" fill="#47544c"/><rect x="1410" y="1050" width="30" height="30" fill="#47544c"/><rect x="1440" y="1050" width="30" height="30" fill="#47544c"/><rect x="1470" y="1050" width="30" height="30" fill="#47544c"/><rect x="1500" y="1050" width="30" height="30" fill="#47544c"/><rect x="1530" y="1050" width="30" height="30" fill="#47544c"/><rect x="1560" y="1050" width="30" height="30" fill="#47544c"/><rect x="1590" y="1050" width="30" height="30" fill="#47544c"/><rect x="1620" y="1050" width="30" height="30" fill="#47544c"/><rect x="1650" y="1050" width="30" height="30" fill="#47544c"/><rect x="1680" y="1050" width="30" height="30" fill="#47544c"/><rect x="1710" y="1050" width="30" height="30" fill="#47544c"/><rect x="1740" y="1050" width="30" height="30" fill="#47544c"/><rect x="1770" y="1050" width="30" height="30" fill="#47544c"/><rect x="1800" y="1050" width="30" height="30" fill="#47544c"/><rect x="1830" y="1050" width="30" height="30" fill="#47544c"/><rect x="1860" y="1050" width="30" height="30" fill="#47544c"/><rect x="1890" y="1050" width="30" height="30" fill="#47544c"/><rect x="0" y="0" width="30" height="30" fill="#47544c"/><rect x="30" y="0" width="30" height="30" fill="#47544c"/><rect x="60" y="0" width="30" height="30" fill="#47544c"/><rect x="90" y="0" width="30" height="30" fill="#47544c"/><rect x="120" y="0" width="30" height="30" fill="#47544c"/><rect x="150" y="0" width="30" height="30" fill="#47544c"/><rect x="180" y="0" width="30" height="30" fill="#47544c"/><rect x="210" y="0" width="30" height="30" fill="#47544c"/><rect x="240" y="0" width="30" height="30" fill="#47544c"/><rect x="270" y="0" width="30" height="30" fill="#47544c"/><rect x="300" y="0" width="30" height="30" fill="#47544c"/><rect x="330" y="0" width="30" height="30" fill="#47544c"/><rect x="360" y="0" width="30" height="30" fill="#47544c"/><rect x="390" y="0" width="30" height="30" fill="#47544c"/><rect x="420" y="0" width="30" height="30" fill="#47544c"/><rect x="450" y="0" width="30" height="30" fill="#47544c"/><rect x="480" y="0" width="30" height="30" fill="#47544c"/><rect x="510" y="0" width="30" height="30" fill="#47544c"/><rect x="540" y="0" width="30" height="30" fill="#47544c"/><rect x="570" y="0" width="30" height="30" fill="#47544c"/><rect x="600" y="0" width="30" height="30" fill="#47544c"/><rect x="630" y="0" width="30" height="30" fill="#47544c"/><rect x="660" y="0" width="30" height="30" fill="#47544c"/><rect x="690" y="0" width="30" height="30" fill="#47544c"/><rect x="720" y="0" width="30" height="30" fill="#47544c"/><rect x="750" y="0" width="30" height="30" fill="#47544c"/><rect x="780" y="0" width="30" height="30" fill="#47544c"/><rect x="810" y="0" width="30" height="30" fill="#47544c"/><rect x="840" y="0" width="30" height="30" fill="#47544c"/><rect x="870" y="0" width="30" height="30" fill="#47544c"/><rect x="900" y="0" width="30" height="30" fill="#47544c"/><rect x="930" y="0" width="30" height="30" fill="#47544c"/><rect x="960" y="0" width="30" height="30" fill="#47544c"/><rect x="990" y="0" width="30" height="30" fill="#47544c"/><rect x="1020" y="0" width="30" height="30" fill="#47544c"/><rect x="1050" y="0" width="30" height="30" fill="#47544c"/><rect x="1080" y="0" width="30" height="30" fill="#47544c"/><rect x="1110" y="0" width="30" height="30" fill="#47544c"/><rect x="1140" y="0" width="30" height="30" fill="#47544c"/><rect x="1170" y="0" width="30" height="30" fill="#47544c"/><rect x="1200" y="0" width="30" height="30" fill="#47544c"/><rect x="1230" y="0" width="30" height="30" fill="#47544c"/><rect x="1260" y="0" width="30" height="30" fill="#47544c"/><rect x="1290" y="0" width="30" height="30" fill="#47544c"/><rect x="1320" y="0" width="30" height="30" fill="#47544c"/><rect x="1350" y="0" width="30" height="30" fill="#47544c"/><rect x="1380" y="0" width="30" height="30" fill="#47544c"/><rect x="1410" y="0" width="30" height="30" fill="#47544c"/><rect x="1440" y="0" width="30" height="30" fill="#47544c"/><rect x="1470" y="0" width="30" height="30" fill="#47544c"/><rect x="1500" y="0" width="30" height="30" fill="#47544c"/><rect x="1530" y="0" width="30" height="30" fill="#47544c"/><rect x="1560" y="0" width="30" height="30" fill="#47544c"/><rect x="1590" y="0" width="30" height="30" fill="#47544c"/><rect x="1620" y="0" width="30" height="30" fill="#47544c"/><rect x="1650" y="0" width="30" height="30" fill="#47544c"/><rect x="1680" y="0" width="30" height="30" fill="#47544c"/><rect x="1710" y="0" width="30" height="30" fill="#47544c"/><rect x="1740" y="0" width="30" height="30" fill="#47544c"/><rect x="1770" y="0" width="30" height="30" fill="#47544c"/><rect x="1800" y="0" width="30" height="30" fill="#47544c"/><rect x="1830" y="0" width="30" height="30" fill="#47544c"/><rect x="1860" y="0" width="30" height="30" fill="#47544c"/><rect x="1890" y="0" width="30" height="30" fill="#47544c"/><rect x="0" y="30" width="30" height="30" fill="#47544c"/><rect x="0" y="60" width="30" height="30" fill="#47544c"/><rect x="0" y="90" width="30" height="30" fill="#47544c"/><rect x="0" y="120" width="30" height="30" fill="#47544c"/><rect x="0" y="150" width="30" height="30" fill="#47544c"/><rect x="0" y="180" width="30" height="30" fill="#47544c"/><rect x="0" y="210" width="30" height="30" fill="#47544c"/><rect x="0" y="240" width="30" height="30" fill="#47544c"/><rect x="0" y="270" width="30" height="30" fill="#47544c"/><rect x="0" y="300" width="30" height="30" fill="#47544c"/><rect x="0" y="330" width="30" height="30" fill="#47544c"/><rect x="0" y="360" width="30" height="30" fill="#47544c"/><rect x="0" y="390" width="30" height="30" fill="#47544c"/><rect x="0" y="420" width="30" height="30" fill="#47544c"/><rect x="0" y="450" width="30" height="30" fill="#47544c"/><rect x="0" y="480" width="30" height="30" fill="#47544c"/><rect x="0" y="510" width="30" height="30" fill="#47544c"/><rect x="0" y="540" width="30" height="30" fill="#47544c"/><rect x="0" y="570" width="30" height="30" fill="#47544c"/><rect x="0" y="600" width="30" height="30" fill="#47544c"/><rect x="0" y="630" width="30" height="30" fill="#47544c"/><rect x="0" y="660" width="30" height="30" fill="#47544c"/><rect x="0" y="690" width="30" height="30" fill="#47544c"/><rect x="0" y="720" width="30" height="30" fill="#47544c"/><rect x="0" y="750" width="30" height="30" fill="#47544c"/><rect x="0" y="780" width="30" height="30" fill="#47544c"/><rect x="0" y="810" width="30" height="30" fill="#47544c"/><rect x="0" y="840" width="30" height="30" fill="#47544c"/><rect x="0" y="870" width="30" height="30" fill="#47544c"/><rect x="0" y="900" width="30" height="30" fill="#47544c"/><rect x="0" y="930" width="30" height="30" fill="#47544c"/><rect x="0" y="960" width="30" height="30" fill="#47544c"/><rect x="0" y="990" width="30" height="30" fill="#47544c"/><rect x="1890" y="30" width="30" height="30" fill="#47544c"/><rect x="1890" y="60" width="30" height="30" fill="#47544c"/><rect x="1890" y="90" width="30" height="30" fill="#47544c"/><rect x="1890" y="120" width="30" height="30" fill="#47544c"/><rect x="1890" y="150" width="30" height="30" fill="#47544c"/><rect x="1890" y="180" width="30" height="30" fill="#47544c"/><rect x="1890" y="210" width="30" height="30" fill="#47544c"/><rect x="1890" y="240" width="30" height="30" fill="#47544c"/><rect x="1890" y="270" width="30" height="30" fill="#47544c"/><rect x="1890" y="300" width="30" height="30" fill="#47544c"/><rect x="1890" y="330" width="30" height="30" fill="#47544c"/><rect x="1890" y="360" width="30" height="30" fill="#47544c"/><rect x="1890" y="390" width="30" height="30" fill="#47544c"/><rect x="1890" y="420" width="30" height="30" fill="#47544c"/><rect x="1890" y="450" width="30" height="30" fill="#47544c"/><rect x="1890" y="480" width="30" height="30" fill="#47544c"/><rect x="1890" y="510" width="30" height="30" fill="#47544c"/><rect x="1890" y="540" width="30" height="30" fill="#47544c"/><rect x="1890" y="570" width="30" height="30" fill="#47544c"/><rect x="1890" y="600" width="30" height="30" fill="#47544c"/><rect x="1890" y="630" width="30" height="30" fill="#47544c"/><rect x="1890" y="660" width="30" height="30" fill="#47544c"/><rect x="1890" y="690" width="30" height="30" fill="#47544c"/><rect x="1890" y="720" width="30" height="30" fill="#47544c"/><rect x="1890" y="750" width="30" height="30" fill="#47544c"/><rect x="1890" y="780" width="30" height="30" fill="#47544c"/><rect x="1890" y="810" width="30" height="30" fill="#47544c"/><rect x="1890" y="840" width="30" height="30" fill="#47544c"/><rect x="1890" y="870" width="30" height="30" fill="#47544c"/><rect x="1890" y="900" width="30" height="30" fill="#47544c"/><rect x="1890" y="930" width="30" height="30" fill="#47544c"/><rect x="1890" y="960" width="30" height="30" fill="#47544c"/><rect x="1890" y="990" width="30" height="30" fill="#47544c"/><rect x="810" y="900" width="30" height="30" fill="#47544c"/><rect x="840" y="900" width="30" height="30" fill="#47544c"/><rect x="870" y="900" width="30" height="30" fill="#47544c"/><rect x="900" y="900" width="30" height="30" fill="#47544c"/><rect x="930" y="900" width="30" height="30" fill="#47544c"/><rect x="960" y="900" width="30" height="30" fill="#47544c"/><rect x="990" y="900" width="30" height="30" fill="#47544c"/><rect x="690" y="360" width="30" height="30" fill="#47544c"/><rect x="690" y="390" width="30" height="30" fill="#47544c"/><rect x="690" y="420" width="30" height="30" fill="#47544c"/><rect x="690" y="450" width="30" height="30" fill="#47544c"/><rect x="690" y="480" width="30" height="30" fill="#47544c"/><rect x="690" y="510" width="30" height="30" fill="#47544c"/><rect x="690" y="630" width="30" height="30" fill="#47544c"/><rect x="690" y="660" width="30" height="30" fill="#47544c"/><rect x="690" y="690" width="30" height="30" fill="#47544c"/><rect x="690" y="720" width="30" height="30" fill="#47544c"/><rect x="690" y="750" width="30" height="30" fill="#47544c"/><rect x="690" y="780" width="30" height="30" fill="#47544c"/><rect x="690" y="810" width="30" height="30" fill="#47544c"/><rect x="690" y="840" width="30" height="30" fill="#47544c"/><rect x="690" y="870" width="30" height="30" fill="#47544c"/><rect x="1200" y="360" width="30" height="30" fill="#47544c"/><rect x="1200" y="390" width="30" height="30" fill="#47544c"/><rect x="1200" y="420" width="30" height="30" fill="#47544c"/><rect x="1200" y="450" width="30" height="30" fill="#47544c"/><rect x="1200" y="480" width="30" height="30" fill="#47544c"/><rect x="1200" y="510" width="30" height="30" fill="#47544c"/><rect x="1200" y="540" width="30" height="30" fill="#47544c"/><rect x="1200" y="570" width="30" height="30" fill="#47544c"/><rect x="1200" y="690" width="30" height="30" fill="#47544c"/><rect x="1200" y="720" width="30" height="30" fill="#47544c"/><rect x="1200" y="750" width="30" height="30" fill="#47544c"/><rect x="1200" y="780" width="30" height="30" fill="#47544c"/><rect x="1200" y="810" width="30" height="30" fill="#47544c"/><rect x="1200" y="840" width="30" height="30" fill="#47544c"/><rect x="1200" y="870" width="30" height="30" fill="#47544c"/><rect x="420" y="930" width="30" height="30" fill="#47544c"/><rect x="450" y="930" width="30" height="30" fill="#47544c"/><rect x="480" y="930" width="30" height="30" fill="#47544c"/><rect x="510" y="930" width="30" height="30" fill="#47544c"/><rect x="540" y="930" width="30" height="30" fill="#47544c"/><rect x="570" y="930" width="30" height="30" fill="#47544c"/><rect x="180" y="840" width="30" height="30" fill="#47544c"/><rect x="210" y="840" width="30" height="30" fill="#47544c"/><rect x="240" y="840" width="30" height="30" fill="#47544c"/><rect x="270" y="840" width="30" height="30" fill="#47544c"/><rect x="300" y="840" width="30" height="30" fill="#47544c"/><rect x="330" y="840" width="30" height="30" fill="#47544c"/><rect x="420" y="750" width="30" height="30" fill="#47544c"/><rect x="450" y="750" width="30" height="30" fill="#47544c"/><rect x="480" y="750" width="30" height="30" fill="#47544c"/><rect x="510" y="750" width="30" height="30" fill="#47544c"/><rect x="540" y="750" width="30" height="30" fill="#47544c"/><rect x="570" y="750" width="30" height="30" fill="#47544c"/><rect x="180" y="660" width="30" height="30" fill="#47544c"/><rect x="210" y="660" width="30" height="30" fill="#47544c"/><rect x="240" y="660" width="30" height="30" fill="#47544c"/><rect x="270" y="660" width="30" height="30" fill="#47544c"/><rect x="300" y="660" width="30" height="30" fill="#47544c"/><rect x="330" y="660" width="30" height="30" fill="#47544c"/><rect x="90" y="570" width="30" height="30" fill="#47544c"/><rect x="120" y="570" width="30" height="30" fill="#47544c"/><rect x="150" y="570" width="30" height="30" fill="#47544c"/><rect x="180" y="570" width="30" height="30" fill="#47544c"/><rect x="210" y="570" width="30" height="30" fill="#47544c"/><rect x="240" y="570" width="30" height="30" fill="#47544c"/><rect x="270" y="570" width="30" height="30" fill="#47544c"/><rect x="300" y="570" width="30" height="30" fill="#47544c"/><rect x="330" y="570" width="30" height="30" fill="#47544c"/><rect x="420" y="480" width="30" height="30" fill="#47544c"/><rect x="450" y="480" width="30" height="30" fill="#47544c"/><rect x="480" y="480" width="30" height="30" fill="#47544c"/><rect x="510" y="480" width="30" height="30" fill="#47544c"/><rect x="540" y="480" width="30" height="30" fill="#47544c"/><rect x="570" y="480" width="30" height="30" fill="#47544c"/><rect x="720" y="570" width="30" height="30" fill="#47544c"/><rect x="750" y="570" width="30" height="30" fill="#47544c"/><rect x="780" y="570" width="30" height="30" fill="#47544c"/><rect x="810" y="570" width="30" height="30" fill="#47544c"/><rect x="840" y="570" width="30" height="30" fill="#47544c"/><rect x="870" y="570" width="30" height="30" fill="#47544c"/><rect x="1020" y="660" width="30" height="30" fill="#47544c"/><rect x="1050" y="660" width="30" height="30" fill="#47544c"/><rect x="1080" y="660" width="30" height="30" fill="#47544c"/><rect x="1110" y="660" width="30" height="30" fill="#47544c"/><rect x="1140" y="660" width="30" height="30" fill="#47544c"/><rect x="1170" y="660" width="30" height="30" fill="#47544c"/><rect x="1290" y="930" width="30" height="30" fill="#47544c"/><rect x="1320" y="930" width="30" height="30" fill="#47544c"/><rect x="1350" y="930" width="30" height="30" fill="#47544c"/><rect x="1380" y="930" width="30" height="30" fill="#47544c"/><rect x="1410" y="930" width="30" height="30" fill="#47544c"/><rect x="1440" y="930" width="30" height="30" fill="#47544c"/><rect x="1530" y="840" width="30" height="30" fill="#47544c"/><rect x="1560" y="840" width="30" height="30" fill="#47544c"/><rect x="1590" y="840" width="30" height="30" fill="#47544c"/><rect x="1620" y="840" width="30" height="30" fill="#47544c"/><rect x="1650" y="840" width="30" height="30" fill="#47544c"/><rect x="1680" y="840" width="30" height="30" fill="#47544c"/><rect x="1290" y="750" width="30" height="30" fill="#47544c"/><rect x="1320" y="750" width="30" height="30" fill="#47544c"/><rect x="1350" y="750" width="30" height="30" fill="#47544c"/><rect x="1380" y="750" width="30" height="30" fill="#47544c"/><rect x="1410" y="750" width="30" height="30" fill="#47544c"/><rect x="1440" y="750" width="30" height="30" fill="#47544c"/><rect x="1530" y="660" width="30" height="30" fill="#47544c"/><rect x="1560" y="660" width="30" height="30" fill="#47544c"/><rect x="1590" y="660" width="30" height="30" fill="#47544c"/><rect x="1620" y="660" width="30" height="30" fill="#47544c"/><rect x="1650" y="660" width="30" height="30" fill="#47544c"/><rect x="1680" y="660" width="30" height="30" fill="#47544c"/><rect x="1290" y="570" width="30" height="30" fill="#47544c"/><rect x="1320" y="570" width="30" height="30" fill="#47544c"/><rect x="1350" y="570" width="30" height="30" fill="#47544c"/><rect x="1380" y="570" width="30" height="30" fill="#47544c"/><rect x="1410" y="570" width="30" height="30" fill="#47544c"/><rect x="1440" y="570" width="30" height="30" fill="#47544c"/><rect x="1530" y="480" width="30" height="30" fill="#47544c"/><rect x="1560" y="480" width="30" height="30" fill="#47544c"/><rect x="1590" y="480" width="30" height="30" fill="#47544c"/><rect x="1620" y="480" width="30" height="30" fill="#47544c"/><rect x="1650" y="480" width="30" height="30" fill="#47544c"/><rect x="1680" y="480" width="30" height="30" fill="#47544c"/><rect x="1710" y="480" width="30" height="30" fill="#47544c"/><rect x="1740" y="480" width="30" height="30" fill="#47544c"/><rect x="1770" y="480" width="30" height="30" fill="#47544c"/><rect x="1800" y="480" width="30" height="30" fill="#47544c"/><rect x="690" y="900" width="30" height="120" fill="#c18b47"/><rect x="1200" y="900" width="30" height="120" fill="#c18b47"/><rect x="690" y="540" width="30" height="90" fill="#c18b47"/><rect x="1200" y="600" width="30" height="90" fill="#c18b47"/><path d="M915.0,1006.0 L914.9,1006.1 L872.5,1007.0 L806.2,955.5 L740.0,901.6 L793.4,817.5 L859.7,799.8 L911.2,872.8 L875.3,887.0 L809.1,887.0 L742.8,925.1 L676.6,1002.4 L610.3,912.3 L544.1,912.7 L477.8,847.5 L426.0,811.7 L377.6,866.5 L395.9,849.0 L408.5,795.0 L349.5,827.0 L287.8,797.2 L285.2,725.1 L338.3,743.7 L377.1,823.4 L412.3,733.3 L456.7,733.8 L494.0,667.5 L463.4,631.7 L424.9,686.5 L380.4,686.5 L357.4,632.6 L297.0,642.4 L291.8,638.5 L351.7,626.7 L380.7,577.5 L348.1,541.7 L281.9,557.0 L230.3,505.5 L266.3,451.6 L332.3,488.3 L374.0,527.2 L415.8,455.1 L470.0,467.0 L536.2,467.0 L602.5,467.0 L668.6,507.9 L685.0,572.1 L712.0,565.5 L745.7,557.0 L812.0,557.0 L878.2,557.0 L944.5,572.4 L1006.1,670.6 L978.4,657.4 L962.6,603.5 L1020.4,640.2 L1057.7,647.0 L1009.6,647.3 L943.3,700.2 L912.0,843.7 L950.2,887.0 L1016.4,887.0 L1082.7,919.7 L1148.9,1002.4 L1215.2,913.0 L1267.0,959.8 L1279.8,977.2 L1281.4,905.1 L1343.2,917.0 L1396.8,833.1 L1428.9,815.4 L1461.1,888.4 L1519.6,848.1 L1542.0,812.3 L1601.7,797.2 L1581.7,725.1 L1554.2,743.7 L1514.8,823.4 L1477.7,733.3 L1433.3,733.8 L1392.3,667.5 L1421.0,631.7 L1467.4,686.5 L1506.0,686.5 L1539.8,632.6 L1604.8,642.4 L1603.4,552.3 L1554.0,552.7 L1528.1,643.8 L1478.0,563.4 L1446.4,545.7 L1393.2,505.5 L1422.3,451.6 L1459.8,488.3 L1493.0,527.5 L1529.9,455.4 L1592.2,467.0 L1658.3,467.0 L1656.9,467.0 L1594.6,467.0 L1528.3,467.0 L1462.1,507.9 L1395.8,557.0 L1329.6,557.0 L1263.3,561.5 L1238.0,604.3 L1222.6,657.2 L1206.7,625.5 L1145.9,645.7 L1079.7,647.0 L1013.4,647.0 L988.8,693.8 L1042.0,831.3 L1061.4,1007.0 L1004.6,1007.0" fill="none" stroke="#227dd1" stroke-width="4" opacity=".7"/><circle cx="915" cy="885" r="20" fill="#fbd479"/><text x="915" y="891" text-anchor="middle" font-size="22">A</text><circle cx="225" cy="555" r="20" fill="#fbd479"/><text x="225" y="561" text-anchor="middle" font-size="22">B</text><circle cx="1665" cy="465" r="20" fill="#fbd479"/><text x="1665" y="471" text-anchor="middle" font-size="22">C</text><rect x="960" y="990" width="30" height="30" fill="#52a571"/></svg>