<svg xmlns="http://www.w3.org/2000/svg" viewBox="0 0 1920 1200" width="640" height="400"><title>Around the crown: verified Medium route</title><rect width="100%" height="100%" fill="#edf1e7"/><rect x="0" y="1140" width="30" height="30" fill="#47544c"/><rect x="30" y="1140" width="30" height="30" fill="#47544c"/><rect x="60" y="1140" width="30" height="30" fill="#47544c"/><rect x="90" y="1140" width="30" height="30" fill="#47544c"/><rect x="120" y="1140" width="30" height="30" fill="#47544c"/><rect x="150" y="1140" width="30" height="30" fill="#47544c"/><rect x="180" y="1140" width="30" height="30" fill="#47544c"/><rect x="210" y="1140" width="30" height="30" fill="#47544c"/><rect x="240" y="1140" width="30" height="30" fill="#47544c"/><rect x="270" y="1140" width="30" height="30" fill="#47544c"/><rect x="300" y="1140" width="30" height="30" fill="#47544c"/><rect x="330" y="1140" width="30" height="30" fill="#47544c"/><rect x="360" y="1140" width="30" height="30" fill="#47544c"/><rect x="390" y="1140" width="30" height="30" fill="#47544c"/><rect x="420" y="1140" width="30" height="30" fill="#47544c"/><rect x="450" y="1140" width="30" height="30" fill="#47544c"/><rect x="480" y="1140" width="30" height="30" fill="#47544c"/><rect x="510" y="1140" width="30" height="30" fill="#47544c"/><rect x="540" y="1140" width="30" height="30" fill="#47544c"/><rect x="570" y="1140" width="30" height="30" fill="#47544c"/><rect x="600" y="1140" width="30" height="30" fill="#47544c"/><rect x="630" y="1140" width="30" height="30" fill="#47544c"/><rect x="660" y="1140" width="30" height="30" fill="#47544c"/><rect x="690" y="1140" width="30" height="30" fill="#47544c"/><rect x="720" y="1140" width="30" height="30" fill="#47544c"/><rect x="750" y="1140" width="30" height="30" fill="#47544c"/><rect x="780" y="1140" width="30" height="30" fill="#47544c"/><rect x="810" y="1140" width="30" height="30" fill="#47544c"/><rect x="840" y="1140" width="30" height="30" fill="#47544c"/><rect x="870" y="1140" width="30" height="30" fill="#47544c"/><rect x="900" y="1140" width="30" height="30" fill="#47544c"/><rect x="930" y="1140" width="30" height="30" fill="#47544c"/><rect x="960" y="1140" width="30" height="30" fill="#47544c"/><rect x="990" y="1140" width="30" height="30" fill="#47544c"/><rect x="1020" y="1140" width="30" height="30" fill="#47544c"/><rect x="1050" y="1140" width="30" height="30" fill="#47544c"/><rect x="1080" y="1140" width="30" height="30" fill="#47544c"/><rect x="1110" y="1140" width="30" height="30" fill="#47544c"/><rect x="1140" y="1140" width="30" height="30" fill="#47544c"/><rect x="1170" y="1140" width="30" height="30" fill="#47544c"/><rect x="1200" y="1140" width="30" height="30" fill="#47544c"/><rect x="1230" y="1140" width="30" height="30" fill="#47544c"/><rect x="1260" y="1140" width="30" height="30" fill="#47544c"/><rect x="1290" y="1140" width="30" height="30" fill="#47544c"/><rect x="1320" y="1140" width="30" height="30" fill="#47544c"/><rect x="1350" y="1140" width="30" height="30" fill="#47544c"/><rect x="1380" y="1140" width="30" height="30" fill="#47544c"/><rect x="1410" y="1140" width="30" height="30" fill="#47544c"/><rect x="1440" y="1140" width="30" height="30" fill="#47544c"/><rect x="1470" y="1140" width="30" height="30" fill="#47544c"/><rect x="1500" y="1140" width="30" height="30" fill="#47544c"/><rect x="1530" y="1140" width="30" height="30" fill="#47544c"/><rect x="1560" y="1140" width="30" height="30" fill="#47544c"/><rect x="1590" y="1140" width="30" height="30" fill="#47544c"/><rect x="1620" y="1140" width="30" height="30" fill="#47544c"/><rect x="1650" y="1140" width="30" height="30" fill="#47544c"/><rect x="1680" y="1140" width="30" height="30" fill="#47544c"/><rect x="1710" y="1140" width="30" height="30" fill="#47544c"/><rect x="1740" y="1140" width="30" height="30" fill="#47544c"/><rect x="1770" y="1140" width="30" height="30" fill="#47544c"/><rect x="1800" y="1140" width="30" height="30" fill="#47544c"/><rect x="1830" y="1140" width="30" height="30" fill="#47544c"/><rect x="1860" y="1140" width="30" height="30" fill="#47544c"/><rect x="1890" y="1140" width="30" height="30" fill="#47544c"/><rect x="0" y="1170" width="30" height="30" fill="#47544c"/><rect x="30" y="1170" width="30" height="30" fill="#47544c"/><rect x="60" y="1170" width="30" height="30" fill="#47544c"/><rect x="90" y="1170" width="30" height="30" fill="#47544c"/><rect x="120" y="1170" width="30" height="30" fill="#47544c"/><rect x="150" y="1170" width="30" height="30" fill="#47544c"/><rect x="180" y="1170" width="30" height="30" fill="#47544c"/><rect x="210" y="1170" width="30" height="30" fill="#47544c"/><rect x="240" y="1170" width="30" height="30" fill="#47544c"/><rect x="270" y="1170" width="30" height="30" fill="#47544c"/><rect x="300" y="1170" width="30" height="30" fill="#47544c"/><rect x="330" y="1170" width="30" height="30" fill="#47544c"/><rect x="360" y="1170" width="30" height="30" fill="#47544c"/><rect x="390" y="1170" width="30" height="30" fill="#47544c"/><rect x="420" y="1170" width="30" height="30" fill="#47544c"/><rect x="450" y="1170" width="30" height="30" fill="#47544c"/><rect x="480" y="1170" width="30" height="30" fill="#47544c"/><rect x="510" y="1170" width="30" height="30" fill="#47544c"/><rect x="540" y="1170" width="30" height="30" fill="#47544c"/><rect x="570" y="1170" width="30" height="30" fill="#47544c"/><rect x="600" y="1170" width="30" height="30" fill="#47544c"/><rect x="630" y="1170" width="30" height="30" fill="#47544c"/><rect x="660" y="1170" width="30" height="30" fill="#47544c"/><rect x="690" y="1170" width="30" height="30" fill="#47544c"/><rect x="720" y="1170" width="30" height="30" fill="#47544c"/><rect x="750" y="1170" width="30" height="30" fill="#47544c"/><rect x="780" y="1170" width="30" height="30" fill="#47544c"/><rect x="810" y="1170" width="30" height="30" fill="#47544c"/><rect x="840" y="1170" width="30" height="30" fill="#47544c"/><rect x="870" y="1170" width="30" height="30" fill="#47544c"/><rect x="900" y="1170" width="30" height="30" fill="#47544c"/><rect x="930" y="1170" width="30" height="30" fill="#47544c"/><rect x="960" y="1170" width="30" height="30" fill="#47544c"/><rect x="990" y="1170" width="30" height="30" fill="#47544c"/><rect x="1020" y="1170" width="30" height="30" fill="#47544c"/><rect x="1050" y="1170" width="30" height="30" fill="#47544c"/><rect x="1080" y="1170" width="30" height="30" fill="#47544c"/><rect x="1110" y="1170" width="30" height="30" fill="#47544c"/><rect x="1140" y="1170" width="30" height="30" fill="#47544c"/><rect x="1170" y="1170" width="30" height="30" fill="#47544c"/><rect x="1200" y="1170" width="30" height="30" fill="#47544c"/><rect x="1230" y="1170" width="30" height="30" fill="#47544c"/><rect x="1260" y="1170" width="30" height="30" fill="#47544c"/><rect x="1290" y="1170" width="30" height="30" fill="#47544c"/><rect x="1320" y="1170" width="30" height="30" fill="#47544c"/><rect x="1350" y="1170" width="30" height="30" fill="#47544c"/><rect x="1380" y="1170" width="30" height="30" fill="#47544c"/><rect x="1410" y="1170" width="30" height="30" fill="#47544c"/><rect x="1440" y="1170" width="30" height="30" fill="#47544c"/><rect x="1470" y="1170" width="30" height="30" fill="#47544c"/><rect x="1500" y="1170" width="30" height="30" fill="#47544c"/><rect x="1530" y="1170" width="30" height="30" fill="#47544c"/><rect x="1560" y="1170" width="30" height="30" fill="#47544c"/><rect x="1590" y="1170" width="30" height="30" fill="#47544c"/><rect x="1620" y="1170" width="30" height="30" fill="#47544c"/><rect x="1650" y="1170" width="30" height="30" fill="#47544c"/><rect x="1680" y="1170" width="30" height="30" fill="#47544c"/><rect x="1710" y="1170" width="30" height="30" fill="#47544c"/><rect x="1740" y="1170" width="30" height="30" fill="#47544c"/><rect x="1770" y="1170" width="30" height="30" fill="#47544c"/><rect x="1800" y="1170" width="30" height="30" fill="#47544c"/><rect x="1830" y="1170" width="30" height="30" fill="#47544c"/><rect x="1860" y="1170" width="30" height="30" fill="#47544c"/><rect x="1890" y="1170" width="30" height="30" fill="#47544c"/><rect x="0" y="0" width="30" height="30" fill="#47544c"/><rect x="30" y="0" width="30" height="30" fill="#47544c"/><rect x="60" y="0" width="30" height="30" fill="#47544c"/><rect x="90" y="0" width="30" height="30" fill="#47544c"/><rect x="120" y="0" width="30" height="30" fill="#47544c"/><rect x="150" y="0" width="30" height="30" fill="#47544c"/><rect x="180" y="0" width="30" height="30" fill="#47544c"/><rect x="210" y="0" width="30" height="30" fill="#47544c"/><rect x="240" y="0" width="30" height="30" fill="#47544c"/><rect x="270" y="0" width="30" height="30" fill="#47544c"/><rect x="300" y="0" width="30" height="30" fill="#47544c"/><rect x="330" y="0" width="30" height="30" fill="#47544c"/><rect x="360" y="0" width="30" height="30" fill="#47544c"/><rect x="390" y="0" width="30" height="30" fill="#47544c"/><rect x="420" y="0" width="30" height="30" fill="#47544c"/><rect x="450" y="0" width="30" height="30" fill="#47544c"/><rect x="480" y="0" width="30" height="30" fill="#47544c"/><rect x="510" y="0" width="30" height="30" fill="#47544c"/><rect x="540" y="0" width="30" height="30" fill="#47544c"/><rect x="570" y="0" width="30" height="30" fill="#47544c"/><rect x="600" y="0" width="30" height="30" fill="#47544c"/><rect x="630" y="0" width="30" height="30" fill="#47544c"/><rect x="660" y="0" width="30" height="30" fill="#47544c"/><rect x="690" y="0" width="30" height="30" fill="#47544c"/><rect x="720" y="0" width="30" height="30" fill="#47544c"/><rect x="750" y="0" width="30" height="30" fill="#47544c"/><rect x="780" y="0" width="30" height="30" fill="#47544c"/><rect x="810" y="0" width="30" height="30" fill="#47544c"/><rect x="840" y="0" width="30" height="30" fill="#47544c"/><rect x="870" y="0" width="30" height="30" fill="#47544c"/><rect x="900" y="0" width="30" height="30" fill="#47544c"/><rect x="930" y="0" width="30" height="30" fill="#47544c"/><rect x="960" y="0" width="30" height="30" fill="#47544c"/><rect x="990" y="0" width="30" height="30" fill="#47544c"/><rect x="1020" y="0" width="30" height="30" fill="#47544c"/><rect x="1050" y="0" width="30" height="30" fill="#47544c"/><rect x="1080" y="0" width="30" height="30" fill="#47544c"/><rect x="1110" y="0" width="30" height="30" fill="#47544c"/><rect x="1140" y="0" width="30" height="30" fill="#47544c"/><rect x="1170" y="0" width="30" height="30" fill="#47544c"/><rect x="1200" y="0" width="30" height="30" fill="#47544c"/><rect x="1230" y="0" width="30" height="30" fill="#47544c"/><rect x="1260" y="0" width="30" height="30" fill="#47544c"/><rect x="1290" y="0" width="30" height="30" fill="#47544c"/><rect x="1320" y="0" width="30" height="30" fill="#47544c"/><rect x="1350" y="0" width="30" height="30" fill="#47544c"/><rect x="1380" y="0" width="30" height="30" fill="#47544c"/><rect x="1410" y="0" width="30" height="30" fill="#47544c"/><rect x="1440" y="0" width="30" height="30" fill="#47544c"/><rect x="1470" y="0" width="30" height="30" fill="#47544c"/><rect x="1500" y="0" width="30" height="30" fill="#47544c"/><rect x="1530" y="0" width="30" height="30" fill="#47544c"/><rect x="1560" y="0" width="30" height="30" fill="#47544c"/><rect x="1590" y="0" width="30" height="30" fill="#47544c"/><rect x="1620" y="0" width="30" height="30" fill="#47544c"/><rect x="1650" y="0" width="30" height="30" fill="#47544c"/><rect x="1680" y="0" width="30" height="30" fill="#47544c"/><rect x="1710" y="0" width="30" height="30" fill="#47544c"/><rect x="1740" y="0" width="30" height="30" fill="#47544c"/><rect x="1770" y="0" width="30" height="30" fill="#47544c"/><rect x="1800" y="0" width="30" height="30" fill="#47544c"/><rect x="1830" y="0" width="30" height="30" fill="#47544c"/><rect x="1860" y="0" width="30" height="30" fill="#47544c"/><rect x="1890" y="0" width="30" height="30" fill="#47544c"/><rect x="0" y="30" width="30" height="30" fill="#47544c"/><rect x="0" y="60" width="30" height="30" fill="#47544c"/><rect x="0" y="90" width="30" height="30" fill="#47544c"/><rect x="0" y="120" width="30" height="30" fill="#47544c"/><rect x="0" y="150" width="30" height="30" fill="#47544c"/><rect x="0" y="180" width="30" height="30" fill="#47544c"/><rect x="0" y="210" width="30" height="30" fill="#47544c"/><rect x="0" y="240" width="30" height="30" fill="#47544c"/><rect x="0" y="270" width="30" height="30" fill="#47544c"/><rect x="0" y="300" width="30" height="30" fill="#47544c"/><rect x="0" y="330" width="30" height="30" fill="#47544c"/><rect x="0" y="360" width="30" height="30" fill="#47544c"/><rect x="0" y="390" width="30" height="30" fill="#47544c"/><rect x="0" y="420" width="30" height="30" fill="#47544c"/><rect x="0" y="450" width="30" height="30" fill="#47544c"/><rect x="0" y="480" width="30" height="30" fill="#47544c"/><rect x="0" y="510" width="30" height="30" fill="#47544c"/><rect x="0" y="540" width="30" height="30" fill="#47544c"/><rect x="0" y="570" width="30" height="30" fill="#47544c"/><rect x="0" y="600" width="30" height="30" fill="#47544c"/><rect x="0" y="630" width="30" height="30" fill="#47544c"/><rect x="0" y="660" width="30" height="30" fill="#47544c"/><rect x="0" y="690" width="30" height="30" fill="#47544c"/><rect x="0" y="720" width="30" height="30" fill="#47544c"/><rect x="0" y="750" width="30" height="30" fill="#47544c"/><rect x="0" y="780" width="30" height="30" fill="#47544c"/><rect x="0" y="810" width="30" height="30" fill="#47544c"/><rect x="0" y="840" width="30" height="30" fill="#47544c"/><rect x="0" y="870" width="30" height="30" fill="#47544c"/><rect x="0" y="900" width="30" height="30" fill="#47544c"/><rect x="0" y="930" width="30" height="30" fill="#47544c"/><rect x="0" y="960" width="30" height="30" fill="#47544c"/><rect x="0" y="990" width="30" height="30" fill="#47544c"/><rect x="0" y="1020" width="30" height="30" fill="#47544c"/><rect x="0" y="1050" width="30" height="30" fill="#47544c"/><rect x="0" y="1080" width="30" height="30" fill="#47544c"/><rect x="0" y="1110" width="30" height="30" fill="#47544c"/><rect x="1890" y="30" width="30" height="30" fill="#47544c"/><rect x="1890" y="60" width="30" height="30" fill="#47544c"/><rect x="1890" y="90" width="30" height="30" fill="#47544c"/><rect x="1890" y="120" width="30" height="30" fill="#47544c"/><rect x="1890" y="150" width="30" height="30" fill="#47544c"/><rect x="1890" y="180" width="30" height="30" fill="#47544c"/><rect x="1890" y="210" width="30" height="30" fill="#47544c"/><rect x="1890" y="240" width="30" height="30" fill="#47544c"/><rect x="1890" y="270" width="30" height="30" fill="#47544c"/><rect x="1890" y="300" width="30" height="30" fill="#47544c"/><rect x="1890" y="330" width="30" height="30" fill="#47544c"/><rect x="1890" y="360" width="30" height="30" fill="#47544c"/><rect x="1890" y="390" width="30" height="30" fill="#47544c"/><rect x="1890" y="420" width="30" height="30" fill="#47544c"/><rect x="1890" y="450" width="30" height="30" fill="#47544c"/><rect x="1890" y="480" width="30" height="30" fill="#47544c"/><rect x="1890" y="510" width="30" height="30" fill="#47544c"/><rect x="1890" y="540" width="30" height="30" fill="#47544c"/><rect x="1890" y="570" width="30" height="30" fill="#47544c"/><rect x="1890" y="600" width="30" height="30" fill="#47544c"/><rect x="1890" y="630" width="30" height="30" fill="#47544c"/><rect x="1890" y="660" width="30" height="30" fill="#47544c"/><rect x="1890" y="690" width="30" height="30" fill="#47544c"/><rect x="1890" y="720" width="30" height="30" fill="#47544c"/><rect x="1890" y="750" width="30" height="30" fill="#47544c"/><rect x="1890" y="780" width="30" height="30" fill="#47544c"/><rect x="1890" y="810" width="30" height="30" fill="#47544c"/><rect x="1890" y="840" width="30" height="30" fill="#47544c"/><rect x="1890" y="870" width="30" height="30" fill="#47544c"/><rect x="1890" y="900" width="30" height="30" fill="#47544c"/><rect x="1890" y="930" width="30" height="30" fill="#47544c"/><rect x="1890" y="960" width="30" height="30" fill="#47544c"/><rect x="1890" y="990" width="30" height="30" fill="#47544c"/><rect x="1890" y="1020" width="30" height="30" fill="#47544c"/><rect x="1890" y="1050" width="30" height="30" fill="#47544c"/><rect x="1890" y="1080" width="30" height="30" fill="#47544c"/><rect x="1890" y="1110" width="30" height="30" fill="#47544c"/><rect x="180" y="300" width="30" height="30" fill="#47544c"/><rect x="210" y="300" width="30" height="30" fill="#47544c"/><rect x="240" y="300" width="30" height="30" fill="#47544c"/><rect x="270" y="300" width="30" height="30" fill="#47544c"/><rect x="300" y="300" width="30" height="30" fill="#47544c"/><rect x="330" y="300" width="30" height="30" fill="#47544c"/><rect x="360" y="300" width="30" height="30" fill="#47544c"/><rect x="1530" y="300" width="30" height="30" fill="#47544c"/><rect x="1560" y="300" width="30" height="30" fill="#47544c"/><rect x="1590" y="300" width="30" height="30" fill="#47544c"/><rect x="1620" y="300" width="30" height="30" fill="#47544c"/><rect x="1650" y="300" width="30" height="30" fill="#47544c"/><rect x="1680" y="300" width="30" height="30" fill="#47544c"/><rect x="1710" y="300" width="30" height="30" fill="#47544c"/><rect x="1740" y="300" width="30" height="30" fill="#47544c"/><rect x="1770" y="300" width="30" height="30" fill="#47544c"/><rect x="1230" y="270" width="30" height="30" fill="#47544c"/><rect x="1260" y="270" width="30" height="30" fill="#47544c"/><rect x="1290" y="270" width="30" height="30" fill="#47544c"/><rect x="1320" y="270" width="30" height="30" fill="#47544c"/><rect x="1350" y="270" width="30" height="30" fill="#47544c"/><rect x="780" y="1020" width="30" height="30" fill="#47544c"/><rect x="810" y="1020" width="30" height="30" fill="#47544c"/><rect x="840" y="1020" width="30" height="30" fill="#47544c"/><rect x="870" y="1020" width="30" height="30" fill="#47544c"/><rect x="900" y="1020" width="30" height="30" fill="#47544c"/><rect x="930" y="1020" width="30" height="30" fill="#47544c"/><rect x="960" y="1020" width="30" height="30" fill="#47544c"/><rect x="990" y="930" width="30" height="30" fill="#47544c"/><rect x="1020" y="930" width="30" height="30" fill="#47544c"/><rect x="1050" y="930" width="30" height="30" fill="#47544c"/><rect x="1080" y="930" width="30" height="30" fill="#47544c"/><rect x="1110" y="930" width="30" height="30" fill="#47544c"/><rect x="1140" y="930" width="30" height="30" fill="#47544c"/><rect x="1170" y="930" width="30" height="30" fill="#47544c"/><rect x="780" y="840" width="30" height="30" fill="#47544c"/><rect x="810" y="840" width="30" height="30" fill="#47544c"/><rect x="840" y="840" width="30" height="30" fill="#47544c"/><rect x="870" y="840" width="30" height="30" fill="#47544c"/><rect x="900" y="840" width="30" height="30" fill="#47544c"/><rect x="930" y="840" width="30" height="30" fill="#47544c"/><rect x="960" y="840" width="30" height="30" fill="#47544c"/><rect x="870" y="750" width="30" height="30" fill="#47544c"/><rect x="900" y="750" width="30" height="30" fill="#47544c"/><rect x="930" y="750" width="30" height="30" fill="#47544c"/><rect x="960" y="750" width="30" height="30" fill="#47544c"/><rect x="990" y="750" width="30" height="30" fill="#47544c"/><rect x="1020" y="750" width="30" height="30" fill="#47544c"/><rect x="1050" y="750" width="30" height="30" fill="#47544c"/><rect x="240" y="1080" width="30" height="30" fill="#47544c"/><rect x="270" y="1080" width="30" height="30" fill="#47544c"/><rect x="300" y="1080" width="30" height="30" fill="#47544c"/><rect x="330" y="1080" width="30" height="30" fill="#47544c"/><rect x="360" y="1080" width="30" height="30" fill="#47544c"/><path d="M945.0,1126.0 L945.1,1126.1 L987.5,1097.2 L1007.1,1025.1 L1000.2,1043.7 L996.0,1073.6 L1047.7,983.5 L1007.0,990.2 L945.3,977.2 L958.1,905.1 L1022.3,917.0 L1073.9,865.5 L1038.0,811.6 L971.7,827.0 L905.5,798.5 L852.1,775.5 L881.2,721.6 L947.1,737.0 L945.7,737.0 L883.4,737.0 L817.2,760.3 L750.9,870.5 L684.7,1070.4 L618.4,1075.5 L552.2,1021.6 L485.9,1058.3 L419.7,1097.2 L353.4,1025.1 L291.8,1043.7 L304.4,1067.0 L318.6,1067.0 L319.5,1067.0 L319.5,1067.0 L319.5,1067.0 L319.5,1067.0 L319.5,1067.0 L319.5,1067.0 L319.5,1067.0 L319.5,1067.0 L319.5,1067.0 L319.5,1067.0 L319.5,1067.0 L319.5,1067.0 L319.5,1067.0 L319.5,1067.0 L319.5,1067.0 L319.5,1067.0 L319.5,1067.0 L319.5,1067.0 L319.6,1062.4 L362.1,972.3 L413.6,972.7 L401.1,1007.0 L399.6,1007.0 L399.5,997.9 L399.5,958.8 L399.5,919.8 L399.5,880.7 L399.5,841.6 L399.5,802.6 L399.5,763.5 L399.5,724.4 L399.5,685.4 L399.5,646.3 L399.5,607.3 L399.5,568.2 L399.5,529.1 L399.5,490.1 L399.5,451.0 L399.5,411.9 L399.5,372.9 L399.5,333.8 L398.0,294.8 L407.0,257.0 L386.1,257.0 L320.8,287.0 L279.8,287.0 L322.9,287.0 L384.3,287.0 L404.8,297.6 L403.1,344.2 L403.0,383.3 L403.0,422.4 L403.0,461.4 L403.0,500.5 L403.0,539.6 L403.0,578.6 L403.0,617.7 L403.0,656.7 L403.0,695.8 L403.0,734.9 L403.0,773.9 L403.0,813.0 L403.0,852.1 L403.0,891.1 L403.0,930.2 L403.0,969.2 L403.0,1007.0 L403.0,1007.0 L403.0,1007.0 L403.0,1007.0 L403.0,1007.0 L403.0,997.9 L403.0,958.8 L403.0,919.8 L403.0,880.7 L403.0,841.6 L403.0,802.6 L403.0,763.5 L403.0,724.4 L403.0,685.4 L403.0,646.3 L403.0,607.3 L403.0,568.2 L403.0,529.1 L403.0,490.1 L403.0,451.0 L403.0,411.9 L403.0,372.9 L403.0,333.8 L403.0,294.8 L412.2,257.0 L472.0,257.0 L538.3,257.0 L604.5,166.8 L670.8,167.3 L723.5,227.0 L692.4,227.0 L655.2,227.0 L619.0,227.0 L619.0,227.0 L619.0,227.0 L619.0,227.0 L650.3,227.0 L687.8,227.0 L725.3,227.0 L762.8,227.0 L800.3,227.0 L837.8,227.0 L875.3,227.0 L912.8,227.0 L950.3,227.0 L987.8,227.0 L1025.3,227.0 L1062.8,227.0 L1108.3,227.0 L1168.1,227.0 L1234.3,234.9 L1277.6,257.0 L1334.6,257.0 L1400.8,259.1 L1467.1,179.7 L1533.3,162.0 L1599.6,235.0 L1661.2,287.0 L1672.2,287.0 L1672.9,287.0 L1673.0,287.0 L1673.0,287.0 L1673.0,287.0 L1673.0,287.0 L1673.0,287.0 L1673.0,287.0 L1673.0,287.0 L1673.0,287.0 L1673.0,287.0 L1673.0,287.0 L1673.0,287.0 L1673.0,287.0 L1673.0,287.0 L1673.0,287.0 L1673.0,287.0 L1673.0,287.0 L1673.0,287.0 L1673.0,287.0 L1673.0,287.0 L1673.0,287.0 L1673.0,287.0 L1673.0,287.0 L1673.0,287.0 L1673.0,287.0 L1672.9,287.0 L1630.4,287.0 L1564.4,287.0 L1545.0,287.0 L1532.0,287.0 L1515.6,294.9 L1472.6,333.2 L1466.6,370.7 L1466.2,408.2 L1466.2,445.7 L1466.2,483.2 L1466.2,520.7 L1466.2,558.2 L1466.2,595.7 L1466.2,633.2 L1466.2,670.7 L1466.2,708.2 L1466.2,745.7 L1466.2,783.2 L1466.2,820.7 L1466.2,858.2 L1466.2,895.7 L1466.2,933.2 L1466.2,970.7 L1456.9,1007.0 L1397.1,1007.0 L1330.9,1026.1 L1264.6,1127.0 L1198.4,1127.0 L1132.1,1127.0 L1065.9,1127.0" fill="none" stroke="#227dd1" stroke-width="4" opacity=".7"/><circle cx="285" cy="285" r="20" fill="#fbd479"/><text x="285" y="291" text-anchor="middle" font-size="22">A</text><circle cx="1665" cy="285" r="20" fill="#fbd479"/><text x="1665" y="291" text-anchor="middle" font-size="22">B</text><circle cx="945" cy="735" r="20" fill="#fbd479"/><text x="945" y="741" text-anchor="middle" font-size="22">C</text><rect x="990" y="1110" width="30" height="30" fill="#52a571"/></svg>