<svg xmlns="http://www.w3.org/2000/svg" viewBox="0 0 1440 720" width="480" height="240"><title>Firing line: verified Medium route</title><rect width="100%" height="100%" fill="#edf1e7"/><rect x="0" y="660" width="30" height="30" fill="#47544c"/><rect x="30" y="660" width="30" height="30" fill="#47544c"/><rect x="60" y="660" width="30" height="30" fill="#47544c"/><rect x="90" y="660" width="30" height="30" fill="#47544c"/><rect x="120" y="660" width="30" height="30" fill="#47544c"/><rect x="150" y="660" width="30" height="30" fill="#47544c"/><rect x="180" y="660" width="30" height="30" fill="#47544c"/><rect x="210" y="660" width="30" height="30" fill="#47544c"/><rect x="240" y="660" width="30" height="30" fill="#47544c"/><rect x="270" y="660" width="30" height="30" fill="#47544c"/><rect x="300" y="660" width="30" height="30" fill="#47544c"/><rect x="330" y="660" width="30" height="30" fill="#47544c"/><rect x="360" y="660" width="30" height="30" fill="#47544c"/><rect x="390" y="660" width="30" height="30" fill="#47544c"/><rect x="420" y="660" width="30" height="30" fill="#47544c"/><rect x="450" y="660" width="30" height="30" fill="#47544c"/><rect x="480" y="660" width="30" height="30" fill="#47544c"/><rect x="510" y="660" width="30" height="30" fill="#47544c"/><rect x="540" y="660" width="30" height="30" fill="#47544c"/><rect x="570" y="660" width="30" height="30" fill="#47544c"/><rect x="600" y="660" width="30" height="30" fill="#47544c"/><rect x="630" y="660" width="30" height="30" fill="#47544c"/><rect x="660" y="660" width="30" height="30" fill="#47544c"/><rect x="690" y="660" width="30" height="30" fill="#47544c"/><rect x="720" y="660" width="30" height="30" fill="#47544c"/><rect x="750" y="660" width="30" height="30" fill="#47544c"/><rect x="780" y="660" width="30" height="30" fill="#47544c"/><rect x="810" y="660" width="30" height="30" fill="#47544c"/><rect x="840" y="660" width="30" height="30" fill="#47544c"/><rect x="870" y="660" width="30" height="30" fill="#47544c"/><rect x="900" y="660" width="30" height="30" fill="#47544c"/><rect x="930" y="660" width="30" height="30" fill="#47544c"/><rect x="960" y="660" width="30" height="30" fill="#47544c"/><rect x="990" y="660" width="30" height="30" fill="#47544c"/><rect x="1020" y="660" width="30" height="30" fill="#47544c"/><rect x="1050" y="660" width="30" height="30" fill="#47544c"/><rect x="1080" y="660" width="30" height="30" fill="#47544c"/><rect x="1110" y="660" width="30" height="30" fill="#47544c"/><rect x="1140" y="660" width="30" height="30" fill="#47544c"/><rect x="1170" y="660" width="30" height="30" fill="#47544c"/><rect x="1200" y="660" width="30" height="30" fill="#47544c"/><rect x="1230" y="660" width="30" height="30" fill="#47544c"/><rect x="1260" y="660" width="30" height="30" fill="#47544c"/><rect x="1290" y="660" width="30" height="30" fill="#47544c"/><rect x="1320" y="660" width="30" height="30" fill="#47544c"/><rect x="1350" y="660" width="30" height="30" fill="#47544c"/><rect x="1380" y="660" width="30" height="30" fill="#47544c"/><rect x="1410" y="660" width="30" height="30" fill="#47544c"/><rect x="0" y="690" width="30" height="30" fill="#47544c"/><rect x="30" y="690" width="30" height="30" fill="#47544c"/><rect x="60" y="690" width="30" height="30" fill="#47544c"/><rect x="90" y="690" width="30" height="30" fill="#47544c"/><rect x="120" y="690" width="30" height="30" fill="#47544c"/><rect x="150" y="690" width="30" height="30" fill="#47544c"/><rect x="180" y="690" width="30" height="30" fill="#47544c"/><rect x="210" y="690" width="30" height="30" fill="#47544c"/><rect x="240" y="690" width="30" height="30" fill="#47544c"/><rect x="270" y="690" width="30" height="30" fill="#47544c"/><rect x="300" y="690" width="30" height="30" fill="#47544c"/><rect x="330" y="690" width="30" height="30" fill="#47544c"/><rect x="360" y="690" width="30" height="30" fill="#47544c"/><rect x="390" y="690" width="30" height="30" fill="#47544c"/><rect x="420" y="690" width="30" height="30" fill="#47544c"/><rect x="450" y="690" width="30" height="30" fill="#47544c"/><rect x="480" y="690" width="30" height="30" fill="#47544c"/><rect x="510" y="690" width="30" height="30" fill="#47544c"/><rect x="540" y="690" width="30" height="30" fill="#47544c"/><rect x="570" y="690" width="30" height="30" fill="#47544c"/><rect x="600" y="690" width="30" height="30" fill="#47544c"/><rect x="630" y="690" width="30" height="30" fill="#47544c"/><rect x="660" y="690" width="30" height="30" fill="#47544c"/><rect x="690" y="690" width="30" height="30" fill="#47544c"/><rect x="720" y="690" width="30" height="30" fill="#47544c"/><rect x="750" y="690" width="30" height="30" fill="#47544c"/><rect x="780" y="690" width="30" height="30" fill="#47544c"/><rect x="810" y="690" width="30" height="30" fill="#47544c"/><rect x="840" y="690" width="30" height="30" fill="#47544c"/><rect x="870" y="690" width="30" height="30" fill="#47544c"/><rect x="900" y="690" width="30" height="30" fill="#47544c"/><rect x="930" y="690" width="30" height="30" fill="#47544c"/><rect x="960" y="690" width="30" height="30" fill="#47544c"/><rect x="990" y="690" width="30" height="30" fill="#47544c"/><rect x="1020" y="690" width="30" height="30" fill="#47544c"/><rect x="1050" y="690" width="30" height="30" fill="#47544c"/><rect x="1080" y="690" width="30" height="30" fill="#47544c"/><rect x="1110" y="690" width="30" height="30" fill="#47544c"/><rect x="1140" y="690" width="30" height="30" fill="#47544c"/><rect x="1170" y="690" width="30" height="30" fill="#47544c"/><rect x="1200" y="690" width="30" height="30" fill="#47544c"/><rect x="1230" y="690" width="30" height="30" fill="#47544c"/><rect x="1260" y="690" width="30" height="30" fill="#47544c"/><rect x="1290" y="690" width="30" height="30" fill="#47544c"/><rect x="1320" y="690" width="30" height="30" fill="#47544c"/><rect x="1350" y="690" width="30" height="30" fill="#47544c"/><rect x="1380" y="690" width="30" height="30" fill="#47544c"/><rect x="1410" y="690" width="30" height="30" fill="#47544c"/><rect x="0" y="0" width="30" height="30" fill="#47544c"/><rect x="30" y="0" width="30" height="30" fill="#47544c"/><rect x="60" y="0" width="30" height="30" fill="#47544c"/><rect x="90" y="0" width="30" height="30" fill="#47544c"/><rect x="120" y="0" width="30" height="30" fill="#47544c"/><rect x="150" y="0" width="30" height="30" fill="#47544c"/><rect x="180" y="0" width="30" height="30" fill="#47544c"/><rect x="210" y="0" width="30" height="30" fill="#47544c"/><rect x="240" y="0" width="30" height="30" fill="#47544c"/><rect x="270" y="0" width="30" height="30" fill="#47544c"/><rect x="300" y="0" width="30" height="30" fill="#47544c"/><rect x="330" y="0" width="30" height="30" fill="#47544c"/><rect x="360" y="0" width="30" height="30" fill="#47544c"/><rect x="390" y="0" width="30" height="30" fill="#47544c"/><rect x="420" y="0" width="30" height="30" fill="#47544c"/><rect x="450" y="0" width="30" height="30" fill="#47544c"/><rect x="480" y="0" width="30" height="30" fill="#47544c"/><rect x="510" y="0" width="30" height="30" fill="#47544c"/><rect x="540" y="0" width="30" height="30" fill="#47544c"/><rect x="570" y="0" width="30" height="30" fill="#47544c"/><rect x="600" y="0" width="30" height="30" fill="#47544c"/><rect x="630" y="0" width="30" height="30" fill="#47544c"/><rect x="660" y="0" width="30" height="30" fill="#47544c"/><rect x="690" y="0" width="30" height="30" fill="#47544c"/><rect x="720" y="0" width="30" height="30" fill="#47544c"/><rect x="750" y="0" width="30" height="30" fill="#47544c"/><rect x="780" y="0" width="30" height="30" fill="#47544c"/><rect x="810" y="0" width="30" height="30" fill="#47544c"/><rect x="840" y="0" width="30" height="30" fill="#47544c"/><rect x="870" y="0" width="30" height="30" fill="#47544c"/><rect x="900" y="0" width="30" height="30" fill="#47544c"/><rect x="930" y="0" width="30" height="30" fill="#47544c"/><rect x="960" y="0" width="30" height="30" fill="#47544c"/><rect x="990" y="0" width="30" height="30" fill="#47544c"/><rect x="1020" y="0" width="30" height="30" fill="#47544c"/><rect x="1050" y="0" width="30" height="30" fill="#47544c"/><rect x="1080" y="0" width="30" height="30" fill="#47544c"/><rect x="1110" y="0" width="30" height="30" fill="#47544c"/><rect x="1140" y="0" width="30" height="30" fill="#47544c"/><rect x="1170" y="0" width="30" height="30" fill="#47544c"/><rect x="1200" y="0" width="30" height="30" fill="#47544c"/><rect x="1230" y="0" width="30" height="30" fill="#47544c"/><rect x="1260" y="0" width="30" height="30" fill="#47544c"/><rect x="1290" y="0" width="30" height="30" fill="#47544c"/><rect x="1320" y="0" width="30" height="30" fill="#47544c"/><rect x="1350" y="0" width="30" height="30" fill="#47544c"/><rect x="1380" y="0" width="30" height="30" fill="#47544c"/><rect x="1410" y="0" width="30" height="30" fill="#47544c"/><rect x="0" y="30" width="30" height="30" fill="#47544c"/><rect x="0" y="60" width="30" height="30" fill="#47544c"/><rect x="0" y="90" width="30" height="30" fill="#47544c"/><rect x="0" y="120" width="30" height="30" fill="#47544c"/><rect x="0" y="150" width="30" height="30" fill="#47544c"/><rect x="0" y="180" width="30" height="30" fill="#47544c"/><rect x="0" y="210" width="30" height="30" fill="#47544c"/><rect x="0" y="240" width="30" height="30" fill="#47544c"/><rect x="0" y="270" width="30" height="30" fill="#47544c"/><rect x="0" y="300" width="30" height="30" fill="#47544c"/><rect x="0" y="330" width="30" height="30" fill="#47544c"/><rect x="0" y="360" width="30" height="30" fill="#47544c"/><rect x="0" y="390" width="30" height="30" fill="#47544c"/><rect x="0" y="420" width="30" height="30" fill="#47544c"/><rect x="0" y="450" width="30" height="30" fill="#47544c"/><rect x="0" y="480" width="30" height="30" fill="#47544c"/><rect x="0" y="510" width="30" height="30" fill="#47544c"/><rect x="0" y="540" width="30" height="30" fill="#47544c"/><rect x="0" y="570" width="30" height="30" fill="#47544c"/><rect x="0" y="600" width="30" height="30" fill="#47544c"/><rect x="0" y="630" width="30" height="30" fill="#47544c"/><rect x="1410" y="30" width="30" height="30" fill="#47544c"/><rect x="1410" y="60" width="30" height="30" fill="#47544c"/><rect x="1410" y="90" width="30" height="30" fill="#47544c"/><rect x="1410" y="120" width="30" height="30" fill="#47544c"/><rect x="1410" y="150" width="30" height="30" fill="#47544c"/><rect x="1410" y="180" width="30" height="30" fill="#47544c"/><rect x="1410" y="210" width="30" height="30" fill="#47544c"/><rect x="1410" y="240" width="30" height="30" fill="#47544c"/><rect x="1410" y="270" width="30" height="30" fill="#47544c"/><rect x="1410" y="300" width="30" height="30" fill="#47544c"/><rect x="1410" y="330" width="30" height="30" fill="#47544c"/><rect x="1410" y="360" width="30" height="30" fill="#47544c"/><rect x="1410" y="390" width="30" height="30" fill="#47544c"/><rect x="1410" y="420" width="30" height="30" fill="#47544c"/><rect x="1410" y="450" width="30" height="30" fill="#47544c"/><rect x="1410" y="480" width="30" height="30" fill="#47544c"/><rect x="1410" y="510" width="30" height="30" fill="#47544c"/><rect x="1410" y="540" width="30" height="30" fill="#47544c"/><rect x="1410" y="570" width="30" height="30" fill="#47544c"/><rect x="1410" y="600" width="30" height="30" fill="#47544c"/><rect x="1410" y="630" width="30" height="30" fill="#47544c"/><rect x="270" y="600" width="30" height="30" fill="#47544c"/><rect x="300" y="600" width="30" height="30" fill="#47544c"/><rect x="270" y="630" width="30" height="30" fill="#47544c"/><rect x="300" y="630" width="30" height="30" fill="#47544c"/><rect x="510" y="570" width="30" height="30" fill="#47544c"/><rect x="540" y="570" width="30" height="30" fill="#47544c"/><rect x="510" y="600" width="30" height="30" fill="#47544c"/><rect x="540" y="600" width="30" height="30" fill="#47544c"/><rect x="510" y="630" width="30" height="30" fill="#47544c"/><rect x="540" y="630" width="30" height="30" fill="#47544c"/><rect x="750" y="600" width="30" height="30" fill="#47544c"/><rect x="780" y="600" width="30" height="30" fill="#47544c"/><rect x="750" y="630" width="30" height="30" fill="#47544c"/><rect x="780" y="630" width="30" height="30" fill="#47544c"/><rect x="990" y="570" width="30" height="30" fill="#47544c"/><rect x="1020" y="570" width="30" height="30" fill="#47544c"/><rect x="990" y="600" width="30" height="30" fill="#47544c"/><rect x="1020" y="600" width="30" height="30" fill="#47544c"/><rect x="990" y="630" width="30" height="30" fill="#47544c"/><rect x="1020" y="630" width="30" height="30" fill="#47544c"/><rect x="1140" y="510" width="30" height="30" fill="#47544c"/><rect x="1170" y="510" width="30" height="30" fill="#47544c"/><rect x="1200" y="510" width="30" height="30" fill="#47544c"/><rect x="1230" y="510" width="30" height="30" fill="#47544c"/><rect x="1260" y="510" width="30" height="30" fill="#47544c"/><rect x="1290" y="510" width="30" height="30" fill="#47544c"/><rect x="1320" y="510" width="30" height="30" fill="#47544c"/><path d="M105.0,646.0 L105.1,646.1 L147.5,577.5 L213.8,541.7 L280.0,587.0 L317.9,535.5 L380.3,481.6 L446.5,518.3 L493.5,645.7 L502.0,563.1 L533.6,545.4 L571.4,557.0 L633.7,592.3 L700.0,595.5 L766.2,541.6 L785.8,578.3 L794.3,517.5 L856.9,481.7 L923.1,536.5 L982.0,642.4 L982.3,552.3 L1026.6,552.7 L1061.6,557.3 L1127.0,610.2 L1193.2,647.0 L1259.3,642.4 L1257.9,553.0 L1195.6,599.8 L1129.4,617.2 L1063.1,545.1 L1022.2,557.0 L1006.4,557.0 L942.0,576.1 L875.8,642.4 L828.8,552.3 L794.9,552.7 L778.2,557.2 L723.4,485.1 L657.2,503.7 L591.1,612.9 L578.0,577.5 L558.2,541.7 L540.4,557.0 L485.5,560.6 L419.2,631.6 L353.0,563.1 L291.3,545.4 L303.9,587.0 L291.6,587.0 L227.3,600.7" fill="none" stroke="#227dd1" stroke-width="4" opacity=".7"/><circle cx="1275" cy="645" r="20" fill="#fbd479"/><text x="1275" y="651" text-anchor="middle" font-size="22">A</text><rect x="150" y="630" width="30" height="30" fill="#52a571"/></svg>