<svg xmlns="http://www.w3.org/2000/svg" viewBox="0 0 1440 1200" width="480" height="400"><title>Caught looking: verified Medium route</title><rect width="100%" height="100%" fill="#edf1e7"/><rect x="0" y="1140" width="30" height="30" fill="#47544c"/><rect x="30" y="1140" width="30" height="30" fill="#47544c"/><rect x="60" y="1140" width="30" height="30" fill="#47544c"/><rect x="90" y="1140" width="30" height="30" fill="#47544c"/><rect x="120" y="1140" width="30" height="30" fill="#47544c"/><rect x="150" y="1140" width="30" height="30" fill="#47544c"/><rect x="180" y="1140" width="30" height="30" fill="#47544c"/><rect x="210" y="1140" width="30" height="30" fill="#47544c"/><rect x="240" y="1140" width="30" height="30" fill="#47544c"/><rect x="270" y="1140" width="30" height="30" fill="#47544c"/><rect x="300" y="1140" width="30" height="30" fill="#47544c"/><rect x="330" y="1140" width="30" height="30" fill="#47544c"/><rect x="360" y="1140" width="30" height="30" fill="#47544c"/><rect x="390" y="1140" width="30" height="30" fill="#47544c"/><rect x="420" y="1140" width="30" height="30" fill="#47544c"/><rect x="450" y="1140" width="30" height="30" fill="#47544c"/><rect x="480" y="1140" width="30" height="30" fill="#47544c"/><rect x="510" y="1140" width="30" height="30" fill="#47544c"/><rect x="540" y="1140" width="30" height="30" fill="#47544c"/><rect x="570" y="1140" width="30" height="30" fill="#47544c"/><rect x="600" y="1140" width="30" height="30" fill="#47544c"/><rect x="630" y="1140" width="30" height="30" fill="#47544c"/><rect x="660" y="1140" width="30" height="30" fill="#47544c"/><rect x="690" y="1140" width="30" height="30" fill="#47544c"/><rect x="720" y="1140" width="30" height="30" fill="#47544c"/><rect x="750" y="1140" width="30" height="30" fill="#47544c"/><rect x="780" y="1140" width="30" height="30" fill="#47544c"/><rect x="810" y="1140" width="30" height="30" fill="#47544c"/><rect x="840" y="1140" width="30" height="30" fill="#47544c"/><rect x="870" y="1140" width="30" height="30" fill="#47544c"/><rect x="900" y="1140" width="30" height="30" fill="#47544c"/><rect x="930" y="1140" width="30" height="30" fill="#47544c"/><rect x="960" y="1140" width="30" height="30" fill="#47544c"/><rect x="990" y="1140" width="30" height="30" fill="#47544c"/><rect x="1020" y="1140" width="30" height="30" fill="#47544c"/><rect x="1050" y="1140" width="30" height="30" fill="#47544c"/><rect x="1080" y="1140" width="30" height="30" fill="#47544c"/><rect x="1110" y="1140" width="30" height="30" fill="#47544c"/><rect x="1140" y="1140" width="30" height="30" fill="#47544c"/><rect x="1170" y="1140" width="30" height="30" fill="#47544c"/><rect x="1200" y="1140" width="30" height="30" fill="#47544c"/><rect x="1230" y="1140" width="30" height="30" fill="#47544c"/><rect x="1260" y="1140" width="30" height="30" fill="#47544c"/><rect x="1290" y="1140" width="30" height="30" fill="#47544c"/><rect x="1320" y="1140" width="30" height="30" fill="#47544c"/><rect x="1350" y="1140" width="30" height="30" fill="#47544c"/><rect x="1380" y="1140" width="30" height="30" fill="#47544c"/><rect x="1410" y="1140" width="30" height="30" fill="#47544c"/><rect x="0" y="1170" width="30" height="30" fill="#47544c"/><rect x="30" y="1170" width="30" height="30" fill="#47544c"/><rect x="60" y="1170" width="30" height="30" fill="#47544c"/><rect x="90" y="1170" width="30" height="30" fill="#47544c"/><rect x="120" y="1170" width="30" height="30" fill="#47544c"/><rect x="150" y="1170" width="30" height="30" fill="#47544c"/><rect x="180" y="1170" width="30" height="30" fill="#47544c"/><rect x="210" y="1170" width="30" height="30" fill="#47544c"/><rect x="240" y="1170" width="30" height="30" fill="#47544c"/><rect x="270" y="1170" width="30" height="30" fill="#47544c"/><rect x="300" y="1170" width="30" height="30" fill="#47544c"/><rect x="330" y="1170" width="30" height="30" fill="#47544c"/><rect x="360" y="1170" width="30" height="30" fill="#47544c"/><rect x="390" y="1170" width="30" height="30" fill="#47544c"/><rect x="420" y="1170" width="30" height="30" fill="#47544c"/><rect x="450" y="1170" width="30" height="30" fill="#47544c"/><rect x="480" y="1170" width="30" height="30" fill="#47544c"/><rect x="510" y="1170" width="30" height="30" fill="#47544c"/><rect x="540" y="1170" width="30" height="30" fill="#47544c"/><rect x="570" y="1170" width="30" height="30" fill="#47544c"/><rect x="600" y="1170" width="30" height="30" fill="#47544c"/><rect x="630" y="1170" width="30" height="30" fill="#47544c"/><rect x="660" y="1170" width="30" height="30" fill="#47544c"/><rect x="690" y="1170" width="30" height="30" fill="#47544c"/><rect x="720" y="1170" width="30" height="30" fill="#47544c"/><rect x="750" y="1170" width="30" height="30" fill="#47544c"/><rect x="780" y="1170" width="30" height="30" fill="#47544c"/><rect x="810" y="1170" width="30" height="30" fill="#47544c"/><rect x="840" y="1170" width="30" height="30" fill="#47544c"/><rect x="870" y="1170" width="30" height="30" fill="#47544c"/><rect x="900" y="1170" width="30" height="30" fill="#47544c"/><rect x="930" y="1170" width="30" height="30" fill="#47544c"/><rect x="960" y="1170" width="30" height="30" fill="#47544c"/><rect x="990" y="1170" width="30" height="30" fill="#47544c"/><rect x="1020" y="1170" width="30" height="30" fill="#47544c"/><rect x="1050" y="1170" width="30" height="30" fill="#47544c"/><rect x="1080" y="1170" width="30" height="30" fill="#47544c"/><rect x="1110" y="1170" width="30" height="30" fill="#47544c"/><rect x="1140" y="1170" width="30" height="30" fill="#47544c"/><rect x="1170" y="1170" width="30" height="30" fill="#47544c"/><rect x="1200" y="1170" width="30" height="30" fill="#47544c"/><rect x="1230" y="1170" width="30" height="30" fill="#47544c"/><rect x="1260" y="1170" width="30" height="30" fill="#47544c"/><rect x="1290" y="1170" width="30" height="30" fill="#47544c"/><rect x="1320" y="1170" width="30" height="30" fill="#47544c"/><rect x="1350" y="1170" width="30" height="30" fill="#47544c"/><rect x="1380" y="1170" width="30" height="30" fill="#47544c"/><rect x="1410" y="1170" width="30" height="30" fill="#47544c"/><rect x="0" y="0" width="30" height="30" fill="#47544c"/><rect x="30" y="0" width="30" height="30" fill="#47544c"/><rect x="60" y="0" width="30" height="30" fill="#47544c"/><rect x="90" y="0" width="30" height="30" fill="#47544c"/><rect x="120" y="0" width="30" height="30" fill="#47544c"/><rect x="150" y="0" width="30" height="30" fill="#47544c"/><rect x="180" y="0" width="30" height="30" fill="#47544c"/><rect x="210" y="0" width="30" height="30" fill="#47544c"/><rect x="240" y="0" width="30" height="30" fill="#47544c"/><rect x="270" y="0" width="30" height="30" fill="#47544c"/><rect x="300" y="0" width="30" height="30" fill="#47544c"/><rect x="330" y="0" width="30" height="30" fill="#47544c"/><rect x="360" y="0" width="30" height="30" fill="#47544c"/><rect x="390" y="0" width="30" height="30" fill="#47544c"/><rect x="420" y="0" width="30" height="30" fill="#47544c"/><rect x="450" y="0" width="30" height="30" fill="#47544c"/><rect x="480" y="0" width="30" height="30" fill="#47544c"/><rect x="510" y="0" width="30" height="30" fill="#47544c"/><rect x="540" y="0" width="30" height="30" fill="#47544c"/><rect x="570" y="0" width="30" height="30" fill="#47544c"/><rect x="600" y="0" width="30" height="30" fill="#47544c"/><rect x="630" y="0" width="30" height="30" fill="#47544c"/><rect x="660" y="0" width="30" height="30" fill="#47544c"/><rect x="690" y="0" width="30" height="30" fill="#47544c"/><rect x="720" y="0" width="30" height="30" fill="#47544c"/><rect x="750" y="0" width="30" height="30" fill="#47544c"/><rect x="780" y="0" width="30" height="30" fill="#47544c"/><rect x="810" y="0" width="30" height="30" fill="#47544c"/><rect x="840" y="0" width="30" height="30" fill="#47544c"/><rect x="870" y="0" width="30" height="30" fill="#47544c"/><rect x="900" y="0" width="30" height="30" fill="#47544c"/><rect x="930" y="0" width="30" height="30" fill="#47544c"/><rect x="960" y="0" width="30" height="30" fill="#47544c"/><rect x="990" y="0" width="30" height="30" fill="#47544c"/><rect x="1020" y="0" width="30" height="30" fill="#47544c"/><rect x="1050" y="0" width="30" height="30" fill="#47544c"/><rect x="1080" y="0" width="30" height="30" fill="#47544c"/><rect x="1110" y="0" width="30" height="30" fill="#47544c"/><rect x="1140" y="0" width="30" height="30" fill="#47544c"/><rect x="1170" y="0" width="30" height="30" fill="#47544c"/><rect x="1200" y="0" width="30" height="30" fill="#47544c"/><rect x="1230" y="0" width="30" height="30" fill="#47544c"/><rect x="1260" y="0" width="30" height="30" fill="#47544c"/><rect x="1290" y="0" width="30" height="30" fill="#47544c"/><rect x="1320" y="0" width="30" height="30" fill="#47544c"/><rect x="1350" y="0" width="30" height="30" fill="#47544c"/><rect x="1380" y="0" width="30" height="30" fill="#47544c"/><rect x="1410" y="0" width="30" height="30" fill="#47544c"/><rect x="0" y="30" width="30" height="30" fill="#47544c"/><rect x="0" y="60" width="30" height="30" fill="#47544c"/><rect x="0" y="90" width="30" height="30" fill="#47544c"/><rect x="0" y="120" width="30" height="30" fill="#47544c"/><rect x="0" y="150" width="30" height="30" fill="#47544c"/><rect x="0" y="180" width="30" height="30" fill="#47544c"/><rect x="0" y="210" width="30" height="30" fill="#47544c"/><rect x="0" y="240" width="30" height="30" fill="#47544c"/><rect x="0" y="270" width="30" height="30" fill="#47544c"/><rect x="0" y="300" width="30" height="30" fill="#47544c"/><rect x="0" y="330" width="30" height="30" fill="#47544c"/><rect x="0" y="360" width="30" height="30" fill="#47544c"/><rect x="0" y="390" width="30" height="30" fill="#47544c"/><rect x="0" y="420" width="30" height="30" fill="#47544c"/><rect x="0" y="450" width="30" height="30" fill="#47544c"/><rect x="0" y="480" width="30" height="30" fill="#47544c"/><rect x="0" y="510" width="30" height="30" fill="#47544c"/><rect x="0" y="540" width="30" height="30" fill="#47544c"/><rect x="0" y="570" width="30" height="30" fill="#47544c"/><rect x="0" y="600" width="30" height="30" fill="#47544c"/><rect x="0" y="630" width="30" height="30" fill="#47544c"/><rect x="0" y="660" width="30" height="30" fill="#47544c"/><rect x="0" y="690" width="30" height="30" fill="#47544c"/><rect x="0" y="720" width="30" height="30" fill="#47544c"/><rect x="0" y="750" width="30" height="30" fill="#47544c"/><rect x="0" y="780" width="30" height="30" fill="#47544c"/><rect x="0" y="810" width="30" height="30" fill="#47544c"/><rect x="0" y="840" width="30" height="30" fill="#47544c"/><rect x="0" y="870" width="30" height="30" fill="#47544c"/><rect x="0" y="900" width="30" height="30" fill="#47544c"/><rect x="0" y="930" width="30" height="30" fill="#47544c"/><rect x="0" y="960" width="30" height="30" fill="#47544c"/><rect x="0" y="990" width="30" height="30" fill="#47544c"/><rect x="0" y="1020" width="30" height="30" fill="#47544c"/><rect x="0" y="1050" width="30" height="30" fill="#47544c"/><rect x="0" y="1080" width="30" height="30" fill="#47544c"/><rect x="0" y="1110" width="30" height="30" fill="#47544c"/><rect x="1410" y="30" width="30" height="30" fill="#47544c"/><rect x="1410" y="60" width="30" height="30" fill="#47544c"/><rect x="1410" y="90" width="30" height="30" fill="#47544c"/><rect x="1410" y="120" width="30" height="30" fill="#47544c"/><rect x="1410" y="150" width="30" height="30" fill="#47544c"/><rect x="1410" y="180" width="30" height="30" fill="#47544c"/><rect x="1410" y="210" width="30" height="30" fill="#47544c"/><rect x="1410" y="240" width="30" height="30" fill="#47544c"/><rect x="1410" y="270" width="30" height="30" fill="#47544c"/><rect x="1410" y="300" width="30" height="30" fill="#47544c"/><rect x="1410" y="330" width="30" height="30" fill="#47544c"/><rect x="1410" y="360" width="30" height="30" fill="#47544c"/><rect x="1410" y="390" width="30" height="30" fill="#47544c"/><rect x="1410" y="420" width="30" height="30" fill="#47544c"/><rect x="1410" y="450" width="30" height="30" fill="#47544c"/><rect x="1410" y="480" width="30" height="30" fill="#47544c"/><rect x="1410" y="510" width="30" height="30" fill="#47544c"/><rect x="1410" y="540" width="30" height="30" fill="#47544c"/><rect x="1410" y="570" width="30" height="30" fill="#47544c"/><rect x="1410" y="600" width="30" height="30" fill="#47544c"/><rect x="1410" y="630" width="30" height="30" fill="#47544c"/><rect x="1410" y="660" width="30" height="30" fill="#47544c"/><rect x="1410" y="690" width="30" height="30" fill="#47544c"/><rect x="1410" y="720" width="30" height="30" fill="#47544c"/><rect x="1410" y="750" width="30" height="30" fill="#47544c"/><rect x="1410" y="780" width="30" height="30" fill="#47544c"/><rect x="1410" y="810" width="30" height="30" fill="#47544c"/><rect x="1410" y="840" width="30" height="30" fill="#47544c"/><rect x="1410" y="870" width="30" height="30" fill="#47544c"/><rect x="1410" y="900" width="30" height="30" fill="#47544c"/><rect x="1410" y="930" width="30" height="30" fill="#47544c"/><rect x="1410" y="960" width="30" height="30" fill="#47544c"/><rect x="1410" y="990" width="30" height="30" fill="#47544c"/><rect x="1410" y="1020" width="30" height="30" fill="#47544c"/><rect x="1410" y="1050" width="30" height="30" fill="#47544c"/><rect x="1410" y="1080" width="30" height="30" fill="#47544c"/><rect x="1410" y="1110" width="30" height="30" fill="#47544c"/><rect x="270" y="1050" width="30" height="30" fill="#47544c"/><rect x="300" y="1050" width="30" height="30" fill="#47544c"/><rect x="330" y="1050" width="30" height="30" fill="#47544c"/><rect x="360" y="1050" width="30" height="30" fill="#47544c"/><rect x="390" y="1050" width="30" height="30" fill="#47544c"/><rect x="420" y="1050" width="30" height="30" fill="#47544c"/><rect x="510" y="960" width="30" height="30" fill="#47544c"/><rect x="540" y="960" width="30" height="30" fill="#47544c"/><rect x="570" y="960" width="30" height="30" fill="#47544c"/><rect x="600" y="960" width="30" height="30" fill="#47544c"/><rect x="630" y="960" width="30" height="30" fill="#47544c"/><rect x="660" y="960" width="30" height="30" fill="#47544c"/><rect x="270" y="870" width="30" height="30" fill="#47544c"/><rect x="300" y="870" width="30" height="30" fill="#47544c"/><rect x="330" y="870" width="30" height="30" fill="#47544c"/><rect x="360" y="870" width="30" height="30" fill="#47544c"/><rect x="390" y="870" width="30" height="30" fill="#47544c"/><rect x="420" y="870" width="30" height="30" fill="#47544c"/><rect x="510" y="840" width="30" height="30" fill="#47544c"/><rect x="540" y="840" width="30" height="30" fill="#47544c"/><rect x="570" y="840" width="30" height="30" fill="#47544c"/><rect x="600" y="840" width="30" height="30" fill="#47544c"/><rect x="630" y="840" width="30" height="30" fill="#47544c"/><rect x="660" y="840" width="30" height="30" fill="#47544c"/><rect x="660" y="360" width="30" height="30" fill="#47544c"/><rect x="690" y="360" width="30" height="30" fill="#47544c"/><rect x="720" y="360" width="30" height="30" fill="#47544c"/><rect x="750" y="360" width="30" height="30" fill="#47544c"/><rect x="780" y="360" width="30" height="30" fill="#47544c"/><rect x="660" y="390" width="30" height="30" fill="#47544c"/><rect x="690" y="390" width="30" height="30" fill="#47544c"/><rect x="720" y="390" width="30" height="30" fill="#47544c"/><rect x="750" y="390" width="30" height="30" fill="#47544c"/><rect x="780" y="390" width="30" height="30" fill="#47544c"/><rect x="660" y="420" width="30" height="30" fill="#47544c"/><rect x="690" y="420" width="30" height="30" fill="#47544c"/><rect x="720" y="420" width="30" height="30" fill="#47544c"/><rect x="750" y="420" width="30" height="30" fill="#47544c"/><rect x="780" y="420" width="30" height="30" fill="#47544c"/><rect x="660" y="450" width="30" height="30" fill="#47544c"/><rect x="690" y="450" width="30" height="30" fill="#47544c"/><rect x="720" y="450" width="30" height="30" fill="#47544c"/><rect x="750" y="450" width="30" height="30" fill="#47544c"/><rect x="780" y="450" width="30" height="30" fill="#47544c"/><rect x="660" y="480" width="30" height="30" fill="#47544c"/><rect x="690" y="480" width="30" height="30" fill="#47544c"/><rect x="720" y="480" width="30" height="30" fill="#47544c"/><rect x="750" y="480" width="30" height="30" fill="#47544c"/><rect x="780" y="480" width="30" height="30" fill="#47544c"/><rect x="660" y="510" width="30" height="30" fill="#47544c"/><rect x="690" y="510" width="30" height="30" fill="#47544c"/><rect x="720" y="510" width="30" height="30" fill="#47544c"/><rect x="750" y="510" width="30" height="30" fill="#47544c"/><rect x="780" y="510" width="30" height="30" fill="#47544c"/><rect x="660" y="540" width="30" height="30" fill="#47544c"/><rect x="690" y="540" width="30" height="30" fill="#47544c"/><rect x="720" y="540" width="30" height="30" fill="#47544c"/><rect x="750" y="540" width="30" height="30" fill="#47544c"/><rect x="780" y="540" width="30" height="30" fill="#47544c"/><rect x="660" y="570" width="30" height="30" fill="#47544c"/><rect x="690" y="570" width="30" height="30" fill="#47544c"/><rect x="720" y="570" width="30" height="30" fill="#47544c"/><rect x="750" y="570" width="30" height="30" fill="#47544c"/><rect x="780" y="570" width="30" height="30" fill="#47544c"/><rect x="660" y="600" width="30" height="30" fill="#47544c"/><rect x="690" y="600" width="30" height="30" fill="#47544c"/><rect x="720" y="600" width="30" height="30" fill="#47544c"/><rect x="750" y="600" width="30" height="30" fill="#47544c"/><rect x="780" y="600" width="30" height="30" fill="#47544c"/><rect x="660" y="630" width="30" height="30" fill="#47544c"/><rect x="690" y="630" width="30" height="30" fill="#47544c"/><rect x="720" y="630" width="30" height="30" fill="#47544c"/><rect x="750" y="630" width="30" height="30" fill="#47544c"/><rect x="780" y="630" width="30" height="30" fill="#47544c"/><rect x="660" y="660" width="30" height="30" fill="#47544c"/><rect x="690" y="660" width="30" height="30" fill="#47544c"/><rect x="720" y="660" width="30" height="30" fill="#47544c"/><rect x="750" y="660" width="30" height="30" fill="#47544c"/><rect x="780" y="660" width="30" height="30" fill="#47544c"/><rect x="660" y="690" width="30" height="30" fill="#47544c"/><rect x="690" y="690" width="30" height="30" fill="#47544c"/><rect x="720" y="690" width="30" height="30" fill="#47544c"/><rect x="750" y="690" width="30" height="30" fill="#47544c"/><rect x="780" y="690" width="30" height="30" fill="#47544c"/><rect x="660" y="720" width="30" height="30" fill="#47544c"/><rect x="690" y="720" width="30" height="30" fill="#47544c"/><rect x="720" y="720" width="30" height="30" fill="#47544c"/><rect x="750" y="720" width="30" height="30" fill="#47544c"/><rect x="780" y="720" width="30" height="30" fill="#47544c"/><rect x="660" y="750" width="30" height="30" fill="#47544c"/><rect x="690" y="750" width="30" height="30" fill="#47544c"/><rect x="720" y="750" width="30" height="30" fill="#47544c"/><rect x="750" y="750" width="30" height="30" fill="#47544c"/><rect x="780" y="750" width="30" height="30" fill="#47544c"/><rect x="870" y="870" width="30" height="30" fill="#47544c"/><rect x="900" y="870" width="30" height="30" fill="#47544c"/><rect x="930" y="870" width="30" height="30" fill="#47544c"/><rect x="960" y="870" width="30" height="30" fill="#47544c"/><rect x="990" y="870" width="30" height="30" fill="#47544c"/><rect x="1020" y="870" width="30" height="30" fill="#47544c"/><rect x="1110" y="780" width="30" height="30" fill="#47544c"/><rect x="1140" y="780" width="30" height="30" fill="#47544c"/><rect x="1170" y="780" width="30" height="30" fill="#47544c"/><rect x="1200" y="780" width="30" height="30" fill="#47544c"/><rect x="1230" y="780" width="30" height="30" fill="#47544c"/><rect x="1260" y="780" width="30" height="30" fill="#47544c"/><rect x="1290" y="780" width="30" height="30" fill="#47544c"/><rect x="870" y="690" width="30" height="30" fill="#47544c"/><rect x="900" y="690" width="30" height="30" fill="#47544c"/><rect x="930" y="690" width="30" height="30" fill="#47544c"/><rect x="960" y="690" width="30" height="30" fill="#47544c"/><rect x="990" y="690" width="30" height="30" fill="#47544c"/><rect x="1020" y="690" width="30" height="30" fill="#47544c"/><rect x="1110" y="600" width="30" height="30" fill="#47544c"/><rect x="1140" y="600" width="30" height="30" fill="#47544c"/><rect x="1170" y="600" width="30" height="30" fill="#47544c"/><rect x="1200" y="600" width="30" height="30" fill="#47544c"/><rect x="1230" y="600" width="30" height="30" fill="#47544c"/><rect x="1260" y="600" width="30" height="30" fill="#47544c"/><rect x="1290" y="600" width="30" height="30" fill="#47544c"/><rect x="1080" y="480" width="30" height="30" fill="#47544c"/><rect x="1110" y="480" width="30" height="30" fill="#47544c"/><rect x="1140" y="480" width="30" height="30" fill="#47544c"/><rect x="1170" y="480" width="30" height="30" fill="#47544c"/><rect x="1200" y="480" width="30" height="30" fill="#47544c"/><rect x="1230" y="480" width="30" height="30" fill="#47544c"/><rect x="1260" y="480" width="30" height="30" fill="#47544c"/><rect x="1290" y="480" width="30" height="30" fill="#47544c"/><rect x="1320" y="480" width="30" height="30" fill="#47544c"/><rect x="840" y="390" width="30" height="30" fill="#47544c"/><rect x="870" y="390" width="30" height="30" fill="#47544c"/><rect x="900" y="390" width="30" height="30" fill="#47544c"/><rect x="930" y="390" width="30" height="30" fill="#47544c"/><rect x="960" y="390" width="30" height="30" fill="#47544c"/><rect x="990" y="390" width="30" height="30" fill="#47544c"/><rect x="1020" y="390" width="30" height="30" fill="#47544c"/><rect x="420" y="390" width="30" height="30" fill="#47544c"/><rect x="450" y="390" width="30" height="30" fill="#47544c"/><rect x="480" y="390" width="30" height="30" fill="#47544c"/><rect x="510" y="390" width="30" height="30" fill="#47544c"/><rect x="540" y="390" width="30" height="30" fill="#47544c"/><rect x="570" y="390" width="30" height="30" fill="#47544c"/><rect x="600" y="390" width="30" height="30" fill="#47544c"/><rect x="90" y="300" width="30" height="30" fill="#47544c"/><rect x="120" y="300" width="30" height="30" fill="#47544c"/><rect x="150" y="300" width="30" height="30" fill="#47544c"/><rect x="180" y="300" width="30" height="30" fill="#47544c"/><rect x="210" y="300" width="30" height="30" fill="#47544c"/><rect x="240" y="300" width="30" height="30" fill="#47544c"/><rect x="270" y="300" width="30" height="30" fill="#47544c"/><rect x="300" y="300" width="30" height="30" fill="#47544c"/><rect x="330" y="300" width="30" height="30" fill="#47544c"/><rect x="150" y="480" width="30" height="30" fill="#47544c"/><rect x="180" y="480" width="30" height="30" fill="#47544c"/><rect x="210" y="480" width="30" height="30" fill="#47544c"/><rect x="240" y="480" width="30" height="30" fill="#47544c"/><rect x="270" y="480" width="30" height="30" fill="#47544c"/><rect x="300" y="480" width="30" height="30" fill="#47544c"/><rect x="330" y="480" width="30" height="30" fill="#47544c"/><rect x="360" y="570" width="30" height="30" fill="#47544c"/><rect x="390" y="570" width="30" height="30" fill="#47544c"/><rect x="420" y="570" width="30" height="30" fill="#47544c"/><rect x="450" y="570" width="30" height="30" fill="#47544c"/><rect x="480" y="570" width="30" height="30" fill="#47544c"/><rect x="510" y="570" width="30" height="30" fill="#47544c"/><rect x="150" y="660" width="30" height="30" fill="#47544c"/><rect x="180" y="660" width="30" height="30" fill="#47544c"/><rect x="210" y="660" width="30" height="30" fill="#47544c"/><rect x="240" y="660" width="30" height="30" fill="#47544c"/><rect x="270" y="660" width="30" height="30" fill="#47544c"/><rect x="300" y="660" width="30" height="30" fill="#47544c"/><rect x="330" y="660" width="30" height="30" fill="#47544c"/><rect x="360" y="750" width="30" height="30" fill="#47544c"/><rect x="390" y="750" width="30" height="30" fill="#47544c"/><rect x="420" y="750" width="30" height="30" fill="#47544c"/><rect x="450" y="750" width="30" height="30" fill="#47544c"/><rect x="480" y="750" width="30" height="30" fill="#47544c"/><rect x="510" y="750" width="30" height="30" fill="#47544c"/><rect x="750" y="780" width="30" height="120" fill="#c18b47"/><rect x="750" y="1020" width="30" height="120" fill="#c18b47"/><path d="M165.0,1126.0 L165.1,1126.1 L207.5,1057.5 L273.8,1021.7 L340.0,1007.2 L406.3,935.1 L472.5,953.7 L502.1,1006.5 L462.4,958.1 L467.6,922.4 L530.6,947.0 L582.1,942.4 L546.2,892.2 L503.1,942.4 L457.7,852.3 L413.3,852.7 L372.3,827.2 L415.3,812.1 L481.6,828.2 L547.8,812.1 L614.1,827.0 L680.2,827.0 L709.2,834.9 L736.3,819.3 L803.8,814.1 L859.3,900.0 L806.0,809.9 L844.3,810.3 L910.6,857.0 L948.4,805.5 L1006.0,751.6 L1031.0,788.3 L1081.1,828.2 L1105.8,756.1 L1160.0,767.0 L1179.4,762.4 L1122.6,672.3 L1056.4,672.7 L990.1,677.0 L965.5,593.1 L990.1,575.4 L1042.4,648.4 L1102.0,608.5 L1122.0,572.7 L1186.5,587.0 L1252.7,525.8 L1319.0,587.0 L1385.2,503.2 L1350.8,416.6 L1284.5,380.8 L1222.9,435.7 L1176.9,415.5 L1110.7,361.6 L1085.8,398.3 L1060.8,437.5 L1054.2,365.4 L1000.0,377.0 L933.8,293.1 L867.5,275.4 L801.3,347.0 L735.0,347.0 L668.8,347.0 L602.5,374.8 L536.3,325.5 L470.0,271.6 L438.4,308.3 L392.0,347.8 L364.2,275.7 L310.0,287.0 L256.7,287.0 L285.8,287.0 L351.8,287.0 L418.1,314.8 L437.5,377.0 L385.4,389.1 L398.1,481.2 L433.4,557.0 L385.2,557.0 L319.0,569.1 L252.9,647.0 L254.3,647.0 L316.6,647.0 L382.8,649.8 L434.4,717.8 L398.5,737.0 L332.2,741.5 L266.0,815.5 L199.7,980.2 L133.5,1127.0" fill="none" stroke="#227dd1" stroke-width="4" opacity=".7"/><circle cx="585" cy="825" r="20" fill="#fbd479"/><text x="585" y="831" text-anchor="middle" font-size="22">A</text><circle cx="255" cy="285" r="20" fill="#fbd479"/><text x="255" y="291" text-anchor="middle" font-size="22">B</text><circle cx="1215" cy="465" r="20" fill="#fbd479"/><text x="1215" y="471" text-anchor="middle" font-size="22">C</text><rect x="90" y="1110" width="30" height="30" fill="#52a571"/></svg>