<svg xmlns="http://www.w3.org/2000/svg" viewBox="0 0 1920 1320" width="640" height="440"><title>No place to stare: verified Medium route</title><rect width="100%" height="100%" fill="#edf1e7"/><rect x="0" y="1260" width="30" height="30" fill="#47544c"/><rect x="30" y="1260" width="30" height="30" fill="#47544c"/><rect x="60" y="1260" width="30" height="30" fill="#47544c"/><rect x="90" y="1260" width="30" height="30" fill="#47544c"/><rect x="120" y="1260" width="30" height="30" fill="#47544c"/><rect x="150" y="1260" width="30" height="30" fill="#47544c"/><rect x="180" y="1260" width="30" height="30" fill="#47544c"/><rect x="210" y="1260" width="30" height="30" fill="#47544c"/><rect x="240" y="1260" width="30" height="30" fill="#47544c"/><rect x="270" y="1260" width="30" height="30" fill="#47544c"/><rect x="300" y="1260" width="30" height="30" fill="#47544c"/><rect x="330" y="1260" width="30" height="30" fill="#47544c"/><rect x="360" y="1260" width="30" height="30" fill="#47544c"/><rect x="390" y="1260" width="30" height="30" fill="#47544c"/><rect x="420" y="1260" width="30" height="30" fill="#47544c"/><rect x="450" y="1260" width="30" height="30" fill="#47544c"/><rect x="480" y="1260" width="30" height="30" fill="#47544c"/><rect x="510" y="1260" width="30" height="30" fill="#47544c"/><rect x="540" y="1260" width="30" height="30" fill="#47544c"/><rect x="570" y="1260" width="30" height="30" fill="#47544c"/><rect x="600" y="1260" width="30" height="30" fill="#47544c"/><rect x="630" y="1260" width="30" height="30" fill="#47544c"/><rect x="660" y="1260" width="30" height="30" fill="#47544c"/><rect x="690" y="1260" width="30" height="30" fill="#47544c"/><rect x="720" y="1260" width="30" height="30" fill="#47544c"/><rect x="750" y="1260" width="30" height="30" fill="#47544c"/><rect x="780" y="1260" width="30" height="30" fill="#47544c"/><rect x="810" y="1260" width="30" height="30" fill="#47544c"/><rect x="840" y="1260" width="30" height="30" fill="#47544c"/><rect x="870" y="1260" width="30" height="30" fill="#47544c"/><rect x="900" y="1260" width="30" height="30" fill="#47544c"/><rect x="930" y="1260" width="30" height="30" fill="#47544c"/><rect x="960" y="1260" width="30" height="30" fill="#47544c"/><rect x="990" y="1260" width="30" height="30" fill="#47544c"/><rect x="1020" y="1260" width="30" height="30" fill="#47544c"/><rect x="1050" y="1260" width="30" height="30" fill="#47544c"/><rect x="1080" y="1260" width="30" height="30" fill="#47544c"/><rect x="1110" y="1260" width="30" height="30" fill="#47544c"/><rect x="1140" y="1260" width="30" height="30" fill="#47544c"/><rect x="1170" y="1260" width="30" height="30" fill="#47544c"/><rect x="1200" y="1260" width="30" height="30" fill="#47544c"/><rect x="1230" y="1260" width="30" height="30" fill="#47544c"/><rect x="1260" y="1260" width="30" height="30" fill="#47544c"/><rect x="1290" y="1260" width="30" height="30" fill="#47544c"/><rect x="1320" y="1260" width="30" height="30" fill="#47544c"/><rect x="1350" y="1260" width="30" height="30" fill="#47544c"/><rect x="1380" y="1260" width="30" height="30" fill="#47544c"/><rect x="1410" y="1260" width="30" height="30" fill="#47544c"/><rect x="1440" y="1260" width="30" height="30" fill="#47544c"/><rect x="1470" y="1260" width="30" height="30" fill="#47544c"/><rect x="1500" y="1260" width="30" height="30" fill="#47544c"/><rect x="1530" y="1260" width="30" height="30" fill="#47544c"/><rect x="1560" y="1260" width="30" height="30" fill="#47544c"/><rect x="1590" y="1260" width="30" height="30" fill="#47544c"/><rect x="1620" y="1260" width="30" height="30" fill="#47544c"/><rect x="1650" y="1260" width="30" height="30" fill="#47544c"/><rect x="1680" y="1260" width="30" height="30" fill="#47544c"/><rect x="1710" y="1260" width="30" height="30" fill="#47544c"/><rect x="1740" y="1260" width="30" height="30" fill="#47544c"/><rect x="1770" y="1260" width="30" height="30" fill="#47544c"/><rect x="1800" y="1260" width="30" height="30" fill="#47544c"/><rect x="1830" y="1260" width="30" height="30" fill="#47544c"/><rect x="1860" y="1260" width="30" height="30" fill="#47544c"/><rect x="1890" y="1260" width="30" height="30" fill="#47544c"/><rect x="0" y="1290" width="30" height="30" fill="#47544c"/><rect x="30" y="1290" width="30" height="30" fill="#47544c"/><rect x="60" y="1290" width="30" height="30" fill="#47544c"/><rect x="90" y="1290" width="30" height="30" fill="#47544c"/><rect x="120" y="1290" width="30" height="30" fill="#47544c"/><rect x="150" y="1290" width="30" height="30" fill="#47544c"/><rect x="180" y="1290" width="30" height="30" fill="#47544c"/><rect x="210" y="1290" width="30" height="30" fill="#47544c"/><rect x="240" y="1290" width="30" height="30" fill="#47544c"/><rect x="270" y="1290" width="30" height="30" fill="#47544c"/><rect x="300" y="1290" width="30" height="30" fill="#47544c"/><rect x="330" y="1290" width="30" height="30" fill="#47544c"/><rect x="360" y="1290" width="30" height="30" fill="#47544c"/><rect x="390" y="1290" width="30" height="30" fill="#47544c"/><rect x="420" y="1290" width="30" height="30" fill="#47544c"/><rect x="450" y="1290" width="30" height="30" fill="#47544c"/><rect x="480" y="1290" width="30" height="30" fill="#47544c"/><rect x="510" y="1290" width="30" height="30" fill="#47544c"/><rect x="540" y="1290" width="30" height="30" fill="#47544c"/><rect x="570" y="1290" width="30" height="30" fill="#47544c"/><rect x="600" y="1290" width="30" height="30" fill="#47544c"/><rect x="630" y="1290" width="30" height="30" fill="#47544c"/><rect x="660" y="1290" width="30" height="30" fill="#47544c"/><rect x="690" y="1290" width="30" height="30" fill="#47544c"/><rect x="720" y="1290" width="30" height="30" fill="#47544c"/><rect x="750" y="1290" width="30" height="30" fill="#47544c"/><rect x="780" y="1290" width="30" height="30" fill="#47544c"/><rect x="810" y="1290" width="30" height="30" fill="#47544c"/><rect x="840" y="1290" width="30" height="30" fill="#47544c"/><rect x="870" y="1290" width="30" height="30" fill="#47544c"/><rect x="900" y="1290" width="30" height="30" fill="#47544c"/><rect x="930" y="1290" width="30" height="30" fill="#47544c"/><rect x="960" y="1290" width="30" height="30" fill="#47544c"/><rect x="990" y="1290" width="30" height="30" fill="#47544c"/><rect x="1020" y="1290" width="30" height="30" fill="#47544c"/><rect x="1050" y="1290" width="30" height="30" fill="#47544c"/><rect x="1080" y="1290" width="30" height="30" fill="#47544c"/><rect x="1110" y="1290" width="30" height="30" fill="#47544c"/><rect x="1140" y="1290" width="30" height="30" fill="#47544c"/><rect x="1170" y="1290" width="30" height="30" fill="#47544c"/><rect x="1200" y="1290" width="30" height="30" fill="#47544c"/><rect x="1230" y="1290" width="30" height="30" fill="#47544c"/><rect x="1260" y="1290" width="30" height="30" fill="#47544c"/><rect x="1290" y="1290" width="30" height="30" fill="#47544c"/><rect x="1320" y="1290" width="30" height="30" fill="#47544c"/><rect x="1350" y="1290" width="30" height="30" fill="#47544c"/><rect x="1380" y="1290" width="30" height="30" fill="#47544c"/><rect x="1410" y="1290" width="30" height="30" fill="#47544c"/><rect x="1440" y="1290" width="30" height="30" fill="#47544c"/><rect x="1470" y="1290" width="30" height="30" fill="#47544c"/><rect x="1500" y="1290" width="30" height="30" fill="#47544c"/><rect x="1530" y="1290" width="30" height="30" fill="#47544c"/><rect x="1560" y="1290" width="30" height="30" fill="#47544c"/><rect x="1590" y="1290" width="30" height="30" fill="#47544c"/><rect x="1620" y="1290" width="30" height="30" fill="#47544c"/><rect x="1650" y="1290" width="30" height="30" fill="#47544c"/><rect x="1680" y="1290" width="30" height="30" fill="#47544c"/><rect x="1710" y="1290" width="30" height="30" fill="#47544c"/><rect x="1740" y="1290" width="30" height="30" fill="#47544c"/><rect x="1770" y="1290" width="30" height="30" fill="#47544c"/><rect x="1800" y="1290" width="30" height="30" fill="#47544c"/><rect x="1830" y="1290" width="30" height="30" fill="#47544c"/><rect x="1860" y="1290" width="30" height="30" fill="#47544c"/><rect x="1890" y="1290" width="30" height="30" fill="#47544c"/><rect x="0" y="0" width="30" height="30" fill="#47544c"/><rect x="30" y="0" width="30" height="30" fill="#47544c"/><rect x="60" y="0" width="30" height="30" fill="#47544c"/><rect x="90" y="0" width="30" height="30" fill="#47544c"/><rect x="120" y="0" width="30" height="30" fill="#47544c"/><rect x="150" y="0" width="30" height="30" fill="#47544c"/><rect x="180" y="0" width="30" height="30" fill="#47544c"/><rect x="210" y="0" width="30" height="30" fill="#47544c"/><rect x="240" y="0" width="30" height="30" fill="#47544c"/><rect x="270" y="0" width="30" height="30" fill="#47544c"/><rect x="300" y="0" width="30" height="30" fill="#47544c"/><rect x="330" y="0" width="30" height="30" fill="#47544c"/><rect x="360" y="0" width="30" height="30" fill="#47544c"/><rect x="390" y="0" width="30" height="30" fill="#47544c"/><rect x="420" y="0" width="30" height="30" fill="#47544c"/><rect x="450" y="0" width="30" height="30" fill="#47544c"/><rect x="480" y="0" width="30" height="30" fill="#47544c"/><rect x="510" y="0" width="30" height="30" fill="#47544c"/><rect x="540" y="0" width="30" height="30" fill="#47544c"/><rect x="570" y="0" width="30" height="30" fill="#47544c"/><rect x="600" y="0" width="30" height="30" fill="#47544c"/><rect x="630" y="0" width="30" height="30" fill="#47544c"/><rect x="660" y="0" width="30" height="30" fill="#47544c"/><rect x="690" y="0" width="30" height="30" fill="#47544c"/><rect x="720" y="0" width="30" height="30" fill="#47544c"/><rect x="750" y="0" width="30" height="30" fill="#47544c"/><rect x="780" y="0" width="30" height="30" fill="#47544c"/><rect x="810" y="0" width="30" height="30" fill="#47544c"/><rect x="840" y="0" width="30" height="30" fill="#47544c"/><rect x="870" y="0" width="30" height="30" fill="#47544c"/><rect x="900" y="0" width="30" height="30" fill="#47544c"/><rect x="930" y="0" width="30" height="30" fill="#47544c"/><rect x="960" y="0" width="30" height="30" fill="#47544c"/><rect x="990" y="0" width="30" height="30" fill="#47544c"/><rect x="1020" y="0" width="30" height="30" fill="#47544c"/><rect x="1050" y="0" width="30" height="30" fill="#47544c"/><rect x="1080" y="0" width="30" height="30" fill="#47544c"/><rect x="1110" y="0" width="30" height="30" fill="#47544c"/><rect x="1140" y="0" width="30" height="30" fill="#47544c"/><rect x="1170" y="0" width="30" height="30" fill="#47544c"/><rect x="1200" y="0" width="30" height="30" fill="#47544c"/><rect x="1230" y="0" width="30" height="30" fill="#47544c"/><rect x="1260" y="0" width="30" height="30" fill="#47544c"/><rect x="1290" y="0" width="30" height="30" fill="#47544c"/><rect x="1320" y="0" width="30" height="30" fill="#47544c"/><rect x="1350" y="0" width="30" height="30" fill="#47544c"/><rect x="1380" y="0" width="30" height="30" fill="#47544c"/><rect x="1410" y="0" width="30" height="30" fill="#47544c"/><rect x="1440" y="0" width="30" height="30" fill="#47544c"/><rect x="1470" y="0" width="30" height="30" fill="#47544c"/><rect x="1500" y="0" width="30" height="30" fill="#47544c"/><rect x="1530" y="0" width="30" height="30" fill="#47544c"/><rect x="1560" y="0" width="30" height="30" fill="#47544c"/><rect x="1590" y="0" width="30" height="30" fill="#47544c"/><rect x="1620" y="0" width="30" height="30" fill="#47544c"/><rect x="1650" y="0" width="30" height="30" fill="#47544c"/><rect x="1680" y="0" width="30" height="30" fill="#47544c"/><rect x="1710" y="0" width="30" height="30" fill="#47544c"/><rect x="1740" y="0" width="30" height="30" fill="#47544c"/><rect x="1770" y="0" width="30" height="30" fill="#47544c"/><rect x="1800" y="0" width="30" height="30" fill="#47544c"/><rect x="1830" y="0" width="30" height="30" fill="#47544c"/><rect x="1860" y="0" width="30" height="30" fill="#47544c"/><rect x="1890" y="0" width="30" height="30" fill="#47544c"/><rect x="0" y="30" width="30" height="30" fill="#47544c"/><rect x="0" y="60" width="30" height="30" fill="#47544c"/><rect x="0" y="90" width="30" height="30" fill="#47544c"/><rect x="0" y="120" width="30" height="30" fill="#47544c"/><rect x="0" y="150" width="30" height="30" fill="#47544c"/><rect x="0" y="180" width="30" height="30" fill="#47544c"/><rect x="0" y="210" width="30" height="30" fill="#47544c"/><rect x="0" y="240" width="30" height="30" fill="#47544c"/><rect x="0" y="270" width="30" height="30" fill="#47544c"/><rect x="0" y="300" width="30" height="30" fill="#47544c"/><rect x="0" y="330" width="30" height="30" fill="#47544c"/><rect x="0" y="360" width="30" height="30" fill="#47544c"/><rect x="0" y="390" width="30" height="30" fill="#47544c"/><rect x="0" y="420" width="30" height="30" fill="#47544c"/><rect x="0" y="450" width="30" height="30" fill="#47544c"/><rect x="0" y="480" width="30" height="30" fill="#47544c"/><rect x="0" y="510" width="30" height="30" fill="#47544c"/><rect x="0" y="540" width="30" height="30" fill="#47544c"/><rect x="0" y="570" width="30" height="30" fill="#47544c"/><rect x="0" y="600" width="30" height="30" fill="#47544c"/><rect x="0" y="630" width="30" height="30" fill="#47544c"/><rect x="0" y="660" width="30" height="30" fill="#47544c"/><rect x="0" y="690" width="30" height="30" fill="#47544c"/><rect x="0" y="720" width="30" height="30" fill="#47544c"/><rect x="0" y="750" width="30" height="30" fill="#47544c"/><rect x="0" y="780" width="30" height="30" fill="#47544c"/><rect x="0" y="810" width="30" height="30" fill="#47544c"/><rect x="0" y="840" width="30" height="30" fill="#47544c"/><rect x="0" y="870" width="30" height="30" fill="#47544c"/><rect x="0" y="900" width="30" height="30" fill="#47544c"/><rect x="0" y="930" width="30" height="30" fill="#47544c"/><rect x="0" y="960" width="30" height="30" fill="#47544c"/><rect x="0" y="990" width="30" height="30" fill="#47544c"/><rect x="0" y="1020" width="30" height="30" fill="#47544c"/><rect x="0" y="1050" width="30" height="30" fill="#47544c"/><rect x="0" y="1080" width="30" height="30" fill="#47544c"/><rect x="0" y="1110" width="30" height="30" fill="#47544c"/><rect x="0" y="1140" width="30" height="30" fill="#47544c"/><rect x="0" y="1170" width="30" height="30" fill="#47544c"/><rect x="0" y="1200" width="30" height="30" fill="#47544c"/><rect x="0" y="1230" width="30" height="30" fill="#47544c"/><rect x="1890" y="30" width="30" height="30" fill="#47544c"/><rect x="1890" y="60" width="30" height="30" fill="#47544c"/><rect x="1890" y="90" width="30" height="30" fill="#47544c"/><rect x="1890" y="120" width="30" height="30" fill="#47544c"/><rect x="1890" y="150" width="30" height="30" fill="#47544c"/><rect x="1890" y="180" width="30" height="30" fill="#47544c"/><rect x="1890" y="210" width="30" height="30" fill="#47544c"/><rect x="1890" y="240" width="30" height="30" fill="#47544c"/><rect x="1890" y="270" width="30" height="30" fill="#47544c"/><rect x="1890" y="300" width="30" height="30" fill="#47544c"/><rect x="1890" y="330" width="30" height="30" fill="#47544c"/><rect x="1890" y="360" width="30" height="30" fill="#47544c"/><rect x="1890" y="390" width="30" height="30" fill="#47544c"/><rect x="1890" y="420" width="30" height="30" fill="#47544c"/><rect x="1890" y="450" width="30" height="30" fill="#47544c"/><rect x="1890" y="480" width="30" height="30" fill="#47544c"/><rect x="1890" y="510" width="30" height="30" fill="#47544c"/><rect x="1890" y="540" width="30" height="30" fill="#47544c"/><rect x="1890" y="570" width="30" height="30" fill="#47544c"/><rect x="1890" y="600" width="30" height="30" fill="#47544c"/><rect x="1890" y="630" width="30" height="30" fill="#47544c"/><rect x="1890" y="660" width="30" height="30" fill="#47544c"/><rect x="1890" y="690" width="30" height="30" fill="#47544c"/><rect x="1890" y="720" width="30" height="30" fill="#47544c"/><rect x="1890" y="750" width="30" height="30" fill="#47544c"/><rect x="1890" y="780" width="30" height="30" fill="#47544c"/><rect x="1890" y="810" width="30" height="30" fill="#47544c"/><rect x="1890" y="840" width="30" height="30" fill="#47544c"/><rect x="1890" y="870" width="30" height="30" fill="#47544c"/><rect x="1890" y="900" width="30" height="30" fill="#47544c"/><rect x="1890" y="930" width="30" height="30" fill="#47544c"/><rect x="1890" y="960" width="30" height="30" fill="#47544c"/><rect x="1890" y="990" width="30" height="30" fill="#47544c"/><rect x="1890" y="1020" width="30" height="30" fill="#47544c"/><rect x="1890" y="1050" width="30" height="30" fill="#47544c"/><rect x="1890" y="1080" width="30" height="30" fill="#47544c"/><rect x="1890" y="1110" width="30" height="30" fill="#47544c"/><rect x="1890" y="1140" width="30" height="30" fill="#47544c"/><rect x="1890" y="1170" width="30" height="30" fill="#47544c"/><rect x="1890" y="1200" width="30" height="30" fill="#47544c"/><rect x="1890" y="1230" width="30" height="30" fill="#47544c"/><rect x="240" y="1110" width="30" height="30" fill="#47544c"/><rect x="270" y="1110" width="30" height="30" fill="#47544c"/><rect x="300" y="1110" width="30" height="30" fill="#47544c"/><rect x="330" y="1110" width="30" height="30" fill="#47544c"/><rect x="360" y="1110" width="30" height="30" fill="#47544c"/><rect x="390" y="1110" width="30" height="30" fill="#47544c"/><rect x="480" y="1020" width="30" height="30" fill="#47544c"/><rect x="510" y="1020" width="30" height="30" fill="#47544c"/><rect x="540" y="1020" width="30" height="30" fill="#47544c"/><rect x="570" y="1020" width="30" height="30" fill="#47544c"/><rect x="600" y="1020" width="30" height="30" fill="#47544c"/><rect x="630" y="1020" width="30" height="30" fill="#47544c"/><rect x="240" y="930" width="30" height="30" fill="#47544c"/><rect x="270" y="930" width="30" height="30" fill="#47544c"/><rect x="300" y="930" width="30" height="30" fill="#47544c"/><rect x="330" y="930" width="30" height="30" fill="#47544c"/><rect x="360" y="930" width="30" height="30" fill="#47544c"/><rect x="390" y="930" width="30" height="30" fill="#47544c"/><rect x="240" y="840" width="30" height="30" fill="#47544c"/><rect x="270" y="840" width="30" height="30" fill="#47544c"/><rect x="300" y="840" width="30" height="30" fill="#47544c"/><rect x="330" y="840" width="30" height="30" fill="#47544c"/><rect x="360" y="840" width="30" height="30" fill="#47544c"/><rect x="390" y="840" width="30" height="30" fill="#47544c"/><rect x="420" y="840" width="30" height="30" fill="#47544c"/><rect x="450" y="840" width="30" height="30" fill="#47544c"/><rect x="720" y="540" width="30" height="30" fill="#47544c"/><rect x="720" y="570" width="30" height="30" fill="#47544c"/><rect x="720" y="600" width="30" height="30" fill="#47544c"/><rect x="720" y="630" width="30" height="30" fill="#47544c"/><rect x="720" y="660" width="30" height="30" fill="#47544c"/><rect x="720" y="690" width="30" height="30" fill="#47544c"/><rect x="720" y="720" width="30" height="30" fill="#47544c"/><rect x="720" y="750" width="30" height="30" fill="#47544c"/><rect x="720" y="780" width="30" height="30" fill="#47544c"/><rect x="720" y="810" width="30" height="30" fill="#47544c"/><rect x="720" y="840" width="30" height="30" fill="#47544c"/><rect x="720" y="870" width="30" height="30" fill="#47544c"/><rect x="780" y="360" width="30" height="30" fill="#47544c"/><rect x="810" y="360" width="30" height="30" fill="#47544c"/><rect x="840" y="360" width="30" height="30" fill="#47544c"/><rect x="870" y="360" width="30" height="30" fill="#47544c"/><rect x="900" y="360" width="30" height="30" fill="#47544c"/><rect x="930" y="360" width="30" height="30" fill="#47544c"/><rect x="960" y="360" width="30" height="30" fill="#47544c"/><rect x="1260" y="30" width="30" height="30" fill="#47544c"/><rect x="1260" y="60" width="30" height="30" fill="#47544c"/><rect x="1260" y="90" width="30" height="30" fill="#47544c"/><rect x="1260" y="120" width="30" height="30" fill="#47544c"/><rect x="1260" y="150" width="30" height="30" fill="#47544c"/><rect x="1260" y="180" width="30" height="30" fill="#47544c"/><rect x="1260" y="210" width="30" height="30" fill="#47544c"/><rect x="1260" y="240" width="30" height="30" fill="#47544c"/><rect x="1260" y="270" width="30" height="30" fill="#47544c"/><rect x="1260" y="300" width="30" height="30" fill="#47544c"/><rect x="1260" y="330" width="30" height="30" fill="#47544c"/><rect x="1260" y="510" width="30" height="30" fill="#47544c"/><rect x="1260" y="540" width="30" height="30" fill="#47544c"/><rect x="1260" y="570" width="30" height="30" fill="#47544c"/><rect x="1260" y="600" width="30" height="30" fill="#47544c"/><rect x="1260" y="630" width="30" height="30" fill="#47544c"/><rect x="1260" y="660" width="30" height="30" fill="#47544c"/><rect x="1260" y="690" width="30" height="30" fill="#47544c"/><rect x="1260" y="720" width="30" height="30" fill="#47544c"/><rect x="1260" y="750" width="30" height="30" fill="#47544c"/><rect x="1260" y="780" width="30" height="30" fill="#47544c"/><rect x="1260" y="810" width="30" height="30" fill="#47544c"/><rect x="1260" y="840" width="30" height="30" fill="#47544c"/><rect x="1260" y="870" width="30" height="30" fill="#47544c"/><rect x="1260" y="900" width="30" height="30" fill="#47544c"/><rect x="1260" y="930" width="30" height="30" fill="#47544c"/><rect x="1620" y="690" width="30" height="30" fill="#47544c"/><rect x="1650" y="690" width="30" height="30" fill="#47544c"/><rect x="1680" y="690" width="30" height="30" fill="#47544c"/><rect x="1710" y="690" width="30" height="30" fill="#47544c"/><rect x="1740" y="690" width="30" height="30" fill="#47544c"/><rect x="1770" y="690" width="30" height="30" fill="#47544c"/><rect x="1800" y="690" width="30" height="30" fill="#47544c"/><rect x="1830" y="690" width="30" height="30" fill="#47544c"/><rect x="1350" y="1050" width="30" height="30" fill="#47544c"/><rect x="1380" y="1050" width="30" height="30" fill="#47544c"/><rect x="1410" y="1050" width="30" height="30" fill="#47544c"/><rect x="1440" y="1050" width="30" height="30" fill="#47544c"/><rect x="1470" y="1050" width="30" height="30" fill="#47544c"/><rect x="1500" y="1050" width="30" height="30" fill="#47544c"/><rect x="1530" y="1050" width="30" height="30" fill="#47544c"/><rect x="1020" y="1170" width="30" height="30" fill="#47544c"/><rect x="1050" y="1170" width="30" height="30" fill="#47544c"/><rect x="1080" y="1170" width="30" height="30" fill="#47544c"/><rect x="1110" y="1170" width="30" height="30" fill="#47544c"/><rect x="1140" y="1170" width="30" height="30" fill="#47544c"/><rect x="1170" y="1170" width="30" height="30" fill="#47544c"/><rect x="810" y="870" width="30" height="30" fill="#47544c"/><rect x="840" y="870" width="30" height="30" fill="#47544c"/><rect x="870" y="870" width="30" height="30" fill="#47544c"/><rect x="900" y="870" width="30" height="30" fill="#47544c"/><rect x="930" y="870" width="30" height="30" fill="#47544c"/><rect x="960" y="870" width="30" height="30" fill="#47544c"/><rect x="720" y="900" width="30" height="150" fill="#c18b47"/><rect x="1260" y="360" width="30" height="150" fill="#c18b47"/><rect x="1260" y="960" width="30" height="300" fill="#c18b47"/><path d="M165.0,1186.0 L165.1,1186.1 L207.5,1235.9 L227.1,1163.1 L231.4,1145.4 L201.1,1115.0 L185.3,1061.1 L243.2,1097.0 L304.6,1097.0 L343.4,1013.1 L409.7,995.4 L472.0,1062.6 L430.2,1010.9 L435.4,975.1 L498.3,1007.0 L549.9,1002.4 L514.0,912.3 L447.9,912.7 L425.2,980.8 L472.1,906.5 L446.0,888.9 L380.1,917.0 L313.9,917.0 L247.8,896.7 L228.5,847.5 L256.2,811.7 L322.1,827.0 L388.3,827.0 L454.6,827.0 L520.8,839.1 L587.1,931.2 L653.3,1007.0 L719.6,1037.2 L785.8,1156.5 L829.2,1217.2 L886.1,1145.1 L952.3,1163.7 L1004.1,1242.4 L1012.3,1152.3 L1056.7,1152.7 L1099.8,1157.0 L1103.4,1157.0 L1103.6,1157.0 L1103.7,1157.0 L1103.7,1157.0 L1103.7,1157.0 L1103.7,1157.0 L1103.7,1157.0 L1103.7,1157.0 L1103.5,1152.4 L1085.7,1062.3 L1094.1,1062.7 L1105.7,1067.0 L1107.1,1067.0 L1107.2,1058.3 L1107.2,1020.8 L1107.2,983.3 L1107.2,945.8 L1107.2,908.3 L1107.2,870.8 L1107.2,833.3 L1107.2,795.8 L1107.2,758.3 L1107.2,720.8 L1107.2,683.3 L1107.2,645.8 L1107.2,608.3 L1107.2,570.8 L1107.2,533.3 L1107.2,495.8 L1107.2,458.3 L1107.2,420.8 L1107.2,383.3 L1098.0,347.0 L1038.2,347.3 L971.9,265.9 L905.7,248.2 L852.3,321.2 L881.5,347.0 L947.5,347.0 L1013.8,350.6 L1067.1,421.6 L1062.7,505.7 L1098.4,543.2 L1103.7,580.7 L1104.0,618.2 L1104.0,655.7 L1104.0,693.2 L1104.0,730.7 L1104.0,768.2 L1104.0,805.7 L1104.0,843.2 L1104.0,880.7 L1104.0,918.2 L1104.0,955.7 L1104.0,993.2 L1104.0,1030.7 L1104.0,1067.0 L1104.0,1067.0 L1104.0,1067.0 L1104.0,1067.0 L1104.0,1067.0 L1104.0,1058.3 L1104.0,1020.8 L1104.0,983.3 L1104.0,945.8 L1104.0,908.3 L1104.0,870.8 L1104.0,833.3 L1104.0,795.8 L1104.0,758.3 L1104.0,720.8 L1104.0,683.3 L1104.0,645.8 L1104.0,608.3 L1104.0,570.8 L1104.0,533.3 L1104.0,495.8 L1104.0,458.3 L1104.0,420.8 L1104.0,383.3 L1113.3,347.0 L1173.1,347.0 L1239.3,387.9 L1300.8,497.6 L1339.6,416.7 L1401.0,399.0 L1381.0,437.0 L1390.1,437.0 L1453.8,432.4 L1520.0,342.3 L1586.3,342.7 L1626.1,433.8 L1658.4,437.0 L1724.5,437.6 L1756.0,493.5 L1758.0,640.0 L1728.7,677.0 L1662.7,677.0 L1596.6,680.6 L1591.5,751.6 L1636.9,857.0 L1600.9,857.0 L1534.7,882.5 L1468.4,995.8 L1402.2,1037.0 L1335.9,1037.6 L1269.7,1093.5 L1208.1,1240.0 L1162.1,1247.0 L1095.8,1247.0 L1029.6,1247.0 L963.3,1247.0 L897.1,1247.0" fill="none" stroke="#227dd1" stroke-width="4" opacity=".7"/><circle cx="375" cy="825" r="20" fill="#fbd479"/><text x="375" y="831" text-anchor="middle" font-size="22">A</text><circle cx="855" cy="345" r="20" fill="#fbd479"/><text x="855" y="351" text-anchor="middle" font-size="22">B</text><circle cx="1755" cy="675" r="20" fill="#fbd479"/><text x="1755" y="681" text-anchor="middle" font-size="22">C</text><circle cx="1425" cy="1035" r="20" fill="#fbd479"/><text x="1425" y="1041" text-anchor="middle" font-size="22">D</text><rect x="810" y="1230" width="30" height="30" fill="#52a571"/></svg>