<svg xmlns="http://www.w3.org/2000/svg" viewBox="0 0 1920 720" width="640" height="240"><title>Truth table: verified Medium route</title><rect width="100%" height="100%" fill="#edf1e7"/><rect x="0" y="660" width="30" height="30" fill="#47544c"/><rect x="30" y="660" width="30" height="30" fill="#47544c"/><rect x="60" y="660" width="30" height="30" fill="#47544c"/><rect x="90" y="660" width="30" height="30" fill="#47544c"/><rect x="120" y="660" width="30" height="30" fill="#47544c"/><rect x="150" y="660" width="30" height="30" fill="#47544c"/><rect x="180" y="660" width="30" height="30" fill="#47544c"/><rect x="210" y="660" width="30" height="30" fill="#47544c"/><rect x="240" y="660" width="30" height="30" fill="#47544c"/><rect x="270" y="660" width="30" height="30" fill="#47544c"/><rect x="300" y="660" width="30" height="30" fill="#47544c"/><rect x="330" y="660" width="30" height="30" fill="#47544c"/><rect x="360" y="660" width="30" height="30" fill="#47544c"/><rect x="390" y="660" width="30" height="30" fill="#47544c"/><rect x="420" y="660" width="30" height="30" fill="#47544c"/><rect x="450" y="660" width="30" height="30" fill="#47544c"/><rect x="480" y="660" width="30" height="30" fill="#47544c"/><rect x="510" y="660" width="30" height="30" fill="#47544c"/><rect x="540" y="660" width="30" height="30" fill="#47544c"/><rect x="570" y="660" width="30" height="30" fill="#47544c"/><rect x="600" y="660" width="30" height="30" fill="#47544c"/><rect x="630" y="660" width="30" height="30" fill="#47544c"/><rect x="660" y="660" width="30" height="30" fill="#47544c"/><rect x="690" y="660" width="30" height="30" fill="#47544c"/><rect x="720" y="660" width="30" height="30" fill="#47544c"/><rect x="750" y="660" width="30" height="30" fill="#47544c"/><rect x="780" y="660" width="30" height="30" fill="#47544c"/><rect x="810" y="660" width="30" height="30" fill="#47544c"/><rect x="840" y="660" width="30" height="30" fill="#47544c"/><rect x="870" y="660" width="30" height="30" fill="#47544c"/><rect x="900" y="660" width="30" height="30" fill="#47544c"/><rect x="930" y="660" width="30" height="30" fill="#47544c"/><rect x="960" y="660" width="30" height="30" fill="#47544c"/><rect x="990" y="660" width="30" height="30" fill="#47544c"/><rect x="1020" y="660" width="30" height="30" fill="#47544c"/><rect x="1050" y="660" width="30" height="30" fill="#47544c"/><rect x="1080" y="660" width="30" height="30" fill="#47544c"/><rect x="1110" y="660" width="30" height="30" fill="#47544c"/><rect x="1140" y="660" width="30" height="30" fill="#47544c"/><rect x="1170" y="660" width="30" height="30" fill="#47544c"/><rect x="1200" y="660" width="30" height="30" fill="#47544c"/><rect x="1230" y="660" width="30" height="30" fill="#47544c"/><rect x="1260" y="660" width="30" height="30" fill="#47544c"/><rect x="1290" y="660" width="30" height="30" fill="#47544c"/><rect x="1320" y="660" width="30" height="30" fill="#47544c"/><rect x="1350" y="660" width="30" height="30" fill="#47544c"/><rect x="1380" y="660" width="30" height="30" fill="#47544c"/><rect x="1410" y="660" width="30" height="30" fill="#47544c"/><rect x="1440" y="660" width="30" height="30" fill="#47544c"/><rect x="1470" y="660" width="30" height="30" fill="#47544c"/><rect x="1500" y="660" width="30" height="30" fill="#47544c"/><rect x="1530" y="660" width="30" height="30" fill="#47544c"/><rect x="1560" y="660" width="30" height="30" fill="#47544c"/><rect x="1590" y="660" width="30" height="30" fill="#47544c"/><rect x="1620" y="660" width="30" height="30" fill="#47544c"/><rect x="1650" y="660" width="30" height="30" fill="#47544c"/><rect x="1680" y="660" width="30" height="30" fill="#47544c"/><rect x="1710" y="660" width="30" height="30" fill="#47544c"/><rect x="1740" y="660" width="30" height="30" fill="#47544c"/><rect x="1770" y="660" width="30" height="30" fill="#47544c"/><rect x="1800" y="660" width="30" height="30" fill="#47544c"/><rect x="1830" y="660" width="30" height="30" fill="#47544c"/><rect x="1860" y="660" width="30" height="30" fill="#47544c"/><rect x="1890" y="660" width="30" height="30" fill="#47544c"/><rect x="0" y="690" width="30" height="30" fill="#47544c"/><rect x="30" y="690" width="30" height="30" fill="#47544c"/><rect x="60" y="690" width="30" height="30" fill="#47544c"/><rect x="90" y="690" width="30" height="30" fill="#47544c"/><rect x="120" y="690" width="30" height="30" fill="#47544c"/><rect x="150" y="690" width="30" height="30" fill="#47544c"/><rect x="180" y="690" width="30" height="30" fill="#47544c"/><rect x="210" y="690" width="30" height="30" fill="#47544c"/><rect x="240" y="690" width="30" height="30" fill="#47544c"/><rect x="270" y="690" width="30" height="30" fill="#47544c"/><rect x="300" y="690" width="30" height="30" fill="#47544c"/><rect x="330" y="690" width="30" height="30" fill="#47544c"/><rect x="360" y="690" width="30" height="30" fill="#47544c"/><rect x="390" y="690" width="30" height="30" fill="#47544c"/><rect x="420" y="690" width="30" height="30" fill="#47544c"/><rect x="450" y="690" width="30" height="30" fill="#47544c"/><rect x="480" y="690" width="30" height="30" fill="#47544c"/><rect x="510" y="690" width="30" height="30" fill="#47544c"/><rect x="540" y="690" width="30" height="30" fill="#47544c"/><rect x="570" y="690" width="30" height="30" fill="#47544c"/><rect x="600" y="690" width="30" height="30" fill="#47544c"/><rect x="630" y="690" width="30" height="30" fill="#47544c"/><rect x="660" y="690" width="30" height="30" fill="#47544c"/><rect x="690" y="690" width="30" height="30" fill="#47544c"/><rect x="720" y="690" width="30" height="30" fill="#47544c"/><rect x="750" y="690" width="30" height="30" fill="#47544c"/><rect x="780" y="690" width="30" height="30" fill="#47544c"/><rect x="810" y="690" width="30" height="30" fill="#47544c"/><rect x="840" y="690" width="30" height="30" fill="#47544c"/><rect x="870" y="690" width="30" height="30" fill="#47544c"/><rect x="900" y="690" width="30" height="30" fill="#47544c"/><rect x="930" y="690" width="30" height="30" fill="#47544c"/><rect x="960" y="690" width="30" height="30" fill="#47544c"/><rect x="990" y="690" width="30" height="30" fill="#47544c"/><rect x="1020" y="690" width="30" height="30" fill="#47544c"/><rect x="1050" y="690" width="30" height="30" fill="#47544c"/><rect x="1080" y="690" width="30" height="30" fill="#47544c"/><rect x="1110" y="690" width="30" height="30" fill="#47544c"/><rect x="1140" y="690" width="30" height="30" fill="#47544c"/><rect x="1170" y="690" width="30" height="30" fill="#47544c"/><rect x="1200" y="690" width="30" height="30" fill="#47544c"/><rect x="1230" y="690" width="30" height="30" fill="#47544c"/><rect x="1260" y="690" width="30" height="30" fill="#47544c"/><rect x="1290" y="690" width="30" height="30" fill="#47544c"/><rect x="1320" y="690" width="30" height="30" fill="#47544c"/><rect x="1350" y="690" width="30" height="30" fill="#47544c"/><rect x="1380" y="690" width="30" height="30" fill="#47544c"/><rect x="1410" y="690" width="30" height="30" fill="#47544c"/><rect x="1440" y="690" width="30" height="30" fill="#47544c"/><rect x="1470" y="690" width="30" height="30" fill="#47544c"/><rect x="1500" y="690" width="30" height="30" fill="#47544c"/><rect x="1530" y="690" width="30" height="30" fill="#47544c"/><rect x="1560" y="690" width="30" height="30" fill="#47544c"/><rect x="1590" y="690" width="30" height="30" fill="#47544c"/><rect x="1620" y="690" width="30" height="30" fill="#47544c"/><rect x="1650" y="690" width="30" height="30" fill="#47544c"/><rect x="1680" y="690" width="30" height="30" fill="#47544c"/><rect x="1710" y="690" width="30" height="30" fill="#47544c"/><rect x="1740" y="690" width="30" height="30" fill="#47544c"/><rect x="1770" y="690" width="30" height="30" fill="#47544c"/><rect x="1800" y="690" width="30" height="30" fill="#47544c"/><rect x="1830" y="690" width="30" height="30" fill="#47544c"/><rect x="1860" y="690" width="30" height="30" fill="#47544c"/><rect x="1890" y="690" width="30" height="30" fill="#47544c"/><rect x="0" y="0" width="30" height="30" fill="#47544c"/><rect x="30" y="0" width="30" height="30" fill="#47544c"/><rect x="60" y="0" width="30" height="30" fill="#47544c"/><rect x="90" y="0" width="30" height="30" fill="#47544c"/><rect x="120" y="0" width="30" height="30" fill="#47544c"/><rect x="150" y="0" width="30" height="30" fill="#47544c"/><rect x="180" y="0" width="30" height="30" fill="#47544c"/><rect x="210" y="0" width="30" height="30" fill="#47544c"/><rect x="240" y="0" width="30" height="30" fill="#47544c"/><rect x="270" y="0" width="30" height="30" fill="#47544c"/><rect x="300" y="0" width="30" height="30" fill="#47544c"/><rect x="330" y="0" width="30" height="30" fill="#47544c"/><rect x="360" y="0" width="30" height="30" fill="#47544c"/><rect x="390" y="0" width="30" height="30" fill="#47544c"/><rect x="420" y="0" width="30" height="30" fill="#47544c"/><rect x="450" y="0" width="30" height="30" fill="#47544c"/><rect x="480" y="0" width="30" height="30" fill="#47544c"/><rect x="510" y="0" width="30" height="30" fill="#47544c"/><rect x="540" y="0" width="30" height="30" fill="#47544c"/><rect x="570" y="0" width="30" height="30" fill="#47544c"/><rect x="600" y="0" width="30" height="30" fill="#47544c"/><rect x="630" y="0" width="30" height="30" fill="#47544c"/><rect x="660" y="0" width="30" height="30" fill="#47544c"/><rect x="690" y="0" width="30" height="30" fill="#47544c"/><rect x="720" y="0" width="30" height="30" fill="#47544c"/><rect x="750" y="0" width="30" height="30" fill="#47544c"/><rect x="780" y="0" width="30" height="30" fill="#47544c"/><rect x="810" y="0" width="30" height="30" fill="#47544c"/><rect x="840" y="0" width="30" height="30" fill="#47544c"/><rect x="870" y="0" width="30" height="30" fill="#47544c"/><rect x="900" y="0" width="30" height="30" fill="#47544c"/><rect x="930" y="0" width="30" height="30" fill="#47544c"/><rect x="960" y="0" width="30" height="30" fill="#47544c"/><rect x="990" y="0" width="30" height="30" fill="#47544c"/><rect x="1020" y="0" width="30" height="30" fill="#47544c"/><rect x="1050" y="0" width="30" height="30" fill="#47544c"/><rect x="1080" y="0" width="30" height="30" fill="#47544c"/><rect x="1110" y="0" width="30" height="30" fill="#47544c"/><rect x="1140" y="0" width="30" height="30" fill="#47544c"/><rect x="1170" y="0" width="30" height="30" fill="#47544c"/><rect x="1200" y="0" width="30" height="30" fill="#47544c"/><rect x="1230" y="0" width="30" height="30" fill="#47544c"/><rect x="1260" y="0" width="30" height="30" fill="#47544c"/><rect x="1290" y="0" width="30" height="30" fill="#47544c"/><rect x="1320" y="0" width="30" height="30" fill="#47544c"/><rect x="1350" y="0" width="30" height="30" fill="#47544c"/><rect x="1380" y="0" width="30" height="30" fill="#47544c"/><rect x="1410" y="0" width="30" height="30" fill="#47544c"/><rect x="1440" y="0" width="30" height="30" fill="#47544c"/><rect x="1470" y="0" width="30" height="30" fill="#47544c"/><rect x="1500" y="0" width="30" height="30" fill="#47544c"/><rect x="1530" y="0" width="30" height="30" fill="#47544c"/><rect x="1560" y="0" width="30" height="30" fill="#47544c"/><rect x="1590" y="0" width="30" height="30" fill="#47544c"/><rect x="1620" y="0" width="30" height="30" fill="#47544c"/><rect x="1650" y="0" width="30" height="30" fill="#47544c"/><rect x="1680" y="0" width="30" height="30" fill="#47544c"/><rect x="1710" y="0" width="30" height="30" fill="#47544c"/><rect x="1740" y="0" width="30" height="30" fill="#47544c"/><rect x="1770" y="0" width="30" height="30" fill="#47544c"/><rect x="1800" y="0" width="30" height="30" fill="#47544c"/><rect x="1830" y="0" width="30" height="30" fill="#47544c"/><rect x="1860" y="0" width="30" height="30" fill="#47544c"/><rect x="1890" y="0" width="30" height="30" fill="#47544c"/><rect x="0" y="30" width="30" height="30" fill="#47544c"/><rect x="0" y="60" width="30" height="30" fill="#47544c"/><rect x="0" y="90" width="30" height="30" fill="#47544c"/><rect x="0" y="120" width="30" height="30" fill="#47544c"/><rect x="0" y="150" width="30" height="30" fill="#47544c"/><rect x="0" y="180" width="30" height="30" fill="#47544c"/><rect x="0" y="210" width="30" height="30" fill="#47544c"/><rect x="0" y="240" width="30" height="30" fill="#47544c"/><rect x="0" y="270" width="30" height="30" fill="#47544c"/><rect x="0" y="300" width="30" height="30" fill="#47544c"/><rect x="0" y="330" width="30" height="30" fill="#47544c"/><rect x="0" y="360" width="30" height="30" fill="#47544c"/><rect x="0" y="390" width="30" height="30" fill="#47544c"/><rect x="0" y="420" width="30" height="30" fill="#47544c"/><rect x="0" y="450" width="30" height="30" fill="#47544c"/><rect x="0" y="480" width="30" height="30" fill="#47544c"/><rect x="0" y="510" width="30" height="30" fill="#47544c"/><rect x="0" y="540" width="30" height="30" fill="#47544c"/><rect x="0" y="570" width="30" height="30" fill="#47544c"/><rect x="0" y="600" width="30" height="30" fill="#47544c"/><rect x="0" y="630" width="30" height="30" fill="#47544c"/><rect x="1890" y="30" width="30" height="30" fill="#47544c"/><rect x="1890" y="60" width="30" height="30" fill="#47544c"/><rect x="1890" y="90" width="30" height="30" fill="#47544c"/><rect x="1890" y="120" width="30" height="30" fill="#47544c"/><rect x="1890" y="150" width="30" height="30" fill="#47544c"/><rect x="1890" y="180" width="30" height="30" fill="#47544c"/><rect x="1890" y="210" width="30" height="30" fill="#47544c"/><rect x="1890" y="240" width="30" height="30" fill="#47544c"/><rect x="1890" y="270" width="30" height="30" fill="#47544c"/><rect x="1890" y="300" width="30" height="30" fill="#47544c"/><rect x="1890" y="330" width="30" height="30" fill="#47544c"/><rect x="1890" y="360" width="30" height="30" fill="#47544c"/><rect x="1890" y="390" width="30" height="30" fill="#47544c"/><rect x="1890" y="420" width="30" height="30" fill="#47544c"/><rect x="1890" y="450" width="30" height="30" fill="#47544c"/><rect x="1890" y="480" width="30" height="30" fill="#47544c"/><rect x="1890" y="510" width="30" height="30" fill="#47544c"/><rect x="1890" y="540" width="30" height="30" fill="#47544c"/><rect x="1890" y="570" width="30" height="30" fill="#47544c"/><rect x="1890" y="600" width="30" height="30" fill="#47544c"/><rect x="1890" y="630" width="30" height="30" fill="#47544c"/><rect x="300" y="570" width="30" height="30" fill="#47544c"/><rect x="330" y="570" width="30" height="30" fill="#47544c"/><rect x="360" y="570" width="30" height="30" fill="#47544c"/><rect x="390" y="570" width="30" height="30" fill="#47544c"/><rect x="420" y="570" width="30" height="30" fill="#47544c"/><rect x="450" y="570" width="30" height="30" fill="#47544c"/><rect x="480" y="570" width="30" height="30" fill="#47544c"/><rect x="510" y="570" width="30" height="30" fill="#47544c"/><rect x="570" y="480" width="30" height="30" fill="#47544c"/><rect x="600" y="480" width="30" height="30" fill="#47544c"/><rect x="630" y="480" width="30" height="30" fill="#47544c"/><rect x="660" y="480" width="30" height="30" fill="#47544c"/><rect x="690" y="480" width="30" height="30" fill="#47544c"/><rect x="690" y="390" width="30" height="30" fill="#47544c"/><rect x="720" y="390" width="30" height="30" fill="#47544c"/><rect x="750" y="390" width="30" height="30" fill="#47544c"/><rect x="780" y="390" width="30" height="30" fill="#47544c"/><rect x="810" y="390" width="30" height="30" fill="#47544c"/><rect x="840" y="390" width="30" height="30" fill="#47544c"/><rect x="870" y="390" width="30" height="30" fill="#47544c"/><rect x="1080" y="30" width="30" height="30" fill="#47544c"/><rect x="1080" y="60" width="30" height="30" fill="#47544c"/><rect x="1080" y="90" width="30" height="30" fill="#47544c"/><rect x="1080" y="120" width="30" height="30" fill="#47544c"/><rect x="1080" y="150" width="30" height="30" fill="#47544c"/><rect x="1080" y="180" width="30" height="30" fill="#47544c"/><rect x="1080" y="210" width="30" height="30" fill="#47544c"/><rect x="1080" y="240" width="30" height="30" fill="#47544c"/><rect x="1080" y="270" width="30" height="30" fill="#47544c"/><rect x="1080" y="300" width="30" height="30" fill="#47544c"/><rect x="1080" y="330" width="30" height="30" fill="#47544c"/><rect x="1080" y="360" width="30" height="30" fill="#47544c"/><rect x="1080" y="390" width="30" height="30" fill="#47544c"/><rect x="1080" y="420" width="30" height="30" fill="#47544c"/><rect x="1080" y="450" width="30" height="30" fill="#47544c"/><rect x="1080" y="480" width="30" height="30" fill="#47544c"/><rect x="1080" y="510" width="30" height="30" fill="#47544c"/><rect x="1350" y="570" width="30" height="30" fill="#47544c"/><rect x="1380" y="570" width="30" height="30" fill="#47544c"/><rect x="1410" y="570" width="30" height="30" fill="#47544c"/><rect x="1440" y="570" width="30" height="30" fill="#47544c"/><rect x="1470" y="570" width="30" height="30" fill="#47544c"/><rect x="1500" y="570" width="30" height="30" fill="#47544c"/><rect x="1620" y="570" width="30" height="30" fill="#47544c"/><rect x="1650" y="570" width="30" height="30" fill="#47544c"/><rect x="1680" y="570" width="30" height="30" fill="#47544c"/><rect x="1710" y="570" width="30" height="30" fill="#47544c"/><rect x="1740" y="570" width="30" height="30" fill="#47544c"/><rect x="1770" y="570" width="30" height="30" fill="#47544c"/><rect x="1800" y="570" width="30" height="30" fill="#47544c"/><rect x="1200" y="630" width="30" height="30" fill="#c95849"/><rect x="1230" y="630" width="30" height="30" fill="#c95849"/><rect x="1260" y="630" width="30" height="30" fill="#c95849"/><rect x="1080" y="540" width="30" height="120" fill="#c18b47"/><path d="M135.0,646.0 L135.1,646.1 L177.5,577.5 L243.6,541.7 L280.1,596.5 L288.4,595.5 L307.3,541.6 L371.4,557.0 L437.7,527.2 L503.9,455.1 L570.2,467.0 L636.4,462.4 L682.3,372.3 L726.7,372.7 L793.0,377.0 L859.2,377.0 L925.5,380.6 L991.7,451.6 L1058.0,613.2 L1111.6,647.0 L1165.6,577.5 L1231.8,541.7 L1298.1,596.5 L1335.7,595.5 L1355.9,541.6 L1419.1,557.0 L1485.3,557.0 L1551.6,554.5 L1617.8,464.4 L1684.1,464.9 L1723.9,556.0 L1697.1,557.0 L1631.3,557.0 L1606.7,580.3 L1562.7,526.6 L1496.5,490.8 L1430.2,545.7 L1364.0,557.0 L1323.0,580.3 L1307.2,642.4 L1242.8,552.3 L1176.6,552.7 L1115.0,643.8 L1069.0,647.0 L1002.7,617.2 L936.5,545.1 L870.2,563.7 L804.0,642.4 L737.7,552.3 L671.5,552.7 L605.2,643.8 L548.0,563.1 L516.4,545.4 L450.3,557.0 L384.0,557.0 L317.8,557.0 L251.5,576.1" fill="none" stroke="#227dd1" stroke-width="4" opacity=".7"/><circle cx="435" cy="555" r="20" fill="#fbd479"/><text x="435" y="561" text-anchor="middle" font-size="22">A</text><circle cx="795" cy="375" r="20" fill="#fbd479"/><text x="795" y="381" text-anchor="middle" font-size="22">B</text><circle cx="1725" cy="555" r="20" fill="#fbd479"/><text x="1725" y="561" text-anchor="middle" font-size="22">C</text><rect x="180" y="630" width="30" height="30" fill="#52a571"/></svg>