<svg xmlns="http://www.w3.org/2000/svg" viewBox="0 0 1440 1080" width="480" height="360"><title>Counterweight: verified Medium route</title><rect width="100%" height="100%" fill="#edf1e7"/><rect x="0" y="1020" width="30" height="30" fill="#47544c"/><rect x="30" y="1020" width="30" height="30" fill="#47544c"/><rect x="60" y="1020" width="30" height="30" fill="#47544c"/><rect x="90" y="1020" width="30" height="30" fill="#47544c"/><rect x="120" y="1020" width="30" height="30" fill="#47544c"/><rect x="150" y="1020" width="30" height="30" fill="#47544c"/><rect x="180" y="1020" width="30" height="30" fill="#47544c"/><rect x="210" y="1020" width="30" height="30" fill="#47544c"/><rect x="240" y="1020" width="30" height="30" fill="#47544c"/><rect x="270" y="1020" width="30" height="30" fill="#47544c"/><rect x="300" y="1020" width="30" height="30" fill="#47544c"/><rect x="330" y="1020" width="30" height="30" fill="#47544c"/><rect x="360" y="1020" width="30" height="30" fill="#47544c"/><rect x="390" y="1020" width="30" height="30" fill="#47544c"/><rect x="420" y="1020" width="30" height="30" fill="#47544c"/><rect x="450" y="1020" width="30" height="30" fill="#47544c"/><rect x="480" y="1020" width="30" height="30" fill="#47544c"/><rect x="510" y="1020" width="30" height="30" fill="#47544c"/><rect x="540" y="1020" width="30" height="30" fill="#47544c"/><rect x="570" y="1020" width="30" height="30" fill="#47544c"/><rect x="600" y="1020" width="30" height="30" fill="#47544c"/><rect x="630" y="1020" width="30" height="30" fill="#47544c"/><rect x="660" y="1020" width="30" height="30" fill="#47544c"/><rect x="690" y="1020" width="30" height="30" fill="#47544c"/><rect x="720" y="1020" width="30" height="30" fill="#47544c"/><rect x="750" y="1020" width="30" height="30" fill="#47544c"/><rect x="780" y="1020" width="30" height="30" fill="#47544c"/><rect x="810" y="1020" width="30" height="30" fill="#47544c"/><rect x="840" y="1020" width="30" height="30" fill="#47544c"/><rect x="870" y="1020" width="30" height="30" fill="#47544c"/><rect x="900" y="1020" width="30" height="30" fill="#47544c"/><rect x="930" y="1020" width="30" height="30" fill="#47544c"/><rect x="960" y="1020" width="30" height="30" fill="#47544c"/><rect x="990" y="1020" width="30" height="30" fill="#47544c"/><rect x="1020" y="1020" width="30" height="30" fill="#47544c"/><rect x="1050" y="1020" width="30" height="30" fill="#47544c"/><rect x="1080" y="1020" width="30" height="30" fill="#47544c"/><rect x="1110" y="1020" width="30" height="30" fill="#47544c"/><rect x="1140" y="1020" width="30" height="30" fill="#47544c"/><rect x="1170" y="1020" width="30" height="30" fill="#47544c"/><rect x="1200" y="1020" width="30" height="30" fill="#47544c"/><rect x="1230" y="1020" width="30" height="30" fill="#47544c"/><rect x="1260" y="1020" width="30" height="30" fill="#47544c"/><rect x="1290" y="1020" width="30" height="30" fill="#47544c"/><rect x="1320" y="1020" width="30" height="30" fill="#47544c"/><rect x="1350" y="1020" width="30" height="30" fill="#47544c"/><rect x="1380" y="1020" width="30" height="30" fill="#47544c"/><rect x="1410" y="1020" width="30" height="30" fill="#47544c"/><rect x="0" y="1050" width="30" height="30" fill="#47544c"/><rect x="30" y="1050" width="30" height="30" fill="#47544c"/><rect x="60" y="1050" width="30" height="30" fill="#47544c"/><rect x="90" y="1050" width="30" height="30" fill="#47544c"/><rect x="120" y="1050" width="30" height="30" fill="#47544c"/><rect x="150" y="1050" width="30" height="30" fill="#47544c"/><rect x="180" y="1050" width="30" height="30" fill="#47544c"/><rect x="210" y="1050" width="30" height="30" fill="#47544c"/><rect x="240" y="1050" width="30" height="30" fill="#47544c"/><rect x="270" y="1050" width="30" height="30" fill="#47544c"/><rect x="300" y="1050" width="30" height="30" fill="#47544c"/><rect x="330" y="1050" width="30" height="30" fill="#47544c"/><rect x="360" y="1050" width="30" height="30" fill="#47544c"/><rect x="390" y="1050" width="30" height="30" fill="#47544c"/><rect x="420" y="1050" width="30" height="30" fill="#47544c"/><rect x="450" y="1050" width="30" height="30" fill="#47544c"/><rect x="480" y="1050" width="30" height="30" fill="#47544c"/><rect x="510" y="1050" width="30" height="30" fill="#47544c"/><rect x="540" y="1050" width="30" height="30" fill="#47544c"/><rect x="570" y="1050" width="30" height="30" fill="#47544c"/><rect x="600" y="1050" width="30" height="30" fill="#47544c"/><rect x="630" y="1050" width="30" height="30" fill="#47544c"/><rect x="660" y="1050" width="30" height="30" fill="#47544c"/><rect x="690" y="1050" width="30" height="30" fill="#47544c"/><rect x="720" y="1050" width="30" height="30" fill="#47544c"/><rect x="750" y="1050" width="30" height="30" fill="#47544c"/><rect x="780" y="1050" width="30" height="30" fill="#47544c"/><rect x="810" y="1050" width="30" height="30" fill="#47544c"/><rect x="840" y="1050" width="30" height="30" fill="#47544c"/><rect x="870" y="1050" width="30" height="30" fill="#47544c"/><rect x="900" y="1050" width="30" height="30" fill="#47544c"/><rect x="930" y="1050" width="30" height="30" fill="#47544c"/><rect x="960" y="1050" width="30" height="30" fill="#47544c"/><rect x="990" y="1050" width="30" height="30" fill="#47544c"/><rect x="1020" y="1050" width="30" height="30" fill="#47544c"/><rect x="1050" y="1050" width="30" height="30" fill="#47544c"/><rect x="1080" y="1050" width="30" height="30" fill="#47544c"/><rect x="1110" y="1050" width="30" height="30" fill="#47544c"/><rect x="1140" y="1050" width="30" height="30" fill="#47544c"/><rect x="1170" y="1050" width="30" height="30" fill="#47544c"/><rect x="1200" y="1050" width="30" height="30" fill="#47544c"/><rect x="1230" y="1050" width="30" height="30" fill="#47544c"/><rect x="1260" y="1050" width="30" height="30" fill="#47544c"/><rect x="1290" y="1050" width="30" height="30" fill="#47544c"/><rect x="1320" y="1050" width="30" height="30" fill="#47544c"/><rect x="1350" y="1050" width="30" height="30" fill="#47544c"/><rect x="1380" y="1050" width="30" height="30" fill="#47544c"/><rect x="1410" y="1050" width="30" height="30" fill="#47544c"/><rect x="0" y="0" width="30" height="30" fill="#47544c"/><rect x="30" y="0" width="30" height="30" fill="#47544c"/><rect x="60" y="0" width="30" height="30" fill="#47544c"/><rect x="90" y="0" width="30" height="30" fill="#47544c"/><rect x="120" y="0" width="30" height="30" fill="#47544c"/><rect x="150" y="0" width="30" height="30" fill="#47544c"/><rect x="180" y="0" width="30" height="30" fill="#47544c"/><rect x="210" y="0" width="30" height="30" fill="#47544c"/><rect x="240" y="0" width="30" height="30" fill="#47544c"/><rect x="270" y="0" width="30" height="30" fill="#47544c"/><rect x="300" y="0" width="30" height="30" fill="#47544c"/><rect x="330" y="0" width="30" height="30" fill="#47544c"/><rect x="360" y="0" width="30" height="30" fill="#47544c"/><rect x="390" y="0" width="30" height="30" fill="#47544c"/><rect x="420" y="0" width="30" height="30" fill="#47544c"/><rect x="450" y="0" width="30" height="30" fill="#47544c"/><rect x="480" y="0" width="30" height="30" fill="#47544c"/><rect x="510" y="0" width="30" height="30" fill="#47544c"/><rect x="540" y="0" width="30" height="30" fill="#47544c"/><rect x="570" y="0" width="30" height="30" fill="#47544c"/><rect x="600" y="0" width="30" height="30" fill="#47544c"/><rect x="630" y="0" width="30" height="30" fill="#47544c"/><rect x="660" y="0" width="30" height="30" fill="#47544c"/><rect x="690" y="0" width="30" height="30" fill="#47544c"/><rect x="720" y="0" width="30" height="30" fill="#47544c"/><rect x="750" y="0" width="30" height="30" fill="#47544c"/><rect x="780" y="0" width="30" height="30" fill="#47544c"/><rect x="810" y="0" width="30" height="30" fill="#47544c"/><rect x="840" y="0" width="30" height="30" fill="#47544c"/><rect x="870" y="0" width="30" height="30" fill="#47544c"/><rect x="900" y="0" width="30" height="30" fill="#47544c"/><rect x="930" y="0" width="30" height="30" fill="#47544c"/><rect x="960" y="0" width="30" height="30" fill="#47544c"/><rect x="990" y="0" width="30" height="30" fill="#47544c"/><rect x="1020" y="0" width="30" height="30" fill="#47544c"/><rect x="1050" y="0" width="30" height="30" fill="#47544c"/><rect x="1080" y="0" width="30" height="30" fill="#47544c"/><rect x="1110" y="0" width="30" height="30" fill="#47544c"/><rect x="1140" y="0" width="30" height="30" fill="#47544c"/><rect x="1170" y="0" width="30" height="30" fill="#47544c"/><rect x="1200" y="0" width="30" height="30" fill="#47544c"/><rect x="1230" y="0" width="30" height="30" fill="#47544c"/><rect x="1260" y="0" width="30" height="30" fill="#47544c"/><rect x="1290" y="0" width="30" height="30" fill="#47544c"/><rect x="1320" y="0" width="30" height="30" fill="#47544c"/><rect x="1350" y="0" width="30" height="30" fill="#47544c"/><rect x="1380" y="0" width="30" height="30" fill="#47544c"/><rect x="1410" y="0" width="30" height="30" fill="#47544c"/><rect x="0" y="30" width="30" height="30" fill="#47544c"/><rect x="0" y="60" width="30" height="30" fill="#47544c"/><rect x="0" y="90" width="30" height="30" fill="#47544c"/><rect x="0" y="120" width="30" height="30" fill="#47544c"/><rect x="0" y="150" width="30" height="30" fill="#47544c"/><rect x="0" y="180" width="30" height="30" fill="#47544c"/><rect x="0" y="210" width="30" height="30" fill="#47544c"/><rect x="0" y="240" width="30" height="30" fill="#47544c"/><rect x="0" y="270" width="30" height="30" fill="#47544c"/><rect x="0" y="300" width="30" height="30" fill="#47544c"/><rect x="0" y="330" width="30" height="30" fill="#47544c"/><rect x="0" y="360" width="30" height="30" fill="#47544c"/><rect x="0" y="390" width="30" height="30" fill="#47544c"/><rect x="0" y="420" width="30" height="30" fill="#47544c"/><rect x="0" y="450" width="30" height="30" fill="#47544c"/><rect x="0" y="480" width="30" height="30" fill="#47544c"/><rect x="0" y="510" width="30" height="30" fill="#47544c"/><rect x="0" y="540" width="30" height="30" fill="#47544c"/><rect x="0" y="570" width="30" height="30" fill="#47544c"/><rect x="0" y="600" width="30" height="30" fill="#47544c"/><rect x="0" y="630" width="30" height="30" fill="#47544c"/><rect x="0" y="660" width="30" height="30" fill="#47544c"/><rect x="0" y="690" width="30" height="30" fill="#47544c"/><rect x="0" y="720" width="30" height="30" fill="#47544c"/><rect x="0" y="750" width="30" height="30" fill="#47544c"/><rect x="0" y="780" width="30" height="30" fill="#47544c"/><rect x="0" y="810" width="30" height="30" fill="#47544c"/><rect x="0" y="840" width="30" height="30" fill="#47544c"/><rect x="0" y="870" width="30" height="30" fill="#47544c"/><rect x="0" y="900" width="30" height="30" fill="#47544c"/><rect x="0" y="930" width="30" height="30" fill="#47544c"/><rect x="0" y="960" width="30" height="30" fill="#47544c"/><rect x="0" y="990" width="30" height="30" fill="#47544c"/><rect x="1410" y="30" width="30" height="30" fill="#47544c"/><rect x="1410" y="60" width="30" height="30" fill="#47544c"/><rect x="1410" y="90" width="30" height="30" fill="#47544c"/><rect x="1410" y="120" width="30" height="30" fill="#47544c"/><rect x="1410" y="150" width="30" height="30" fill="#47544c"/><rect x="1410" y="180" width="30" height="30" fill="#47544c"/><rect x="1410" y="210" width="30" height="30" fill="#47544c"/><rect x="1410" y="240" width="30" height="30" fill="#47544c"/><rect x="1410" y="270" width="30" height="30" fill="#47544c"/><rect x="1410" y="300" width="30" height="30" fill="#47544c"/><rect x="1410" y="330" width="30" height="30" fill="#47544c"/><rect x="1410" y="360" width="30" height="30" fill="#47544c"/><rect x="1410" y="390" width="30" height="30" fill="#47544c"/><rect x="1410" y="420" width="30" height="30" fill="#47544c"/><rect x="1410" y="450" width="30" height="30" fill="#47544c"/><rect x="1410" y="480" width="30" height="30" fill="#47544c"/><rect x="1410" y="510" width="30" height="30" fill="#47544c"/><rect x="1410" y="540" width="30" height="30" fill="#47544c"/><rect x="1410" y="570" width="30" height="30" fill="#47544c"/><rect x="1410" y="600" width="30" height="30" fill="#47544c"/><rect x="1410" y="630" width="30" height="30" fill="#47544c"/><rect x="1410" y="660" width="30" height="30" fill="#47544c"/><rect x="1410" y="690" width="30" height="30" fill="#47544c"/><rect x="1410" y="720" width="30" height="30" fill="#47544c"/><rect x="1410" y="750" width="30" height="30" fill="#47544c"/><rect x="1410" y="780" width="30" height="30" fill="#47544c"/><rect x="1410" y="810" width="30" height="30" fill="#47544c"/><rect x="1410" y="840" width="30" height="30" fill="#47544c"/><rect x="1410" y="870" width="30" height="30" fill="#47544c"/><rect x="1410" y="900" width="30" height="30" fill="#47544c"/><rect x="1410" y="930" width="30" height="30" fill="#47544c"/><rect x="1410" y="960" width="30" height="30" fill="#47544c"/><rect x="1410" y="990" width="30" height="30" fill="#47544c"/><rect x="60" y="480" width="30" height="30" fill="#47544c"/><rect x="90" y="480" width="30" height="30" fill="#47544c"/><rect x="120" y="480" width="30" height="30" fill="#47544c"/><rect x="150" y="480" width="30" height="30" fill="#47544c"/><rect x="180" y="480" width="30" height="30" fill="#47544c"/><rect x="210" y="480" width="30" height="30" fill="#47544c"/><rect x="240" y="480" width="30" height="30" fill="#47544c"/><rect x="270" y="480" width="30" height="30" fill="#47544c"/><rect x="300" y="480" width="30" height="30" fill="#47544c"/><rect x="570" y="510" width="30" height="30" fill="#47544c"/><rect x="600" y="510" width="30" height="30" fill="#47544c"/><rect x="630" y="510" width="30" height="30" fill="#47544c"/><rect x="660" y="510" width="30" height="30" fill="#47544c"/><rect x="690" y="510" width="30" height="30" fill="#47544c"/><rect x="720" y="510" width="30" height="30" fill="#47544c"/><rect x="750" y="510" width="30" height="30" fill="#47544c"/><rect x="960" y="210" width="30" height="30" fill="#47544c"/><rect x="990" y="210" width="30" height="30" fill="#47544c"/><rect x="1020" y="210" width="30" height="30" fill="#47544c"/><rect x="1050" y="210" width="30" height="30" fill="#47544c"/><rect x="1080" y="210" width="30" height="30" fill="#47544c"/><rect x="1110" y="210" width="30" height="30" fill="#47544c"/><rect x="1140" y="210" width="30" height="30" fill="#47544c"/><rect x="1170" y="210" width="30" height="30" fill="#47544c"/><rect x="1200" y="210" width="30" height="30" fill="#47544c"/><rect x="1020" y="840" width="30" height="30" fill="#47544c"/><rect x="1050" y="840" width="30" height="30" fill="#47544c"/><rect x="1080" y="840" width="30" height="30" fill="#47544c"/><rect x="1110" y="840" width="30" height="30" fill="#47544c"/><rect x="1140" y="840" width="30" height="30" fill="#47544c"/><rect x="1170" y="840" width="30" height="30" fill="#47544c"/><rect x="1200" y="840" width="30" height="30" fill="#47544c"/><rect x="1230" y="840" width="30" height="30" fill="#47544c"/><rect x="1260" y="840" width="30" height="30" fill="#47544c"/><rect x="600" y="930" width="30" height="30" fill="#47544c"/><rect x="630" y="930" width="30" height="30" fill="#47544c"/><rect x="660" y="930" width="30" height="30" fill="#47544c"/><rect x="690" y="930" width="30" height="30" fill="#47544c"/><rect x="720" y="930" width="30" height="30" fill="#47544c"/><rect x="540" y="990" width="30" height="30" fill="#c95849"/><rect x="570" y="990" width="30" height="30" fill="#c95849"/><rect x="600" y="990" width="30" height="30" fill="#c95849"/><rect x="630" y="990" width="30" height="30" fill="#c95849"/><rect x="660" y="990" width="30" height="30" fill="#c95849"/><rect x="690" y="990" width="30" height="30" fill="#c95849"/><rect x="720" y="990" width="30" height="30" fill="#c95849"/><rect x="1080" y="990" width="30" height="30" fill="#c95849"/><rect x="1110" y="990" width="30" height="30" fill="#c95849"/><rect x="1140" y="990" width="30" height="30" fill="#c95849"/><rect x="1170" y="990" width="30" height="30" fill="#c95849"/><rect x="1200" y="990" width="30" height="30" fill="#c95849"/><rect x="1230" y="990" width="30" height="30" fill="#c95849"/><rect x="1260" y="990" width="30" height="30" fill="#c95849"/><rect x="1290" y="990" width="30" height="30" fill="#c95849"/><path d="M195.0,1006.0 L195.1,1006.1 L237.5,937.5 L303.8,901.7 L365.2,947.0 L371.7,917.7 L372.0,882.5 L372.0,847.4 L372.0,812.2 L372.0,777.1 L372.0,741.9 L372.0,706.8 L372.0,671.6 L372.0,636.5 L372.0,601.3 L372.0,566.1 L372.0,531.0 L362.8,458.4 L303.0,404.5 L236.8,441.2 L195.8,467.0 L238.8,467.0 L305.1,467.0 L371.3,480.7 L432.8,575.9 L439.2,666.9 L439.6,702.1 L439.6,737.2 L439.6,772.4 L439.6,807.5 L439.6,842.7 L439.6,877.9 L439.6,913.0 L439.6,947.0 L439.6,947.0 L439.6,947.0 L439.6,947.0 L439.6,917.7 L439.6,882.5 L439.6,847.4 L439.6,812.2 L439.6,777.1 L439.6,741.9 L439.6,706.8 L439.6,671.6 L439.6,636.5 L439.6,601.3 L439.6,566.1 L439.6,531.0 L448.8,497.0 L508.6,427.5 L574.9,391.7 L636.3,446.5 L634.6,497.0 L685.8,497.0 L752.0,497.0 L813.6,507.6 L824.7,596.7 L825.4,677.0 L825.4,677.0 L825.4,677.0 L825.4,645.8 L825.4,608.3 L825.4,570.8 L825.4,533.3 L825.4,495.8 L825.4,458.3 L825.4,420.8 L825.4,383.3 L825.4,345.8 L825.4,308.3 L825.4,270.8 L825.4,233.3 L834.7,197.0 L894.5,197.0 L960.7,145.5 L1027.0,91.6 L1078.5,128.3 L1062.6,197.0 L1006.3,197.0 L940.1,199.1 L908.6,264.1 L906.6,415.7 L906.4,453.2 L906.4,490.7 L906.4,528.2 L906.4,565.7 L906.4,603.2 L906.4,640.7 L915.7,677.0 L970.7,694.2 L950.4,795.4 L885.1,987.1 L818.8,923.1 L752.6,905.4 L686.3,917.0 L620.1,917.0 L553.8,934.2 L487.6,1007.0 L421.3,1007.0 L355.1,1007.0 L288.8,1007.0" fill="none" stroke="#227dd1" stroke-width="4" opacity=".7"/><circle cx="195" cy="465" r="20" fill="#fbd479"/><text x="195" y="471" text-anchor="middle" font-size="22">A</text><circle cx="1065" cy="195" r="20" fill="#fbd479"/><text x="1065" y="201" text-anchor="middle" font-size="22">B</text><rect x="240" y="990" width="30" height="30" fill="#52a571"/></svg>